<svg xmlns="http://www.w3.org/2000/svg" width="18.581" height="18.5" viewBox="0 0 18.581 18.5">
  <path id="Icon_awesome-sort-alpha-up" data-name="Icon awesome-sort-alpha-up" d="M.664,7.536H2.654V20.089a.662.662,0,0,0,.664.661H4.645a.662.662,0,0,0,.664-.661V7.536H7.3a.661.661,0,0,0,.469-1.128L4.451,2.444a.666.666,0,0,0-.938,0L.194,6.408A.661.661,0,0,0,.664,7.536Zm16.591,5.286H11.945a.662.662,0,0,0-.664.661V14.8a.662.662,0,0,0,.664.661h2.323l-2.541,2.909a1.319,1.319,0,0,0-.445.988v.728a.662.662,0,0,0,.664.661h5.309a.662.662,0,0,0,.664-.661V18.768a.662.662,0,0,0-.664-.661H14.932L17.472,15.2a1.319,1.319,0,0,0,.445-.988v-.728A.662.662,0,0,0,17.254,12.821ZM18.542,9.3,16.084,2.689a.663.663,0,0,0-.625-.439H13.74a.663.663,0,0,0-.625.439L10.657,9.3a.661.661,0,0,0,.625.883h1.03a.663.663,0,0,0,.632-.458l.183-.534h2.945l.183.534a.663.663,0,0,0,.633.458h1.03a.661.661,0,0,0,.625-.883ZM13.92,6.875l.68-1.982.68,1.982Z" transform="translate(0 -2.25)" fill="#fff"/>
</svg>
