<svg id="Group_41" data-name="Group 41" xmlns="http://www.w3.org/2000/svg" width="174.363" height="54.488" viewBox="0 0 174.363 54.488">
  <rect id="Rectangle_174" data-name="Rectangle 174" width="174.363" height="54.488" rx="6" transform="translate(0 0)"/>
  <path id="Path_162" data-name="Path 162" d="M641.594,2298.051a7.658,7.658,0,0,1,3.647-6.425,7.839,7.839,0,0,0-6.176-3.34c-2.6-.272-5.118,1.555-6.442,1.555-1.35,0-3.389-1.528-5.584-1.483a8.224,8.224,0,0,0-6.922,4.222c-2.993,5.181-.76,12.8,2.106,16.985,1.434,2.051,3.111,4.342,5.3,4.261,2.146-.089,2.948-1.369,5.539-1.369,2.567,0,3.319,1.369,5.557,1.317,2.3-.037,3.754-2.06,5.139-4.13a16.958,16.958,0,0,0,2.35-4.786A7.4,7.4,0,0,1,641.594,2298.051Z" transform="translate(-604.841 -2271.144)" fill="#fff"/>
  <path id="Path_163" data-name="Path 163" d="M658.015,2273.21a7.541,7.541,0,0,0,1.725-5.4,7.672,7.672,0,0,0-4.964,2.568,7.174,7.174,0,0,0-1.77,5.2A6.343,6.343,0,0,0,658.015,2273.21Z" transform="translate(-625.489 -2258.823)" fill="#fff"/>
  <path id="Path_164" data-name="Path 164" d="M731.955,2325.2h-3l-1.643-5.164H721.6l-1.565,5.164h-2.92l5.659-17.579h3.495Zm-5.138-7.329-1.487-4.59q-.235-.7-.887-3.312h-.052q-.26,1.123-.834,3.312l-1.46,4.59Z" transform="translate(-664.137 -2282.807)" fill="#fff"/>
  <path id="Path_165" data-name="Path 165" d="M772.557,2325.738a7.205,7.205,0,0,1-1.747,5.111,5.108,5.108,0,0,1-3.886,1.669,3.884,3.884,0,0,1-3.6-1.8h-.053v6.677h-2.816V2323.73q0-2.033-.1-4.173h2.477l.157,2.009h.052a5.011,5.011,0,0,1,8.02-.5A6.991,6.991,0,0,1,772.557,2325.738Zm-2.869.1a5.221,5.221,0,0,0-.834-3.051,2.884,2.884,0,0,0-2.451-1.252,2.925,2.925,0,0,0-1.891.691,3.2,3.2,0,0,0-1.109,1.814,3.683,3.683,0,0,0-.13.859v2.113a3.385,3.385,0,0,0,.847,2.334,2.813,2.813,0,0,0,2.2.952,2.882,2.882,0,0,0,2.477-1.226A5.4,5.4,0,0,0,769.688,2325.841Z" transform="translate(-690.187 -2289.844)" fill="#fff"/>
  <path id="Path_166" data-name="Path 166" d="M809.233,2325.738a7.2,7.2,0,0,1-1.749,5.111,5.1,5.1,0,0,1-3.885,1.669,3.883,3.883,0,0,1-3.6-1.8h-.052v6.677h-2.817V2323.73q0-2.033-.1-4.173h2.477l.157,2.009h.052a5.012,5.012,0,0,1,8.02-.5A7,7,0,0,1,809.233,2325.738Zm-2.869.1a5.22,5.22,0,0,0-.836-3.051,2.881,2.881,0,0,0-2.451-1.252,2.925,2.925,0,0,0-1.891.691,3.208,3.208,0,0,0-1.107,1.814,3.711,3.711,0,0,0-.13.859v2.113a3.392,3.392,0,0,0,.846,2.334,2.814,2.814,0,0,0,2.206.952,2.882,2.882,0,0,0,2.477-1.226A5.4,5.4,0,0,0,806.364,2325.841Z" transform="translate(-712.284 -2289.844)" fill="#fff"/>
  <path id="Path_167" data-name="Path 167" d="M852.209,2319.87a4.684,4.684,0,0,1-1.561,3.651,6.921,6.921,0,0,1-4.789,1.539,8.386,8.386,0,0,1-4.556-1.095l.653-2.348a7.713,7.713,0,0,0,4.071,1.122,3.848,3.848,0,0,0,2.479-.719,2.345,2.345,0,0,0,.885-1.921,2.448,2.448,0,0,0-.73-1.8,6.8,6.8,0,0,0-2.425-1.36q-4.617-1.722-4.615-5.041a4.465,4.465,0,0,1,1.617-3.553,6.382,6.382,0,0,1,4.3-1.385,8.538,8.538,0,0,1,3.989.834l-.7,2.3a6.923,6.923,0,0,0-3.364-.809,3.4,3.4,0,0,0-2.32.731,2.085,2.085,0,0,0-.7,1.592,2.146,2.146,0,0,0,.808,1.72,9.111,9.111,0,0,0,2.556,1.357,8.682,8.682,0,0,1,3.339,2.138A4.483,4.483,0,0,1,852.209,2319.87Z" transform="translate(-738.959 -2282.411)" fill="#fff"/>
  <path id="Path_168" data-name="Path 168" d="M880.461,2317.281h-3.1v6.155q0,2.347,1.643,2.348a5.053,5.053,0,0,0,1.251-.13l.078,2.139a6.388,6.388,0,0,1-2.191.312,3.378,3.378,0,0,1-2.608-1.016,5,5,0,0,1-.939-3.417v-6.389h-1.85v-2.112h1.85v-2.322l2.766-.834v3.156h3.1Z" transform="translate(-757.9 -2285.455)" fill="#fff"/>
  <path id="Path_169" data-name="Path 169" d="M908.58,2325.79a6.953,6.953,0,0,1-1.67,4.8,5.961,5.961,0,0,1-4.644,1.93,5.665,5.665,0,0,1-4.445-1.852,6.739,6.739,0,0,1-1.657-4.667,6.884,6.884,0,0,1,1.708-4.825,5.911,5.911,0,0,1,4.6-1.878,5.787,5.787,0,0,1,4.487,1.853A6.679,6.679,0,0,1,908.58,2325.79Zm-2.923.091a5.709,5.709,0,0,0-.756-3.008,2.783,2.783,0,0,0-2.529-1.517,2.822,2.822,0,0,0-2.582,1.517,5.816,5.816,0,0,0-.756,3.062,5.7,5.7,0,0,0,.756,3.007,2.877,2.877,0,0,0,5.085-.026A5.714,5.714,0,0,0,905.656,2325.881Z" transform="translate(-772.012 -2289.844)" fill="#fff"/>
  <path id="Path_170" data-name="Path 170" d="M940.143,2322.033a4.884,4.884,0,0,0-.888-.077,2.664,2.664,0,0,0-2.3,1.122,4.214,4.214,0,0,0-.7,2.5v6.651H933.44l.026-8.684q0-2.192-.106-3.991h2.454l.1,2.425h.078a4.331,4.331,0,0,1,1.408-2.008,3.41,3.41,0,0,1,2.036-.678,4.5,4.5,0,0,1,.7.051Z" transform="translate(-794.422 -2289.844)" fill="#fff"/>
  <path id="Path_171" data-name="Path 171" d="M965.032,2325.255a6.613,6.613,0,0,1-.1,1.277H956.48a3.679,3.679,0,0,0,1.226,2.87,4.185,4.185,0,0,0,2.763.886,9.359,9.359,0,0,0,3.418-.6l.441,1.956a10.582,10.582,0,0,1-4.249.783,6.149,6.149,0,0,1-4.631-1.735,6.407,6.407,0,0,1-1.682-4.656,7.26,7.26,0,0,1,1.566-4.773,5.4,5.4,0,0,1,4.432-2.033,4.722,4.722,0,0,1,4.149,2.033A6.854,6.854,0,0,1,965.032,2325.255Zm-2.686-.73a3.826,3.826,0,0,0-.547-2.165,2.46,2.46,0,0,0-2.244-1.174,2.672,2.672,0,0,0-2.242,1.148,4.191,4.191,0,0,0-.833,2.191Z" transform="translate(-806.716 -2289.804)" fill="#fff"/>
  <path id="Path_172" data-name="Path 172" d="M728.42,2274.079a4.336,4.336,0,0,1-1.4,3.511,5.555,5.555,0,0,1-3.677,1.089,17.129,17.129,0,0,1-2.025-.1v-8.495a14.889,14.889,0,0,1,2.384-.179,5.14,5.14,0,0,1,3.421.986A3.984,3.984,0,0,1,728.42,2274.079Zm-1.461.039a2.815,2.815,0,0,0-3.14-3.126,5.865,5.865,0,0,0-1.115.09v6.457a7.326,7.326,0,0,0,.935.039,3.277,3.277,0,0,0,2.453-.885A3.535,3.535,0,0,0,726.959,2274.118Z" transform="translate(-666.671 -2260.085)" fill="#fff"/>
  <path id="Path_173" data-name="Path 173" d="M749.4,2278.992a3.414,3.414,0,0,1-.82,2.357,2.926,2.926,0,0,1-2.281.949,2.787,2.787,0,0,1-2.185-.91,3.315,3.315,0,0,1-.813-2.294,3.385,3.385,0,0,1,.839-2.37,2.907,2.907,0,0,1,2.261-.922,2.849,2.849,0,0,1,2.2.909A3.286,3.286,0,0,1,749.4,2278.992Zm-1.435.045a2.812,2.812,0,0,0-.372-1.478,1.368,1.368,0,0,0-1.242-.745,1.388,1.388,0,0,0-1.269.745,2.863,2.863,0,0,0-.372,1.5,2.815,2.815,0,0,0,.372,1.479,1.414,1.414,0,0,0,2.5-.013A2.8,2.8,0,0,0,747.966,2279.037Z" transform="translate(-679.915 -2263.638)" fill="#fff"/>
  <path id="Path_174" data-name="Path 174" d="M771.081,2276.124l-1.948,6.227h-1.268l-.808-2.7a20.134,20.134,0,0,1-.5-2.012h-.024a14.667,14.667,0,0,1-.5,2.012l-.858,2.7h-1.282l-1.832-6.227h1.423l.7,2.959q.256,1.051.423,2h.024q.155-.781.514-1.986l.884-2.972h1.127l.846,2.909q.308,1.063.5,2.05h.039a19.561,19.561,0,0,1,.423-2.05l.756-2.909Z" transform="translate(-691.216 -2263.833)" fill="#fff"/>
  <path id="Path_175" data-name="Path 175" d="M794.533,2282.157h-1.384v-3.566q0-1.649-1.255-1.649a1.249,1.249,0,0,0-1,.453,1.606,1.606,0,0,0-.384,1.068v3.694h-1.384v-4.446q0-.82-.051-1.781h1.216l.065.973h.039a2,2,0,0,1,.717-.752,2.339,2.339,0,0,1,1.255-.349,1.986,1.986,0,0,1,1.448.564,2.739,2.739,0,0,1,.717,2.063Z" transform="translate(-707.492 -2263.638)" fill="#fff"/>
  <path id="Path_176" data-name="Path 176" d="M810.313,2278.021h-1.383v-9.084h1.383Z" transform="translate(-719.455 -2259.502)" fill="#fff"/>
  <path id="Path_177" data-name="Path 177" d="M823.668,2278.992a3.414,3.414,0,0,1-.82,2.357,2.928,2.928,0,0,1-2.281.949,2.784,2.784,0,0,1-2.186-.91,3.315,3.315,0,0,1-.812-2.294,3.387,3.387,0,0,1,.838-2.37,2.908,2.908,0,0,1,2.26-.922,2.852,2.852,0,0,1,2.206.909A3.289,3.289,0,0,1,823.668,2278.992Zm-1.437.045a2.812,2.812,0,0,0-.371-1.478,1.366,1.366,0,0,0-1.241-.745,1.386,1.386,0,0,0-1.269.745,2.864,2.864,0,0,0-.371,1.5,2.815,2.815,0,0,0,.371,1.479,1.4,1.4,0,0,0,1.257.745,1.382,1.382,0,0,0,1.241-.758A2.792,2.792,0,0,0,822.231,2279.037Z" transform="translate(-724.659 -2263.638)" fill="#fff"/>
  <path id="Path_178" data-name="Path 178" d="M842.016,2282.157h-1.243l-.1-.718h-.038a2.132,2.132,0,0,1-1.819.859,1.876,1.876,0,0,1-1.422-.564,1.769,1.769,0,0,1-.488-1.268,1.938,1.938,0,0,1,.955-1.743,4.974,4.974,0,0,1,2.686-.589v-.115q0-1.229-1.293-1.23a2.887,2.887,0,0,0-1.623.461l-.281-.909a3.981,3.981,0,0,1,2.136-.538q2.442,0,2.443,2.576v2.293A9.759,9.759,0,0,0,842.016,2282.157Zm-1.437-2.14v-.961q-2.291-.038-2.291,1.256a.938.938,0,0,0,.266.73.966.966,0,0,0,.676.244,1.391,1.391,0,0,0,.846-.288,1.176,1.176,0,0,0,.48-.737A1.12,1.12,0,0,0,840.579,2280.017Z" transform="translate(-736.308 -2263.638)" fill="#fff"/>
  <path id="Path_179" data-name="Path 179" d="M860.546,2278.021h-1.228l-.064-1h-.039a2.069,2.069,0,0,1-2,1.141,2.342,2.342,0,0,1-1.871-.884,3.446,3.446,0,0,1-.743-2.294,3.607,3.607,0,0,1,.807-2.447,2.48,2.48,0,0,1,1.922-.871,1.867,1.867,0,0,1,1.754.846h.026v-3.575H860.5v7.406Q860.5,2277.251,860.546,2278.021Zm-1.434-2.626v-1.039a1.977,1.977,0,0,0-.039-.436,1.568,1.568,0,0,0-.5-.839,1.36,1.36,0,0,0-.926-.34,1.421,1.421,0,0,0-1.218.615,2.64,2.64,0,0,0-.444,1.576,2.463,2.463,0,0,0,.426,1.5,1.425,1.425,0,0,0,1.21.615,1.337,1.337,0,0,0,1.094-.512A1.714,1.714,0,0,0,859.112,2275.394Z" transform="translate(-746.971 -2259.502)" fill="#fff"/>
  <path id="Path_180" data-name="Path 180" d="M890.1,2278.992a3.414,3.414,0,0,1-.82,2.357,2.925,2.925,0,0,1-2.281.949,2.792,2.792,0,0,1-2.185-.91,3.315,3.315,0,0,1-.813-2.294,3.388,3.388,0,0,1,.838-2.37,2.91,2.91,0,0,1,2.263-.922,2.847,2.847,0,0,1,2.2.909A3.289,3.289,0,0,1,890.1,2278.992Zm-1.435.045a2.813,2.813,0,0,0-.371-1.478,1.37,1.37,0,0,0-1.243-.745,1.392,1.392,0,0,0-1.27.745,2.864,2.864,0,0,0-.371,1.5,2.815,2.815,0,0,0,.371,1.479,1.415,1.415,0,0,0,2.5-.013A2.811,2.811,0,0,0,888.66,2279.037Z" transform="translate(-764.681 -2263.638)" fill="#fff"/>
  <path id="Path_181" data-name="Path 181" d="M909.793,2282.157H908.41v-3.566q0-1.649-1.256-1.649a1.244,1.244,0,0,0-1,.453,1.6,1.6,0,0,0-.384,1.068v3.694h-1.385v-4.446q0-.82-.049-1.781h1.215l.064.973h.039a2.018,2.018,0,0,1,.717-.752,2.341,2.341,0,0,1,1.256-.349,1.985,1.985,0,0,1,1.447.564,2.733,2.733,0,0,1,.718,2.063Z" transform="translate(-776.935 -2263.638)" fill="#fff"/>
  <path id="Path_182" data-name="Path 182" d="M935.751,2274.812h-1.525v3.024c0,.769.271,1.153.808,1.153a2.469,2.469,0,0,0,.617-.064l.036,1.051a3.129,3.129,0,0,1-1.076.154,1.653,1.653,0,0,1-1.28-.5,2.438,2.438,0,0,1-.462-1.678v-3.14h-.911v-1.038h.911v-1.14l1.357-.41v1.55h1.525Z" transform="translate(-793.577 -2261.483)" fill="#fff"/>
  <path id="Path_183" data-name="Path 183" d="M951.742,2278.021h-1.386v-3.541q0-1.675-1.254-1.675a1.321,1.321,0,0,0-1.321.971,1.727,1.727,0,0,0-.064.5v3.745h-1.383v-9.084h1.383v3.753h.026a2.092,2.092,0,0,1,1.87-1.024,1.932,1.932,0,0,1,1.424.564,2.834,2.834,0,0,1,.7,2.088Z" transform="translate(-802.238 -2259.502)" fill="#fff"/>
  <path id="Path_184" data-name="Path 184" d="M970.566,2278.729a3.291,3.291,0,0,1-.052.628h-4.151a1.816,1.816,0,0,0,.6,1.41,2.061,2.061,0,0,0,1.36.436,4.6,4.6,0,0,0,1.679-.295l.217.961a5.224,5.224,0,0,1-2.09.385,3.015,3.015,0,0,1-2.273-.852,3.14,3.14,0,0,1-.826-2.288,3.567,3.567,0,0,1,.769-2.345,2.648,2.648,0,0,1,2.177-1,2.315,2.315,0,0,1,2.036,1A3.347,3.347,0,0,1,970.566,2278.729Zm-1.321-.358a1.864,1.864,0,0,0-.268-1.063,1.209,1.209,0,0,0-1.1-.577,1.314,1.314,0,0,0-1.1.564,2.086,2.086,0,0,0-.41,1.077Z" transform="translate(-813.504 -2263.619)" fill="#fff"/>
</svg>
