<svg id="Group_42" data-name="Group 42" xmlns="http://www.w3.org/2000/svg" xmlns:xlink="http://www.w3.org/1999/xlink" width="173.738" height="54.293" viewBox="0 0 173.738 54.293">
  <defs>
    <linearGradient id="linear-gradient" x1="0.296" y1="-0.06" x2="0.552" y2="0.928" gradientUnits="objectBoundingBox">
      <stop offset="0" stop-color="#006884"/>
      <stop offset="1" stop-color="#8ad1d0"/>
    </linearGradient>
    <linearGradient id="linear-gradient-2" x1="-0.077" y1="0.161" x2="0.917" y2="0.865" gradientUnits="objectBoundingBox">
      <stop offset="0" stop-color="#24bbb6"/>
      <stop offset="1" stop-color="#dbe692"/>
    </linearGradient>
    <linearGradient id="linear-gradient-3" x1="0.5" y1="1.051" x2="0.5" y2="-0.046" gradientUnits="objectBoundingBox">
      <stop offset="0" stop-color="#fcc072"/>
      <stop offset="1" stop-color="#f58a5b"/>
    </linearGradient>
    <linearGradient id="linear-gradient-4" x1="0.109" y1="1.176" x2="0.905" y2="0.115" gradientUnits="objectBoundingBox">
      <stop offset="0" stop-color="#712b8f"/>
      <stop offset="1" stop-color="#ea1d27"/>
    </linearGradient>
  </defs>
  <rect id="Rectangle_175" data-name="Rectangle 175" width="173.738" height="54.293" rx="6" transform="translate(0 0)"/>
  <path id="Path_185" data-name="Path 185" d="M135.9,2288.383V2274.1a1.533,1.533,0,0,1,1.4-1.509,2.407,2.407,0,0,1,1.29.36l26.195,14.321a1.158,1.158,0,0,1,0,2.227l-26.195,14.321a2.408,2.408,0,0,1-1.29.359,1.532,1.532,0,0,1-1.4-1.508Z" transform="translate(-122.632 -2261.778)" fill-rule="evenodd" fill="url(#linear-gradient)"/>
  <path id="Path_186" data-name="Path 186" d="M154.67,2288.477l-15.86-15.86a1.088,1.088,0,0,1,.247-.028,2.407,2.407,0,0,1,1.29.36l19.3,10.551Z" transform="translate(-124.386 -2261.778)" fill-rule="evenodd" fill="url(#linear-gradient-2)"/>
  <path id="Path_187" data-name="Path 187" d="M183.565,2309.869l-4.857-4.857,4.976-4.977,6.9,3.771a1.158,1.158,0,0,1,0,2.227Z" transform="translate(-148.424 -2278.314)" fill-rule="evenodd" fill="url(#linear-gradient-3)"/>
  <path id="Path_188" data-name="Path 188" d="M139.218,2328.254l.014-.014,15.684-15.683,4.857,4.856L140.593,2327.9a2.4,2.4,0,0,1-1.29.36Z" transform="translate(-124.632 -2285.859)" fill-rule="evenodd" fill="url(#linear-gradient-4)"/>
  <path id="Path_189" data-name="Path 189" d="M278.244,2328.4a7.588,7.588,0,0,1-1.506-2.06l2.188-.93a4.607,4.607,0,0,0,.669,1.031,2.992,2.992,0,0,0,2.223,1.025,2.94,2.94,0,0,0,2.314-1.089,3.851,3.851,0,0,0,.627-2.28v-.854c-1.562,2.009-4.977,1.729-6.887-.35a6.023,6.023,0,0,1,.042-8.044c2.038-2.019,5.062-2.274,6.841-.362l0,0v-.966h2.369v10.3c0,2.621-.962,4.1-2.157,4.965a5.625,5.625,0,0,1-3.181.921,5.246,5.246,0,0,1-3.546-1.313Zm56.808.568h0l2.288-5.421-4.051-9.4H335.6l2.887,6.694,2.825-6.694h2.308l-6.255,14.82Zm-10.955-5.178h0a3.643,3.643,0,0,1-1.016-2.516,3.168,3.168,0,0,1,.839-2.212,5.091,5.091,0,0,1,3.793-1.419,4.941,4.941,0,0,1,2.448.561,2.228,2.228,0,0,0-2.393-2.29,2.316,2.316,0,0,0-2.251,1.461l-2.072-.84a4.274,4.274,0,0,1,4.272-2.712,4.416,4.416,0,0,1,4.68,4.976v5.692h-2.261v-1.017a3.851,3.851,0,0,1-1.239.981,4.349,4.349,0,0,1-1.893.383,4.279,4.279,0,0,1-2.908-1.049Zm-72.314-4.894h0a5.647,5.647,0,1,1,5.646,5.7,5.644,5.644,0,0,1-5.646-5.7Zm12.256,0h0a5.646,5.646,0,1,1,5.646,5.7,5.643,5.643,0,0,1-5.646-5.7Zm-27.551,3h0a8.807,8.807,0,0,1,.1-12.42,8.717,8.717,0,0,1,6.235-2.582,8.815,8.815,0,0,1,6,2.4l-1.692,1.766a6.166,6.166,0,0,0-8.744.119,6.558,6.558,0,0,0-.058,9.065,6.238,6.238,0,0,0,8.933.147,5.262,5.262,0,0,0,1.274-3.043h-5.727v-2.422h8.046a9.906,9.906,0,0,1,.133,1.844,8.146,8.146,0,0,1-2.193,5.468,8.057,8.057,0,0,1-5.893,2.347,9.2,9.2,0,0,1-6.417-2.686Zm57.323,1.016h0a6.165,6.165,0,0,1,0-8.079,4.958,4.958,0,0,1,7.4-.013,8.624,8.624,0,0,1,1.451,2.619l-7.528,3.17a2.937,2.937,0,0,0,2.677,1.737,3.105,3.105,0,0,0,2.812-1.586l1.969,1.325h0c-.227.3-.506.6-.716.827a5.712,5.712,0,0,1-8.062,0Zm14.142,1.592h0v-15.007h4.83c2.91,0,5.107,2.036,5.107,4.545a4.605,4.605,0,0,1-4.661,4.544h-2.987v5.918Zm11.434,0h0v-15.01h2.288v15.01Zm-30.65-.243h0v-16.8h2.506v16.8Zm41.407-4.158h0a4.07,4.07,0,0,0-2.157-.549c-1.629,0-2.548.823-2.548,1.723a1.667,1.667,0,0,0,1.86,1.5,2.861,2.861,0,0,0,2.845-2.675Zm-69.565-1.2h0a3.163,3.163,0,1,0-3.151,3.44,3.294,3.294,0,0,0,3.151-3.44Zm12.255,0h0a3.163,3.163,0,1,0-3.151,3.44,3.294,3.294,0,0,0,3.151-3.44Zm11.978,1.036h0a3.242,3.242,0,0,0,.089-.407.148.148,0,0,0,.007-.054,3.623,3.623,0,0,0,0-1.171.324.324,0,0,0-.011-.072,3.025,3.025,0,0,0-.127-.507,3.093,3.093,0,0,0-2.894-2.26,3.454,3.454,0,0,0,.044,6.862,3.149,3.149,0,0,0,2.894-2.391Zm9.93-1.238h0l5.025-2.131a2.318,2.318,0,0,0-2.081-1.177,3.163,3.163,0,0,0-2.944,3.307Zm20.811-4.6h0a2.4,2.4,0,0,0-2.56-2.375h-2.752v4.749h2.881A2.4,2.4,0,0,0,315.555,2314.091Z" transform="translate(-181.723 -2282.445)" fill="#fff" fill-rule="evenodd"/>
  <path id="Path_190" data-name="Path 190" d="M492.625,2355.495v0l-.007,0s0,0,0,0v-.012a0,0,0,0,1,0,0s0,0,.005,0l0,0a.013.013,0,0,0-.007,0,.009.009,0,0,0-.008.007v.013s0,.006.008.006A.009.009,0,0,0,492.625,2355.495Z" transform="translate(-337.546 -2311.714)" fill="#fff" fill-rule="evenodd"/>
  <path id="Path_191" data-name="Path 191" d="M492.674,2355.5l-.007-.01a.007.007,0,0,0,.005-.007v0s0-.005-.008-.005h-.007v.025h0v-.01h0l.007.01Zm-.006-.017h0s0,0,0,0h0v-.007h0s0,0,0,0Z" transform="translate(-337.574 -2311.716)" fill="#fff" fill-rule="evenodd"/>
  <path id="Path_192" data-name="Path 192" d="M492.721,2355.495h-.011v-.007h.009v0h-.009v-.006h.009v0h-.015v.026h.015Z" transform="translate(-337.603 -2311.716)" fill="#fff" fill-rule="evenodd"/>
  <path id="Path_193" data-name="Path 193" d="M492.769,2355.5l-.007-.025h-.005l-.008.025h.005l0-.008h.006l0,.008Zm-.007-.012h-.005l0-.007h0Z" transform="translate(-337.629 -2311.716)" fill="#fff" fill-rule="evenodd"/>
  <path id="Path_194" data-name="Path 194" d="M492.811,2355.473h-.016v0h.006v.021h0v-.021h.005Z" transform="translate(-337.657 -2311.716)" fill="#fff" fill-rule="evenodd"/>
  <path id="Path_195" data-name="Path 195" d="M492.854,2355.495h-.011v-.007h.009v0h-.009v-.006h.01v0h-.016v.026h.016Z" transform="translate(-337.683 -2311.716)" fill="#fff" fill-rule="evenodd"/>
  <path id="Path_196" data-name="Path 196" d="M492.9,2355.491v-.01s0-.006-.008-.006h-.01v.025h.01a.008.008,0,0,0,.008-.008Zm0,0h0s0,0-.005,0h0v-.017h0s.005,0,.005,0Z" transform="translate(-337.712 -2311.716)" fill="#fff" fill-rule="evenodd"/>
  <path id="Path_197" data-name="Path 197" d="M492.979,2355.492v0a.005.005,0,0,0,0-.005s0,0,0,0h0s0-.005-.007-.005h-.008v.025h.008a.007.007,0,0,0,.008-.007Zm-.006-.011h0s0,0,0,0h0v-.005h0s0,0,0,0Zm0,.01h0s0,0,0,0h0v-.008h0a0,0,0,0,1,0,0Z" transform="translate(-337.758 -2311.716)" fill="#fff" fill-rule="evenodd"/>
  <path id="Path_198" data-name="Path 198" d="M493.026,2355.473h-.005l0,.009v0l0-.009h-.005l.007.015v.011h.005v-.011Z" transform="translate(-337.785 -2311.716)" fill="#fff" fill-rule="evenodd"/>
  <path id="Path_199" data-name="Path 199" d="M493.109,2355.474h-.015v-.031h-.008v.037h.021Z" transform="translate(-337.832 -2311.697)" fill="#fff" fill-rule="evenodd"/>
  <path id="Path_200" data-name="Path 200" d="M493.175,2355.469v-.02c0-.006-.007-.009-.013-.009s-.012,0-.012.009v.02c0,.006.007.009.012.009s.013,0,.013-.009Zm-.007,0h0a.006.006,0,0,1-.006.006.006.006,0,0,1,0-.006v-.018a0,0,0,0,1,0,0s.006,0,.006,0Z" transform="translate(-337.871 -2311.695)" fill="#fff" fill-rule="evenodd"/>
  <path id="Path_201" data-name="Path 201" d="M493.248,2355.479v-.022h-.012v.007h.006v.006l-.006,0s0,0,0,0v-.018s0,0,.006,0,0,0,.007,0l0-.005a.013.013,0,0,0-.011-.005c-.006,0-.013,0-.013.01v.019c0,.006.006.009.012.009h.008Z" transform="translate(-337.916 -2311.695)" fill="#fff" fill-rule="evenodd"/>
  <path id="Path_202" data-name="Path 202" d="M493.323,2355.469v-.02c0-.006-.006-.009-.012-.009s-.013,0-.013.009v.02c0,.006.007.009.013.009s.012,0,.012-.009Zm-.006,0h0a.007.007,0,0,1-.006.006.007.007,0,0,1-.006-.006v-.018s0,0,.006,0,.006,0,.006,0Z" transform="translate(-337.96 -2311.695)" fill="#fff" fill-rule="evenodd"/>
  <path id="Path_203" data-name="Path 203" d="M493.447,2355.48v-.037h-.006l-.012.027-.013-.027h-.005v.037h.006v-.018l0,0,.011.023h.006l.009-.022v.022Z" transform="translate(-338.028 -2311.697)" fill="#fff" fill-rule="evenodd"/>
  <path id="Path_204" data-name="Path 204" d="M493.543,2355.48l-.011-.037h-.008l-.011.037h.007l0-.011h.009l0,.011Zm-.012-.017h-.006l0-.009v0Z" transform="translate(-338.09 -2311.697)" fill="#fff" fill-rule="evenodd"/>
  <path id="Path_205" data-name="Path 205" d="M493.616,2355.47a.012.012,0,0,0-.007-.013s-.009,0-.009-.007a0,0,0,0,1,0,0l.007,0,0-.005a.014.014,0,0,0-.01,0,.01.01,0,0,0-.011.01.013.013,0,0,0,.007.011s.009,0,.008.007a.005.005,0,0,1-.005.006.012.012,0,0,1-.008-.006l0,.006a.016.016,0,0,0,.012,0A.013.013,0,0,0,493.616,2355.47Z" transform="translate(-338.137 -2311.695)" fill="#fff" fill-rule="evenodd"/>
  <path id="Path_206" data-name="Path 206" d="M493.681,2355.443h-.025v.005h.009v.032h.007v-.032h.008Z" transform="translate(-338.176 -2311.697)" fill="#fff" fill-rule="evenodd"/>
  <path id="Path_207" data-name="Path 207" d="M493.751,2355.474h-.016v-.011h.014v-.006h-.014v-.009h.014l0-.005h-.023v.037h.023Z" transform="translate(-338.219 -2311.697)" fill="#fff" fill-rule="evenodd"/>
  <path id="Path_208" data-name="Path 208" d="M493.826,2355.48l-.011-.016a.009.009,0,0,0,.007-.009v0c0-.007-.005-.009-.011-.009H493.8v.037h.006v-.014h0l.009.014Zm-.01-.026h0c0,.005,0,.005-.005.005H493.8v-.011h.005s.005,0,.005,0Z" transform="translate(-338.262 -2311.697)" fill="#fff" fill-rule="evenodd"/>
  <path id="Path_209" data-name="Path 209" d="M235.427,2273.766a3.833,3.833,0,0,1,4-3.943,3.566,3.566,0,0,1,3.063,1.577l-1.086.63a2.458,2.458,0,0,0-1.978-1.018,2.757,2.757,0,0,0,0,5.508,2.736,2.736,0,0,0,1.806-.686v-1.177h-2.286v-1.177h3.611v2.845a4.117,4.117,0,0,1-3.132,1.395A3.847,3.847,0,0,1,235.427,2273.766Z" transform="translate(-182.597 -2260.113)" fill="#fff"/>
  <path id="Path_210" data-name="Path 210" d="M257.53,2277.762v-7.624h5.223v1.178h-3.886v1.966h3.807v1.176h-3.807v2.127h3.886v1.177Z" transform="translate(-195.913 -2260.302)" fill="#fff"/>
  <path id="Path_211" data-name="Path 211" d="M276.478,2277.763v-6.446H274.17v-1.178h5.954v1.178h-2.308v6.446Z" transform="translate(-205.939 -2260.303)" fill="#fff"/>
  <path id="Path_212" data-name="Path 212" d="M300.841,2277.762v-7.624h1.337v7.624Z" transform="translate(-222.008 -2260.302)" fill="#fff"/>
  <path id="Path_213" data-name="Path 213" d="M310.074,2277.763v-6.446h-2.309v-1.178h5.954v1.178h-2.308v6.446Z" transform="translate(-226.179 -2260.303)" fill="#fff"/>
  <path id="Path_214" data-name="Path 214" d="M333.6,2273.766a3.9,3.9,0,1,1,3.9,3.943A3.782,3.782,0,0,1,333.6,2273.766Zm6.423,0a2.535,2.535,0,1,0-2.525,2.754A2.531,2.531,0,0,0,340.025,2273.766Z" transform="translate(-241.746 -2260.113)" fill="#fff"/>
  <path id="Path_215" data-name="Path 215" d="M362.457,2277.762l-3.977-5.451v5.451h-1.336v-7.624h1.371l3.9,5.281v-5.281h1.337v7.624Z" transform="translate(-255.929 -2260.302)" fill="#fff"/>
</svg>
