<svg xmlns="http://www.w3.org/2000/svg" width="48" height="42" viewBox="0 0 48 42">
  <path id="Icon_awesome-object-group" data-name="Icon awesome-object-group" d="M45,11.25v-3h1.875A1.125,1.125,0,0,0,48,7.125V3.375A1.125,1.125,0,0,0,46.875,2.25h-3.75A1.125,1.125,0,0,0,42,3.375V5.25H6V3.375A1.125,1.125,0,0,0,4.875,2.25H1.125A1.125,1.125,0,0,0,0,3.375v3.75A1.125,1.125,0,0,0,1.125,8.25H3v30H1.125A1.125,1.125,0,0,0,0,39.375v3.75A1.125,1.125,0,0,0,1.125,44.25h3.75A1.125,1.125,0,0,0,6,43.125V41.25H42v1.875a1.125,1.125,0,0,0,1.125,1.125h3.75A1.125,1.125,0,0,0,48,43.125v-3.75a1.125,1.125,0,0,0-1.125-1.125H45ZM9,25.125V12.375a1.125,1.125,0,0,1,1.125-1.125h15.75A1.125,1.125,0,0,1,27,12.375v12.75a1.125,1.125,0,0,1-1.125,1.125H10.125A1.125,1.125,0,0,1,9,25.125Zm30,9a1.125,1.125,0,0,1-1.125,1.125H22.125A1.125,1.125,0,0,1,21,34.125V29.25h6.75A2.25,2.25,0,0,0,30,27V20.25h7.875A1.125,1.125,0,0,1,39,21.375Z" transform="translate(0 -2.25)" fill="#754cfe"/>
</svg>
