<svg xmlns="http://www.w3.org/2000/svg" width="54" height="42" viewBox="0 0 54 42">
  <path id="Icon_awesome-tachometer-alt" data-name="Icon awesome-tachometer-alt" d="M27,2.25A27,27,0,0,0,3.662,42.825,2.967,2.967,0,0,0,6.234,44.25H47.766a2.967,2.967,0,0,0,2.572-1.425A27,27,0,0,0,27,2.25Zm0,6a2.96,2.96,0,0,1,2.842,2.217,5.054,5.054,0,0,0-.323.625l-.864,2.594A2.922,2.922,0,0,1,27,14.25a3,3,0,0,1,0-6Zm-18,27a3,3,0,1,1,3-3A3,3,0,0,1,9,35.25Zm4.5-15a3,3,0,1,1,3-3A3,3,0,0,1,13.5,20.25Zm23.135-6.788-5.75,17.25a5.888,5.888,0,0,1,1.283,7.538H21.833a5.938,5.938,0,0,1,4.783-8.962l5.751-17.251a2.25,2.25,0,0,1,4.268,1.424Zm1.374,5.363,1.455-4.364a2.957,2.957,0,0,1,1.036-.209,3,3,0,1,1,0,6A2.955,2.955,0,0,1,38.009,18.824ZM45,35.25a3,3,0,1,1,3-3A3,3,0,0,1,45,35.25Z" transform="translate(0 -2.25)" fill="#754cfe"/>
</svg>
