<svg version="1.1" id="Layer_1" xmlns="http://www.w3.org/2000/svg" x="0" y="0" viewBox="0 0 512 512" style="enable-background:new 0 0 512 512" xml:space="preserve"><style>.st1{fill:#f3fcff}.st2{fill:#c8c9ff}.st4{fill:#e2eaf7}.st6{opacity:.6}.st7{fill:#b4cbf9}.st8{fill:#313da8}.st10{fill:#eaeaf9}.st11{fill:#b7b7f7}.st12{fill:#f6f6ff}.st13{fill:#bee5d4}.st15{opacity:.8}.st16{fill:#f2f2f2}.st17{opacity:.1}.st18{fill:#8e9afc}.st19{fill:#8e77fa}.st20{fill:#fff}.st25{fill:#f9f9f9}.st27{fill:#6f73bc}.st28{fill:#ffb9b0}.st29{fill:#4ec6a4}.st30{fill:#ed9c80}.st31{fill:#7d94f9}.st33{fill:#5045af}.st34{fill:#7a74d1}.st35{fill:#a4a4f7}.st36{opacity:.25}.st37{fill:#ce4a30}.st40{fill:#fe7062}.st41{opacity:.35}.st42{fill:#7762ef}.st44{fill:#4f52ff}.st50{fill:#d8ac6c}.st58,.st63,.st65,.st66,.st67{fill-rule:evenodd;clip-rule:evenodd;fill:#b8b0d6}.st63,.st65,.st66,.st67{fill:#bee5d4}.st65,.st66,.st67{fill:#e1ffc2}.st66,.st67{fill:#f9eaac}.st67{fill:#aac4cc}</style><g id="Feature_Graphic"><g id="base"><path d="M36.3 344.5c44.4-28.3 56.4-9.2 49.5-48.3-6.9-39.1-12.8-125.9 81.8-145.6 94.9-19.8 101.4 58.1 178.4 22.7 77-35.4 160.5 48 121.6 114.8-31.8 54.5 69.1 66.2 6.9 134-6.8 7.4-17.9 8.8-27.9 8.8l-380.7-1c-19.9 0-31.2-6.5-44.1-21.8-11.3-13.4-7.3-49.7 14.5-63.6z" style="fill:#e6f7ff"/><path class="st1" d="m469.8 284.2-352.6 73.1 378 23.5s1.2-7.3-5.7-19.9c-4.8-8.8-19-26.7-21.3-30.2-5.2-8.2-6.4-13.7-6.9-20.3-.2-2.4.2-8.9 2.4-14.1 2.9-6.5 6.1-12.1 6.1-12.1zM106.5 183.9l220.8 53.4-244.7 13.9s.3-5.2 1.4-14.8c.7-6.1 2.1-11.6 2.9-14.2 1.6-5.5 2.2-7.2 4.1-12.5.5-1.5 3-6.9 4-8.8 5.6-9.8 11.5-17 11.5-17z"/></g><path class="st2" d="M505.3 433.2H6.7c-1 0-1.7-.8-1.7-1.8s.8-1.8 1.7-1.8h498.7c1 0 1.8.8 1.8 1.8-.1 1.1-.9 1.8-1.9 1.8z"/><g id="leave_1"><path d="M495.9 243.4c-12.4 52.1-71.5 56.5-71.5 56.5s-50.4-31.7-38-83.8 80.8-106 80.8-106 41.2 81.2 28.7 133.3z" style="fill:#d7e2f4"/><path transform="rotate(13.433 445.25 205.554)" class="st4" d="M444.1 109.5h2.1v192.1h-2.1z"/><path transform="rotate(57.25 462.537 253.723)" class="st4" d="M461.5 212.7h2.1v82h-2.1z"/><path transform="rotate(144.587 417.669 214.992)" class="st4" d="M416.6 181.9h2.1V248h-2.1z"/><path transform="rotate(144.587 423.694 199.78)" class="st4" d="M422.6 169.8h2.1v60h-2.1z"/><path transform="rotate(55.738 468.404 156.419)" class="st4" d="M467.3 139.7h2.1v33.4h-2.1z"/></g><g id="leave_2"><path d="M489.3 389.3c-27.2 46.1-85 33-85 33s-38.9-45.1-11.6-91.3c27.2-46.1 108.5-77.5 108.5-77.5s15.3 89.6-11.9 135.8z" style="fill:#91b3fa"/><g class="st6"><path transform="rotate(30.56 451.958 338.066)" class="st7" d="M450.9 242.1h2.1v192.1h-2.1z"/><path transform="rotate(74.371 454.36 389.288)" class="st7" d="M453.3 348.3h2.1v82h-2.1z"/><path transform="rotate(161.714 422.896 339.047)" class="st7" d="M421.8 306h2.1v66.1h-2.1z"/><path transform="rotate(161.714 433.132 326.283)" class="st7" d="M432.1 296.3h2.1v60h-2.1z"/><path transform="rotate(72.86 488.619 298.027)" class="st7" d="M487.5 281.3h2.1v33.4h-2.1z"/></g></g><g id="MAC"><g id="Mac"><path class="st8" d="M331.6 429.9H187.9c-.9 0-1.6-.7-1.6-1.6l1.4-9.7c0-2.7 3.3-5.2 5.9-5.2h133.7c2.1 0 5.1 3 5.1 5.1l1.3 9.3c0 1.2-.9 2.1-2.1 2.1z"/><path class="st8" d="M296.9 368.5c-2.3-6.1-13.9-2-19.3-2H243c-5.4 0-16.9-4.8-18.6-.3l-7.2 51c0 4.4 9.9 3.3 15.3 3.3H288c5.4 0 15.2 2 15.2-2.4l-6.3-49.6z" id="Rounded_Rectangle_22_copy_3"/><path d="M413.5 151.6H98.2C89.8 151.6 83 159 83 168v190.6c0 9 6.8 16.4 15.2 16.4h315.3c8.4 0 15.2-7.3 15.2-16.4V168c0-9-6.8-16.4-15.2-16.4z" style="fill:#363dc1" id="Rounded_Rectangle_22_1_"/><path class="st10" d="M402.5 162.8H110.7c-13.1 0-15 2.4-15 16.3v163.6c0 13.9 1.9 16.3 15 16.3h291.8c15 0 15 0 15-16.3V179.1c0-14.8-3.5-16.3-15-16.3z" id="Rounded_Rectangle_22_copy_2_"/></g><path class="st11" d="M256.1 372.6c-2.5 0-4.5-2-4.5-4.5s2-4.5 4.5-4.5 4.5 2 4.5 4.5-2 4.5-4.5 4.5zm0-8c-1.9 0-3.5 1.6-3.5 3.5s1.6 3.5 3.5 3.5 3.5-1.6 3.5-3.5-1.5-3.5-3.5-3.5z"/><path class="st12" d="M102.7 368.1h143.2"/><path class="st11" d="M102.7 367.8h143.2v.5H102.7z"/><g><path class="st12" d="M268.9 368.1h142.5"/><path class="st11" d="M268.9 367.8h142.5v.5H268.9z"/></g></g><g id="Main_Docs"><path class="st13" d="M280.8 346.8h-91.9c-2.2 0-3.9-1.7-3.9-3.9V182.3c0-2.2 1.7-3.9 3.9-3.9h91.9c2.2 0 3.9 1.7 3.9 3.9v160.6c0 2.1-1.8 3.9-3.9 3.9z"/><path d="M280.8 347.8h-91.9c-2.7 0-4.9-2.2-4.9-4.9V182.3c0-2.7 2.2-4.9 4.9-4.9h91.9c2.7 0 4.9 2.2 4.9 4.9v160.6c0 2.7-2.2 4.9-4.9 4.9zm-91.9-168.4c-1.6 0-2.9 1.3-2.9 2.9v160.6c0 1.6 1.3 2.9 2.9 2.9h91.9c1.6 0 2.9-1.3 2.9-2.9V182.3c0-1.6-1.3-2.9-2.9-2.9h-91.9z" style="fill:#97c1ab"/><g class="st15"><path class="st16" d="M233.8 191.2h-27.7c-.8 0-1.5-.7-1.5-1.5s.7-1.5 1.5-1.5h27.7c.8 0 1.5.7 1.5 1.5.1.8-.6 1.5-1.5 1.5zM233.8 196.4h-27.7c-.8 0-1.5-.7-1.5-1.5s.7-1.5 1.5-1.5h27.7c.8 0 1.5.7 1.5 1.5.1.8-.6 1.5-1.5 1.5zM233.8 201.6h-27.7c-.8 0-1.5-.7-1.5-1.5s.7-1.5 1.5-1.5h27.7c.8 0 1.5.7 1.5 1.5.1.8-.6 1.5-1.5 1.5z"/></g><g class="st15"><path class="st16" d="M280.8 320.1h-71.9c-1.4 0-2.5-1.1-2.5-2.5s1.1-2.5 2.5-2.5h71.9c1.4 0 2.5 1.1 2.5 2.5-.1 1.4-1.2 2.5-2.5 2.5z"/></g><g class="st15"><path class="st16" d="M280.8 328.8h-71.9c-1.4 0-2.5-1.1-2.5-2.5s1.1-2.5 2.5-2.5h71.9c1.4 0 2.5 1.1 2.5 2.5-.1 1.4-1.2 2.5-2.5 2.5z"/></g><g class="st15"><path class="st16" d="M280.8 337.5h-71.9c-1.4 0-2.5-1.1-2.5-2.5s1.1-2.5 2.5-2.5h71.9c1.4 0 2.5 1.1 2.5 2.5-.1 1.4-1.2 2.5-2.5 2.5z"/></g><g class="st17"><path class="st16" d="M238.4 178.9c-.2 0-26.8 45.6-30.3 63-2.2 11.1-3.2 26.3 8.4 40.4 12.1 14.8 26.2 28.2 24.5 41.9-1.8 13.7-14.8 24.6-14.8 24.6h49.4s4.5.1 5.4 0c1.9-.1 2.7-1.3 3-1.9.4-.7.3-1.8.3-1.8l.2-162.6c0-1.7-1.6-3.5-3.6-3.5h-42.5z"/></g><g><path class="st18" d="M339.1 323.9h-7.9c-.6 0-1-.4-1-1s.4-1 1-1h7.9c.6 0 1 .4 1 1s-.4 1-1 1zm-13.8 0h-7.9c-.6 0-1-.4-1-1s.4-1 1-1h7.9c.6 0 1 .4 1 1s-.4 1-1 1zm-13.8 0h-7.9c-.6 0-1-.4-1-1s.4-1 1-1h7.9c.6 0 1 .4 1 1s-.4 1-1 1zm-13.8 0h-7.9c-.6 0-1-.4-1-1s.4-1 1-1h7.9c.6 0 1 .4 1 1s-.4 1-1 1zm-13.7 0h-1.4c-2.4 0-4.6-.7-6.6-1.9-.5-.3-.6-.9-.3-1.4.3-.5.9-.6 1.4-.3 1.7 1 3.6 1.6 5.6 1.6h1.4c.6 0 1 .4 1 1s-.6 1-1.1 1zm60.8-1.5c-.3 0-.7-.2-.9-.5-.3-.5-.1-1.1.4-1.4 2.1-1.2 3.8-3.1 4.7-5.3.2-.5.8-.8 1.3-.6.5.2.8.8.6 1.3-1.1 2.7-3 4.9-5.5 6.3-.3.2-.4.2-.6.2zm-72.4-4.4c-.3 0-.7-.2-.9-.5-1.1-1.9-1.6-4-1.6-6.2v-1.9c0-.6.4-1 1-1s1 .4 1 1v1.9c0 1.8.5 3.6 1.4 5.2.3.5.1 1.1-.4 1.4-.2 0-.4.1-.5.1zm78.3-7.2c-.6 0-1-.4-1-1v-7.9c0-.6.4-1 1-1s1 .4 1 1v7.9c0 .6-.4 1-1 1zm-79.8-6.4c-.6 0-1-.4-1-1v-7.9c0-.6.4-1 1-1s1 .4 1 1v7.9c0 .6-.5 1-1 1zm79.8-7.4c-.6 0-1-.4-1-1v-7.9c0-.6.4-1 1-1s1 .4 1 1v7.9c0 .6-.4 1-1 1zm-79.8-6.4c-.6 0-1-.4-1-1v-7.9c0-.6.4-1 1-1s1 .4 1 1v7.9c0 .6-.5 1-1 1zm79.8-7.3c-.6 0-1-.4-1-1v-7.9c0-.6.4-1 1-1s1 .4 1 1v7.9c0 .5-.4 1-1 1zm-79.8-6.4c-.6 0-1-.4-1-1V268c0-.6.4-1 1-1s1 .4 1 1v7.9c0 .5-.5 1-1 1zm79.8-7.4c-.6 0-1-.4-1-1v-7.9c0-.6.4-1 1-1s1 .4 1 1v7.9c0 .5-.4 1-1 1zm-79.8-6.4c-.6 0-1-.4-1-1v-7.9c0-.6.4-1 1-1s1 .4 1 1v7.9c0 .5-.5 1-1 1zm79.8-7.4c-.6 0-1-.4-1-1v-7.9c0-.6.4-1 1-1s1 .4 1 1v7.9c0 .5-.4 1-1 1zm-79.8-6.4c-.6 0-1-.4-1-1v-7.9c0-.6.4-1 1-1s1 .4 1 1v7.9c0 .5-.5 1-1 1zm79.8-7.4c-.6 0-1-.4-1-1V233c0-.6.4-1 1-1s1 .4 1 1v7.9c0 .6-.4 1-1 1zm-79.8-6.4c-.6 0-1-.4-1-1v-7.9c0-.6.4-1 1-1s1 .4 1 1v7.9c0 .6-.5 1-1 1zm79.8-7.4c-.6 0-1-.4-1-1v-7.9c0-.6.4-1 1-1s1 .4 1 1v7.9c0 .6-.4 1-1 1zm-79.8-6.4c-.6 0-1-.4-1-1v-7.9c0-.6.4-1 1-1s1 .4 1 1v7.9c0 .6-.5 1-1 1zm79.8-7.4c-.6 0-1-.4-1-1v-7.9c0-.6.4-1 1-1s1 .4 1 1v7.9c0 .6-.4 1-1 1zm-79.8-6.4c-.6 0-1-.4-1-1v-2.4c0-2 .5-3.9 1.4-5.7.3-.5.9-.7 1.3-.4.5.3.7.9.4 1.3-.8 1.5-1.1 3.1-1.1 4.8v2.4c0 .6-.5 1-1 1zm78.8-7.2c-.4 0-.7-.2-.9-.6-1-2.2-2.7-4-4.9-5.1-.5-.2-.7-.9-.4-1.3.2-.5.8-.7 1.3-.4 2.6 1.3 4.6 3.4 5.8 6 .2.5 0 1.1-.5 1.3-.1.1-.3.1-.4.1zm-73.7-4.8c-.3 0-.6-.2-.8-.4-.3-.5-.2-1.1.3-1.4 2.1-1.4 4.5-2.2 7.1-2.2h1c.6 0 1 .4 1 1s-.4 1-1 1h-1c-2.1 0-4.2.6-6 1.8-.2.1-.4.2-.6.2zm62.6-2h-7.9c-.6 0-1-.4-1-1s.4-1 1-1h7.9c.6 0 1 .4 1 1s-.4 1-1 1zm-13.8 0H317c-.6 0-1-.4-1-1s.4-1 1-1h7.9c.6 0 1 .4 1 1s-.5 1-1.1 1zm-13.8 0h-7.9c-.6 0-1-.4-1-1s.4-1 1-1h7.9c.6 0 1 .4 1 1s-.4 1-1 1zm-13.7 0h-7.9c-.6 0-1-.4-1-1s.4-1 1-1h7.9c.6 0 1 .4 1 1s-.5 1-1 1z"/><circle class="st10" cx="353" cy="236.6" r="29"/><path class="st18" d="m369.3 240.3-1.2-1 .1-.5c.2-1 .3-1.7.3-2.2 0-.5-.1-1.2-.3-2.2l-.1-.5 4.8-4.3-4.8-8.3-1.3.4-4.9 1.7c-1.4-1.1-2.9-2-4.4-2.6l-1.3-6.4h-9.6l-.3 1.4-1 5c-1.5.6-3 1.5-4.4 2.6l-4.9-1.7-1.3-.4-4.8 8.3 4.8 4.3-.1.5c-.2 1-.3 1.7-.3 2.2 0 .5.1 1.2.3 2.2l.1.5-4.8 4.3 4.8 8.3 1.3-.4 4.9-1.7c1.4 1.1 2.9 2 4.4 2.6l1.3 6.4h9.6l1.3-6.4c1.5-.6 3-1.5 4.4-2.6l4.9 1.7 1.3.4 4.8-8.3-3.6-3.3zm-10.7-3.7c0 2-.7 3.7-2.1 5.1-1.4 1.4-3.1 2.1-5.1 2.1-2 0-3.7-.7-5.1-2.1-1.4-1.4-2.1-3.1-2.1-5.1 0-2 .7-3.7 2.1-5.1 1.4-1.4 3.1-2.1 5.1-2.1 2 0 3.7.7 5.1 2.1 1.4 1.4 2.1 3.1 2.1 5.1zm5.9-4.1v-.1h.2l-.2.1zm-26.3-.1v.1l-.2-.1h.2z"/></g><g><path class="st2" d="M318.3 350.8H205.7c-2 0-3.7-1.7-3.7-3.7v-171c0-2 1.7-3.7 3.7-3.7h112.6c2 0 3.7 1.7 3.7 3.7v171c0 2-1.6 3.7-3.7 3.7z"/><path class="st19" d="M318.3 351.8H205.7c-2.6 0-4.7-2.1-4.7-4.7v-171c0-2.6 2.1-4.7 4.7-4.7h112.6c2.6 0 4.7 2.1 4.7 4.7v171c0 2.6-2.1 4.7-4.7 4.7zM205.7 173.4c-1.5 0-2.7 1.2-2.7 2.7v171c0 1.5 1.2 2.7 2.7 2.7h112.6c1.5 0 2.7-1.2 2.7-2.7v-171c0-1.5-1.2-2.7-2.7-2.7H205.7z"/><path class="st19" d="M267.1 290.4h-46.7c-1.4 0-2.4-1.1-2.4-2.4 0-1.4 1.1-2.4 2.4-2.4h46.7c1.4 0 2.4 1.1 2.4 2.4 0 1.3-1.1 2.4-2.4 2.4z"/><circle class="st19" cx="294.6" cy="288" r="6.4" id="Ellipse_44_1_"/><path class="st20" d="M293.9 290.4c-.2 0-.3 0-.5-.2l-1.5-1.1c-.3-.2-.3-.6-.2-.9.2-.3.6-.3.9-.2l.9.8 2.3-2.9c.2-.3.6-.3.9-.2.3.2.3.6.2.9l-2.6 3.6c0 .1-.1.2-.4.2z" id="Path_395_1_"/><g><circle class="st19" cx="294.6" cy="306.3" r="6.4" id="Ellipse_44_2_"/><path class="st20" d="M293.9 308.8c-.2 0-.3 0-.5-.2l-1.5-1.1c-.3-.2-.3-.6-.2-.9.2-.3.6-.3.9-.2l.9.8 2.3-2.9c.2-.3.6-.3.9-.2.3.2.3.6.2.9l-2.6 3.6s-.1.2-.4.2z" id="Path_395_2_"/><g><path class="st19" d="M267.1 309.4h-46.7c-1.4 0-2.4-1.1-2.4-2.4 0-1.4 1.1-2.4 2.4-2.4h46.7c1.4 0 2.4 1.1 2.4 2.4 0 1.3-1.1 2.4-2.4 2.4z"/></g></g><g><circle class="st19" cx="295.3" cy="324.7" r="6.4" id="Ellipse_44_3_"/><path class="st20" d="M294.6 327.1c-.2 0-.3 0-.5-.2l-1.5-1.1c-.3-.2-.3-.6-.2-.9.2-.3.6-.3.9-.2l.9.8 2.3-2.9c.2-.3.6-.3.9-.2.3.2.3.6.2.9L295 327s-.1.1-.4.1z" id="Path_395_3_"/><g><path class="st19" d="M267.1 327.2h-46.7c-1.4 0-2.4-1.1-2.4-2.4 0-1.4 1.1-2.4 2.4-2.4h46.7c1.4 0 2.4 1.1 2.4 2.4 0 1.3-1.1 2.4-2.4 2.4z"/></g></g><g><path d="m237.6 258.8 13.5-18.4c-2.8-2.8-4.6-6.7-4.6-11 0-5.5 2.9-10.3 7.2-13.1l-13.2-18.6c-10.1 6.9-16.8 18.5-16.8 31.7 0 11.8 5.4 22.4 13.9 29.4z" style="fill:#ffd977"/><path d="M257.4 214.5c1.5-.5 3-.7 4.6-.7 8.6 0 15.6 7 15.6 15.6v.3l22.7 1.5v-1.9c0-21.1-17.2-38.3-38.3-38.3-6.5 0-12.7 1.6-18.1 4.5l13.5 19z" style="fill:#43dfa2"/><path class="st18" d="M277 233.7c-1.9 6.5-7.9 11.2-14.9 11.2-2.8 0-5.5-.8-7.7-2.1l-13.5 18.4c6.1 4.1 13.4 6.4 21.2 6.4 19.1 0 35-14.1 37.8-32.4l-22.9-1.5z"/></g><g class="st17"><path d="M251.2 173.5c.2 0 28.2 47.5 31.9 65.6 2.3 11.5 3.4 27.3-8.8 42-12.7 15.3-27.5 29.3-25.7 43.5s15.2 25.3 15.2 25.3h-51.2s-5.6.1-6.5 0c-2-.1-2.4-1-2.7-1.6-.4-.7-.3-2-.3-2v-170c0-1.5 1.1-2.8 3-2.8h45.1z" style="fill:#eaeaea"/></g></g><g><path d="M219.8 222h-46.1c-1.1 0-2.1-1.1-2.1-2.4v-20.3c0-1.3.9-2.4 2.1-2.4h39.8c1.1 0 2.1 1.1 2.1 2.4V216c0 1.3 5.4 6 4.2 6z" style="fill:#ff8a87"/><path class="st25" d="M205.8 206h-25.7c-.6 0-1-.5-1-1 0-.6.5-1 1-1h25.7c.6 0 1 .5 1 1 0 .6-.5 1-1 1zM205.8 210.5h-25.7c-.6 0-1-.5-1-1 0-.6.5-1 1-1h25.7c.6 0 1 .5 1 1 0 .6-.5 1-1 1zM205.8 215h-25.7c-.6 0-1-.5-1-1 0-.6.5-1 1-1h25.7c.6 0 1 .5 1 1 0 .6-.5 1-1 1z"/></g></g><path class="st2" d="M135 281.6H30.2c-4.3 0-7.8-3.5-7.8-7.8v-66.3c0-4.3 3.5-7.8 7.8-7.8H135c4.3 0 7.8 3.5 7.8 7.8v66.3c.1 4.3-3.5 7.8-7.8 7.8z"/><path class="st19" d="m97 216.5-18.2 29.2-15.9-11.9-25.3 30.9h90z" id="Shape_61_2_"/><g id="Mobile"><path class="st8" d="M449.6 429.5h-64.4c-5.4 0-9.7-4.3-9.7-9.7V305.1c0-5.4 4.3-9.7 9.7-9.7h64.4c5.4 0 9.7 4.3 9.7 9.7v114.6c0 5.4-4.3 9.8-9.7 9.8z"/><path d="M445.7 423.8h-56.5c-4.8 0-8.8-3.9-8.8-8.8V309.3c0-4.8 3.9-8.8 8.8-8.8h56.5c4.8 0 8.8 3.9 8.8 8.8V415c0 4.9-3.9 8.8-8.8 8.8z" style="fill:#f9dad7"/><circle class="st8" cx="418.6" cy="306" r="2.2"/><path class="st8" d="M419.9 421.2h-2.6c-2.4 0-4.4-2-4.4-4.4v-2.6c0-2.4 2-4.4 4.4-4.4h2.6c2.4 0 4.4 2 4.4 4.4v2.6c0 2.5-2 4.4-4.4 4.4z"/><path class="st2" d="M435.9 354.6H399c-3 0-5.4-2.4-5.4-5.4v-24.3c0-3 2.4-5.4 5.4-5.4h36.9c3 0 5.4 2.4 5.4 5.4v24.3c.1 2.9-2.4 5.4-5.4 5.4z"/><path class="st27" d="M422.9 326.9c1.3.6 2.6 1.3 3.6 2.4l-1.2 1.2c-.8-.8-1.9-1.6-3-2-1.2-.5-2.4-.7-3.7-.7-1.8 0-3.5.5-4.9 1.3-1.4.8-2.6 2-3.5 3.5-.8 1.6-1.3 3.1-1.3 4.9 0 1.8.5 3.5 1.3 4.9.8 1.4 2 2.6 3.5 3.5 1.6.8 3.1 1.3 4.9 1.3 1.8 0 3.5-.5 4.9-1.3 1.4-.8 2.6-2 3.5-3.5.8-1.6 1.3-3.1 1.3-4.9 0-.7-.1-1.4-.2-2.2l1.4-1.4c.4 1.1.6 2.3.6 3.6 0 2-.5 4.1-1.6 5.9-1 1.7-2.4 3.1-4.1 4.1-1.8 1.1-3.7 1.6-5.9 1.6-2 0-4.1-.5-5.9-1.6-1.7-1-3.1-2.4-4.1-4.1-1.1-1.8-1.6-3.7-1.6-5.9s.5-4.1 1.6-5.9c1-1.7 2.4-3.1 4.1-4.1 1.8-1.1 3.7-1.6 5.9-1.6 1.5.2 3.1.4 4.4 1zm7 4.2-10.7 10.7-.6.6-.6-.6-4.4-4.4 1.3-1.3 3.8 3.8 10-10 1.2 1.2zM439.6 374.6h-44.3c-1 0-1.8-.8-1.8-1.8s.8-1.8 1.8-1.8h44.3c1 0 1.8.8 1.8 1.8s-.8 1.8-1.8 1.8zM439.6 382.3h-44.3c-1 0-1.8-.8-1.8-1.8s.8-1.8 1.8-1.8h44.3c1 0 1.8.8 1.8 1.8s-.8 1.8-1.8 1.8zM439.6 390.1h-44.3c-1 0-1.8-.8-1.8-1.8s.8-1.8 1.8-1.8h44.3c1 0 1.8.8 1.8 1.8s-.8 1.8-1.8 1.8z"/></g><g id="Programmer"><path class="st28" d="M392 96.3c.2 1.4.5 4.6 1.4 5.6.9.9 1.6.1 2.5.4-1.2 1.8-4.7 7.2-6.6 7.5-2 .3-7.3-5.8-6.7-6.5.6-.7 3.1 0 3.1-1 0-1.1-.4-1.5-.5-2.5"/><path class="st29" d="M400.4 139.2s-12.5 1.4-15.3 1.5c-2.9.1-2.7-1.4-2.7-1.4-.1-3.2-.7-10.6-1.3-13.1-.6-2.4-.8-3.2-1.3-5.5-1.1-5-1-5.9-2.2-12.1l7.4-6s.8 2.3 3.9 2.3c4.2.1 5.5-2.9 5.5-2.9l10.2 6.7 1 16.4-1.2 13.5"/><path class="st28" d="M393.2 93.1c-.1.9-.2 2-.4 2.9-.3 1.7-1.1 2.7-2.8 3.1-1.2.3-2.4.4-3.5.7-1.1.3-2.1.6-3.1.2-1-.5-1.1-1.4-1.6-2.4-.4-1-.9-2.3-1.2-3.3-.6-2.1-1.1-4.1-1.6-6.2-.1-.3-.1-.7-.1-1 0-.2 0-.3.1-.4.1-.2.2-.2.4-.3 2.3-.9 4.6-1.8 7-2.4 1.7-.4 3.5-.7 5.1 0 1.6.7 2.4 2.2 3.3 3.7.1.2.2.5.1.7"/><path class="st30" d="M365.3 183.7s.4 2.5.7 3.3c.3.8 3.1.1 3.3-.5.2-.5-.9-4.6-.9-4.6"/><path class="st31" d="M377.6 151.3c-4.3.9-9.8.9-14.2.3.6 1.8 2.1 4 2.7 6.5 1.9 8.2 2.6 19.2 3 26 0 0-.9 1.7-3.8.4-4.4-10.8-12-32.5-11.9-37.3.1-6 15.1-7.5 26.1-9"/><path d="M396.8 139.2c3.5 2.5-19.2 12-19.2 12-2.5.5-5 .7-7.4.7-.2-.4-.5-.9-.6-1.4-.1-.7-.1-1.3-.2-2-.2-1.3-1.1-2.4-2.3-3-1.1-.7-2.4-1-3.7-1.2-3.1-.5-8.4-.1-8.4-.1 6.8-5 20.7-5.7 27.2-6.1 1.3 2 14.1.8 14.6 1.1z" style="fill:#617ee5"/><path class="st30" d="M372.5 189.4s0 2.5.2 3.4c.2.9 3.1.6 3.3.1.3-.5-.1-4.7-.1-4.7"/><path class="st33" d="M367.5 197.5c2.5.2 4.3-.7 5.4-.7.9.1 3.2.2 3.6-.7.3-.6.4-3.5-.6-3.8 0 0-.2.1-.6.2-.6.2-1.6.3-2.9.1-1.8 1-1.8 1.3-3.9 1.9-.9.3-1.9.7-2.6 1.1-.9.5.2 1.8 1.6 1.9zM361.5 192.2c2.5-.1 4.2-1.2 5.3-1.2.9 0 3.2-.2 3.6-1 .3-.7 0-3.6-1-3.7l-.6.3c-.6.2-1.6.5-2.9.4-1.7 1.1-1.7 1.5-3.7 2.3-.9.4-1.9.9-2.5 1.4-.8.4.4 1.5 1.8 1.5z"/><path class="st31" d="M404.3 138.7s-6.9.7-15.3.5c-2 0-16.8 2.8-18.2 5.3-2.3 4.1 1.5 28.3 1.2 45.6 0 0 1.8 1.5 4.9.1.8-8.5 5.8-28.5 2.3-37.9 8.2 1.1 14.8 2.2 22.2-.3 1.7-.6 3-1.8 3.8-4.1.8-2.2.4-7.2-.9-9.2z"/><g><path class="st29" d="M385 102.6c-.6.1-1.9.2-2.3.2-2.1.2-2.6.2-4.7.6-5.1 1-6.2 18.2-7 23.2-1 6 0-1.8-1.5 4.9-.5 2.3-2-5-3.1.4.4 2.6-.9 3.4.7 3.6 7 2.4 10.1 9.6 11.4-1 1-7.7 0-5.3 1.7-14.1 2-4.5 3.6-13.1 4.8-17.8z"/></g><g><path class="st28" d="M388.7 142.3c-.5 1-1.6 1.3-2.7 1.5-.8.1-1.6.3-2.3.3-.4 0-.8 0-.9-.3-.1-.4 1.7-.4 2.5-.8-1.8.2-3.6.6-5.4 1-.2.1-.4.1-.6.1-.2 0-.4-.2-.4-.4s.1-.3.2-.5c.4-.6 1-.9 1.7-1.1 2.6-1.1 5.5-1.6 8.2-1"/></g><g><path class="st34" d="m390.1 145.4-14.9-.2-.3-1 14.5.2z"/></g><g><path class="st35" d="M349.7 145.3H383l-6-19.5c-.3-1.1-1.3-1.8-2.5-1.8h-29.2c-1.1 0-1.9 1.1-1.6 2.2l6 19.1z"/><path class="st34" d="M349.2 145.3h32.9l-6-19.5c-.3-1.1-1.3-1.8-2.5-1.8h-29.2c-1.1 0-1.9 1.1-1.6 2.2l5.7 18.7c.2.2.4.4.7.4z"/></g><g class="st36"><path class="st37" d="M399.4 111.9c-1.7 7.5-.9 14.3-1.3 19.7-5.3 3.4-3.4 4.5-8.8 7.8 0 0 .2.4-.3 2.1-.3 1 .2 2.3.2 2.3 4.1-1.9 13.5-5.7 15.3-8 .6-.8 3.1-16.3 3.2-25.9 0-1.4 0-2.8-.9-3.9-.4-.6-1.1-.9-1.7-1.3-3.7-1.9-6.5-2.4-10.6-2.7"/></g><g><path class="st29" d="M399.4 111.9c-.1 8-.7 11.7-.6 19.7-6.9 5.3-4.1 5.3-9.9 8.2 0 0-.8 2.8-.3 3.8.4.2 14.4-6.3 15.8-7.7 1.3-1.2 3.1-16.3 3.2-25.9 0-1.4 0-2.8-.9-3.9-.4-.6-1.1-.9-1.7-1.3-3.7-1.9-6.5-2.4-10.6-2.7"/></g><g><path d="M387.2 88.7c-.1-.3-.7-.3-1.4-.2-.7.1-2.4.4-2.8.7-.4.3-.3.5-.5.5s-.2-.2-.6-.3c-.4-.2-1.5 0-2.1.1-.7.1-1.3.3-1.3.6s.2.8.3.9c.1.1.1.1.7 1.3.3.7.8 1 1.6.8 1.1-.3 1.1-1.5 1.2-2.1.1-.5.1-.6.3-.6.2 0 .3 0 .5.5s.4 1.6 1.6 1.6c1.5 0 2.1-.5 2.3-1.5.2-1.3.2-1.3.3-1.4 0-.1 1.1.1 1.1.1v-.4c-.1 0-1.2-.5-1.2-.6zm-5.3 2.8c0 .7-.3 1.3-1 1.4-.7.1-1-.2-1.4-1.1-.3-.7-.4-1.3-.3-1.6.1-.2.5-.2 1.3-.3.8-.1 1.1-.1 1.3.3.1.2.1.7.1 1.3zm4.8-.9c-.1.9-.4 1.4-1.4 1.5-1.3.2-1.6-.3-1.8-.9-.2-.6-.3-1.1-.3-1.3 0-.4.3-.5 1.1-.6.8-.2 1.9-.4 2.1-.3.3.3.4.8.3 1.6z" style="fill:#13102d"/></g><g><path d="M395.5 86.2c-.1-.7-.3-1.3-.5-1.9-.6-1.7-1.8-3.1-3.4-3.8-2.1-.9-4.9-.9-7-.1-1.2.5-1.7 1.2-2.3 1.2-.5 0-1.2.3-1.7.6-1.4.8-1.8.7-2.2 2.4-.1.6.3 2.2.4 2.4.2.2.3 1.4.4 2 .1.5.2.7.2.7s.4-1.6.4-1.8c0-.6.2-1.2.6-1.5.5-.4 1.2-.5 1.7-.6.6-.2 3.5.2 3.7.3 1 .7 1.7 1.7 1.7 2.8.2 2.1.7 1.2.7 1.2.3-1.2 1.1-1.4 1.5-.9.3.4.5 1.1.6 1.9.1.9-.9 1.3-1.2 2.3-.2.6.8 2.4 1.4 2.9.2.2.2.1.4.5.1.2.4.6.6.7.5.3.5.1.6-.1.3-.7.9-1.4 1.3-2.2.3-.5.4-.7.6-1.2.3-.8.3-.5.5-1.4.8-2 1.5-4.2 1-6.4z" style="fill:#09005d"/></g><g class="st36"><path class="st37" d="M379.9 120.2s1.3 4.7 1.4 4.9c0 .1.7 2.5 1 3.6.1.4.2.8.2 1.1l.1 4.2-.3 2-.2-3.1-.2-2.3s-.3-3.1-.8-5.2-.7-2.9-.7-2.9l-.2-.9-.3-1.4z"/></g><g class="st36"><path class="st37" d="M379.9 120.3s-.3 1.8-.5 2.2c-.2.5-.4 3.3-.4 3.3l.1 3.5.1-1.9.3-2.6.4-2.6.1-.5-.1-1.4z"/></g></g><circle class="st35" cx="361" cy="134.4" r="2.5"/><g id="Girl"><path class="st28" d="M195.2 320.8c0 .4.6.7.2 1.4-.8 1.7-3.3 4-6.3 2.9-.1 0-16.4 9.5-17.7 9.5-1.3 0-9.8-8.1-12.6-18.1-.7-2.4-.4-5.2 1.8-6.4 0 0 1.9.5 3.1 2.7 1.9 3.5 7.4 15.1 8.6 15.5 1.5-1 9-3.2 15-5.8 1.3-.6 1.9-1.1 2.3-2 .5-.9 1.6-2.9 2.5-3.9.3-.3 3.9-2.2 3.9-1.6 0 .4-1.1 1.3-2.4 2.2-.7.4-1 1.3-1.2 1.6-.2.5 2.6-.4 2.8.6.2.1 0 1.2 0 1.4z"/><path class="st40" d="M160 309.8c2.1.5 3.9 1.9 4.9 3.8.3.5.5 1 .7 1.5.9 2.2 2.1 4.2 2.9 6.4-1.2 1-2.6 1.4-3.8 1.8-1.1.4-2.4.6-3.6.5-.2 0-.4 0-.6-.1-.3-.1-.4-.3-.6-.5-.4-.4-.7-.9-1.1-1.3-.3-.4-.6-.8-.7-1.2-.2-.6 0-1.3.2-1.9"/><g class="st41"><path class="st42" d="M162.1 315.8c-.1-.1-.2-.2-.3-.2-.2-.1-.5.1-.6.3-.1.2-.1.4-.1.7 0 .9.2 1.8.4 2.6l-.3 4.7c1.1.1 2.3-.1 3.3-.5.5-.2 1-.4 1.6-.6-.4-2.7-2.2-4.9-4-7z"/></g><path class="st28" d="M154.9 305.1s-.1 2.9.4 3.1c.9.4 1.9.6 1.9.6v6l-8.1-1.2-5.5-3.1s5.8-1.9 5.8-2.5c.1-.6-.3-3.8-.3-3.8M142.5 392.5c-2.2 10.5-1.2 24.8-1.6 32.7.1 0 3 .4 3 .4s6.8-33.1 8-39.5c.1-.4.1-.9.2-1.2.3-4.8-4-5-6.4-1.1-.4.6-.8 1.4-1.1 2.1-.1.3-.3.6-.4 1-.4 1-.8 2.1-1.1 3.3v.1c-.1.3-.2.7-.3 1v.1c-.1.4-.2.7-.3 1.1z"/><path class="st28" d="M155.4 355c-.1.9-.5 5-1.1 9.8-.5 4.1-1 8.7-1.4 12.3-.3 2.7-.5 4.9-.6 5.9 0 .6-.1 1.2-.2 1.8-1 4.8-4.3 5-6.3 3.9-.3-.1-.5-.3-.8-.5-.5-.4-.8-.9-.9-1.4-.1-1-.3-2.3-.4-3.9-.2-3.1-.4-7.1-.6-11-.2-4.8-.4-9.4-.4-12v-.4c0-7.9 7.3-13 11.8-10.6.1 0 .1 0 .2.1.1 0 .1.1.2.1.5.3.7 1.5.7 2.9 0 1-.1 2.1-.2 3z"/><path class="st28" d="m144.3 385-.6-2.1c0 .5.1 3.8-.7 7.3v.1c-.1.3-.2.7-.3 1v.1c-.2.6-.2.9-.2 1.1 0 .9 2-3.2 2.5-4.2.1-.1.1-.2.1-.2l-.5-2.2-.3-.9zM160.1 394.5c-.2 11 3.2 23.8 4.1 31.8.1 0 2.8-.4 2.8-.4s.5-33.5.5-40.1c0-.5 0-.9-.1-1.3-.5-4.8-4.5-4-6 .5-.3.7-.5 1.5-.6 2.4-.1.3-.1.7-.2 1.1-.2 1.1-.3 2.3-.4 3.6v.1c0 .4 0 .7-.1 1.1V394.5z"/><path class="st28" d="M162.3 390c-.3-.1-.5-.2-.8-.3-.5-.3-.9-.7-1-1.2-.3-.9-.6-2.3-1-3.8-.7-3-1.6-6.9-2.4-10.7-1-4.7-1.9-9.2-2.4-11.8 0-.1-.4-2-.5-2.2-1.4-8 4.8-13.2 9.4-11.7.1 0 .1 0 .2.1.9.4 1.2 3.6 1.4 5.7.2 2.2 1.7 24.6 2.1 28.6.1.6.1 1.2.1 1.8-.2 5-3.1 6.1-5.1 5.5z"/><path class="st28" d="m160.4 386.6-.9-1.9c.1.5.7 3.8.6 7.4v.1c0 .3 0 .7-.1 1.1v.1c0 .6-.1.9 0 1.1.2.9 1.3-3.7 1.5-4.8v-.2l-.9-2-.2-.9z"/><path d="M146.5 339.7s-5.9 7.4-5.3 14.9c.3 3.1.6 5.9 1 9 .1.5.8 7 .6 7 0 0 12.1 3.7 23.8-1.2 0-.8.9-16.1-5.4-30.7-7.6 1.1-14.7 1-14.7 1z" style="fill:#2b3582"/><path class="st40" d="M164.9 322.5c0 2.1-1.2 3.4-2.8 5.2-.2.3-.7 5.1-.9 8.2-.1 1.6.6 2.7 0 2.8-2.3 2-10.8 3.7-14.7.9.4-3.4-1.1-11-2.2-14.9-.2-.6-.3-1.1-.4-1.5-1-2.9-3.7-11.9-1.4-12.7.3-.1.7-.2 1.1-.3 2-.6 5-1.7 5-1.7s1.8 5.2 6.3 5.8c2.5-1 2.3-4.2 2.2-5.6.8.2 1.2.4 3.7 1.2.7 1 .1 3.1 1.2 6.3.4.9 2.9 3.7 2.9 6.3z"/><path class="st28" d="M159.5 293.2s.5 5.6-.5 8.6c-.7 2.2-3.6 4.2-6.1 4.2-6.7 0-7.9-9.1-7.9-9.6 0-.4 9.9-4.3 9.9-4.3l4.6 1.1z"/><path class="st44" d="M173.6 429.4c-2.4.4-5-.2-6-.1-.9.1-3.1.7-3.9 0-.8-.8-.7-3.4.3-3.7 0 0 .2.1.6.1.6.1 1.6.1 2.8-.2 1.8.8 1.9 1.1 4 1.5.9.2 2 .5 2.6.8.8.4.9 1.4-.4 1.6zM147.7 430.5c-2.4-.4-3.9-1.7-5-1.9-.9-.2-3.1-.6-3.3-1.5-.2-.7.5-3.4 1.5-3.4 0 0 .2.2.5.4.5.3 1.5.7 2.7.7 1.5 1.3 1.4 1.7 3.2 2.7.8.5 1.7 1.1 2.2 1.6.9.7-.5 1.6-1.8 1.4z"/><g><path class="st28" d="m161.3 339 .7-3.2-17.5-.3c-.3 0-.5-.2-.5-.5.2-2.2 1-10.8 1.4-13.6.5-3.6.9-6.7-.9-9-.8-.1-6.9 8.7-6.9 9.1-.4 4.8-.1 17.3 1.4 19.4 1.9 2.3 22.3-1.9 22.3-1.9z"/><path class="st40" d="M142.5 310.6s-3 .7-3.7 2.8c-1.2 3.9-1.9 12.4-1.9 12.4s1.1 2.1 3.1 2.7c2.2.7 5.2 0 5.2 0s-.1-4.8.8-6.6c.6-1.1 1.5.6 1.5.6l2.6-6.5-7.6-5.4z"/></g><g><path class="st28" d="M157.7 335.8s4.1.1 4.7-.3c.6-.4 1.1-.9 1.8-1.3.9-.5 1.3 1.6 2.2 1.5.9-.1.7.1 2.5 0 .9 0 2.7 1.1 2.1 2-1.2 1.8-8.3 1.5-8.5 1.4-.3-.3-3.7.2-3.7.2"/><path class="st28" d="M162.2 335.6c.4-.3 1-.8 1.3-1.1.9-1 2.2-1.5 3.4-1.3.1 0 .2 0 .3.1.1.1.1.3 0 .4l-.3.3c-.4.2-1.3.4-1.4.9-.2.6-.5 1.3-.9 1.8-.4.4-1.2 1-1.9.6"/></g><g class="st41"><path class="st42" d="M146 318c-.5 1.4-2.5 6.7-1.7 10.3.1.4.2.2.9.1"/></g><g><path class="st44" d="M152.3 301s-1.1-5.7 2.4-7.5c1.6-.8 3.6-.4 4.8 1l.2.2s3.6-4.6-.7-7.5c-4.3-2.9-11.5-1.8-14.3 4.2-2.8 6-2.2 10.2.7 13.6 2.9 3.4 4.8.5 4.8.5s-1.5-3.3-.6-4.7c.9-1.4 2.4.4 2.4.4l.3-.2z"/><path class="st44" d="M146.5 291c1-1 .4-2.7-1-3-4.5-.8-11.5-.3-14.6 9.4-3.5 10.9-5.8 16.3-8 17.2-1.5.6-1.6 2.6-.2 3.3 1 .5 2.6.7 4.7.3 16.9-3.3 13.1-21.3 19.1-27.2z"/></g></g><g id="Pot_and_Leaves_2"><g id="Leaves"><path d="M49.2 367v-65.7s12.1 15.3 13 32.8-13 32.9-13 32.9z" style="fill:#aac4cc"/><path d="M49.2 367v-65.7s-12.1 15.3-13 32.8 13 32.9 13 32.9z" style="fill:#d4ebf4"/><path d="m50.2 384.5-26.6-60s17.3 9.1 25.1 24.8 1.5 35.2 1.5 35.2z" style="fill:#e2dab5"/><path d="m50.2 384.5-26.6-60s-4.9 18.9 1.5 35.3 25.1 24.7 25.1 24.7z" style="fill:#fcf9e6"/><g><path class="st13" d="m49.5 383.8 28.1-59.3s4.4 19-2.4 35.2c-6.7 16.2-25.7 24.1-25.7 24.1z"/><path d="m49.5 383.8 28.1-59.3s-17.5 8.6-25.8 24.1-2.3 35.2-2.3 35.2z" style="fill:#defff2"/></g></g><g id="Pot"><path class="st50" d="M82.9 385.7H17.8c-1.2 0-2.3-1-2.3-2.3v-7.7c0-1.2 1-2.3 2.3-2.3h65.1c1.2 0 2.3 1 2.3 2.3v7.7c-.1 1.3-1.1 2.3-2.3 2.3zM69.7 429.5H31.2c-2.6 0-4.8-2-5.1-4.6l-4.5-39.2h57.9L75 424.9c-.4 2.6-2.6 4.6-5.3 4.6z"/><path style="fill:#b78d56" d="M79.1 388.6H21.8l-.3-2.9h57.9z"/></g></g><g style="opacity:.3"><path d="M477.2 198.7c-.6-.6-1.2-1-2-1.3-.7-.3-1.5-.5-2.3-.5-.8 0-1.6.2-2.3.5-.7.3-1.4.8-2 1.3-.6.6-1 1.2-1.3 2-.3.7-.5 1.5-.5 2.3 0 .8.2 1.6.5 2.3.3.7.8 1.4 1.3 2 .6.6 1.2 1 2 1.3.7.3 1.5.5 2.3.5.8 0 1.6-.2 2.3-.5.7-.3 1.4-.8 2-1.3.6-.6 1-1.2 1.3-2 .3-.7.5-1.5.5-2.3 0-.8-.2-1.6-.5-2.3-.3-.8-.8-1.5-1.3-2zm-2.2-.8c.7.3 1.3.7 1.8 1.2s.9 1.1 1.2 1.8c.3.6.4 1.4.4 2.1 0 .7-.1 1.5-.4 2.1-.3.7-.7 1.3-1.2 1.8s-1.1.9-1.8 1.2c-.6.3-1.4.4-2.1.4-.7 0-1.5-.1-2.1-.4-.7-.3-1.3-.7-1.8-1.2s-.9-1.1-1.2-1.8c-.3-.6-.4-1.4-.4-2.1 0-.7.1-1.5.4-2.1.3-.7.7-1.3 1.2-1.8s1.1-.9 1.8-1.2c.6-.3 1.4-.4 2.1-.4.7 0 1.4.1 2.1.4zm.6-4.5c.4.1.8.2 1.1.4.4.2.7.3 1.1.5.4.2.7.4 1 .7.3.2.6.5.9.8.1.1.2.2.4.2.1 0 .3 0 .4-.1.9-.5 1.8-1 2.7-1.6h.2c.1 0 .1 0 .1.1l.1.1c.6 1 1.3 2.3 1.9 3.3V198.1s0 .1-.1.1l-.1.1c-.8.5-1.8 1.1-2.7 1.6l-.3.3v.1h-.1l.1.3c0 .2.1.4.1.6 0 .2.1.4.1.6 0 .2 0 .4.1.6v1.2c0 .2 0 .4-.1.6 0 .2-.1.4-.1.6 0 .2-.1.4-.1.6v.4l.3.3 2.4 1.4.3.2.1.1.1.1V208.2l-1.8 3.1-.1.2-.1.1-.1.1H483.1c-.9-.5-1.8-1-2.7-1.6-.1-.1-.3-.1-.4-.1-.1 0-.3.1-.4.2-.3.3-.6.5-.9.8-.3.2-.7.5-1 .7-.3.2-.7.4-1.1.5-.4.2-.7.3-1.1.4-.1 0-.3.1-.3.2-.1.1-.1.2-.1.4v3.2s0 .1-.1.1l-.1.1h-4s-.1 0-.1-.1l-.1-.1v-3.2c0-.1-.1-.3-.1-.4-.1-.1-.2-.2-.4-.2-.4-.1-.8-.2-1.1-.4-.4-.2-.7-.3-1.1-.5-.4-.2-.7-.4-1-.7-.3-.2-.6-.5-.9-.8-.1-.1-.2-.2-.4-.2-.1 0-.3 0-.4.1l-2.7 1.5H462.3c-.1 0-.1 0-.1-.1l-.1-.1c-.6-1.1-1.3-2.2-1.9-3.3V207.8s0-.1.1-.1l.1-.1 2.7-1.6.3-.3v-.1h.1l-.1-.3c0-.2-.1-.4-.1-.6 0-.2-.1-.4-.1-.6 0-.2 0-.4-.1-.6v-1.2c0-.2 0-.4.1-.6 0-.2.1-.4.1-.6 0-.2.1-.4.1-.6v-.4l-.3-.3-2.7-1.5-.1-.1-.1-.1V197.8c.6-1 1.3-2.3 1.9-3.3l.1-.1.1-.1H462.6l2.7 1.6c.1.1.3.1.4.1.1 0 .3-.1.4-.2.3-.3.6-.5.9-.8.3-.2.7-.5 1-.7.3-.2.7-.4 1.1-.5.4-.2.7-.3 1.1-.4.1 0 .3-.1.3-.2.1-.1.1-.2.1-.4v-3.2s0-.1.1-.1l.1-.1h4s.1 0 .1.1c.1.1.1.2.1.3v3.1c0 .1.1.3.1.4.3 0 .4.1.5.1zm1.4-.1c.4.2.8.4 1.1.6.4.2.7.5 1.1.7.3.3.7.5 1 .8.9-.5 1.8-1 2.7-1.6.1-.1.2-.1.3-.1h.4c.1 0 .2.1.3.2.1.1.2.2.2.3.7 1.1 1.3 2.2 1.9 3.3.1.1.1.2.1.4v.4c0 .1-.1.2-.2.3-.1.1-.2.2-.3.2-.9.5-1.8 1-2.7 1.6l.1.3c0 .1.1.2.1.4s.1.4.1.6c0 .2 0 .4.1.6v1.2c0 .2 0 .4-.1.6 0 .2-.1.4-.1.6 0 .2-.1.4-.1.6 1 .5 2 1.1 3 1.7.1.1.1.2.2.3v.4c0 .1-.1.2-.1.4l-2 3.5-.1.1c-.1.1-.2.1-.3.2h-.4c-.1 0-.2-.1-.3-.1-.9-.5-1.8-1-2.7-1.6-.3.3-.6.6-1 .8-.3.3-.7.5-1.1.7-.4.2-.7.4-1.1.6-.4.2-.8.3-1.2.4v3.1c0 .1 0 .2-.1.4 0 .1-.1.2-.2.3-.1.1-.2.2-.3.2-.1 0-.2.1-.4.1H471c-.1 0-.2 0-.4-.1-.1 0-.2-.1-.3-.2-.1-.1-.2-.2-.2-.3 0-.1-.1-.2-.1-.4v-3.1c-.4-.1-.8-.3-1.2-.4-.4-.2-.8-.4-1.1-.6-.4-.2-.7-.5-1.1-.7-.3-.3-.7-.5-1-.8l-2.7 1.6c-.1.1-.2.1-.3.1h-.4c-.1 0-.2-.1-.3-.2-.1-.1-.2-.2-.2-.3-.7-1.1-1.4-2.4-2-3.5v-.5c0-.1.1-.2.2-.3.1-.1.2-.2.3-.2l2.7-1.6-.1-.3c0-.1 0-.2-.1-.3 0-.2-.1-.4-.1-.6 0-.2 0-.4-.1-.6v-1.2c0-.2 0-.4.1-.6 0-.2.1-.4.1-.6 0-.2.1-.4.1-.6l-2.7-1.5c-.1-.1-.2-.1-.3-.2-.1-.1-.1-.2-.2-.3v-.4c0-.1.1-.2.1-.3.6-1.2 1.4-2.4 2-3.6l.1-.1c.1-.1.2-.1.3-.2h.4c.1 0 .2.1.3.1l.2.1 2.5 1.4c.3-.3.6-.6 1-.8.3-.3.7-.5 1.1-.7.4-.2.7-.4 1.1-.6.4-.2.8-.3 1.2-.4v-3.1c0-.1 0-.2.1-.4 0-.1.1-.2.2-.3.1-.1.2-.2.3-.2.1 0 .2-.1.4-.1h3.8c.1 0 .2 0 .4.1.1 0 .2.1.3.2.2.2.3.4.3.7v3.1c.5 0 .9.1 1.3.3z" style="fill-rule:evenodd;clip-rule:evenodd;fill:#8e77fa" id="gear"/></g><path d="M466.8 279c1.9 0 3.7.7 5.1 2.1 1.3 1.3 2.1 3.2 2.1 5.1 0 1.9-.7 3.7-2.1 5.1-1.3 1.3-3.2 2.1-5.1 2.1-1.9 0-3.7-.7-5.1-2.1-1.3-1.3-2.1-3.2-2.1-5.1 0-1.9.7-3.7 2.1-5.1 1.4-1.4 3.2-2.1 5.1-2.1zm6.4 7.5h-2.9c0 .8-.1 1.6-.2 2.3.7.2 1.5.4 2.1.8.6-.9.9-2 1-3.1zm-3.7 0h-2.3v2c.7 0 1.4.1 2.1.2.1-.8.2-1.5.2-2.2zm-3.1 0h-2.3c0 .7.1 1.5.2 2.2.7-.1 1.4-.2 2.1-.2v-2zm-3.1 0h-2.9c.1 1.1.4 2.2 1 3.1.7-.4 1.4-.6 2.1-.8-.1-.8-.1-1.5-.2-2.3zm-2.9-.8h2.9c0-.7.1-1.3.2-2-.8-.2-1.6-.5-2.2-.9-.5 1-.8 1.9-.9 2.9zm3.9-1.8c-.1.6-.1 1.2-.2 1.8h2.3v-1.6c-.7 0-1.4-.1-2.1-.2zm5 0c-.7.1-1.4.2-2.1.2v1.6h2.3c0-.6-.1-1.2-.2-1.8zm1 1.8h2.9c-.1-1-.3-2-.9-2.8-.7.4-1.5.7-2.2.9.1.6.1 1.3.2 1.9zm-3.1-5.9v3.6c.7 0 1.3-.1 2-.2-.1-.6-.3-1.2-.6-1.7-.2-.6-.7-1.5-1.4-1.7zm0 9.4v3.2c.7-.2 1.2-1.1 1.5-1.7.2-.4.3-.9.5-1.3-.7-.1-1.4-.2-2-.2zm-.8 3.2v-3.2c-.6 0-1.3.1-1.9.2.1.5.3.9.5 1.3.2.6.7 1.5 1.4 1.7zm0-9v-3.6c-.7.2-1.2 1.1-1.5 1.7-.2.5-.4 1.1-.6 1.7.8.1 1.4.1 2.1.2zm-4.7-1.1c.6.3 1.3.6 2 .7.1-.6.3-1.3.6-1.8.2-.4.4-.8.7-1.2-1 .3-1.9.9-2.7 1.6-.2.2-.4.4-.6.7zm8.2.7c.7-.2 1.4-.4 2-.7-.2-.2-.4-.5-.6-.7-.8-.8-1.7-1.3-2.7-1.6.3.4.5.8.7 1.2.3.5.5 1.2.6 1.8zm1.8 7.2c-.6-.3-1.2-.5-1.8-.7-.1.5-.3 1-.5 1.5-.2.4-.4.8-.7 1.2 1-.3 1.9-.9 2.7-1.6 0-.1.2-.2.3-.4zm-8-.7c-.6.1-1.3.4-1.8.7.1.1.2.3.4.4.8.8 1.7 1.3 2.7 1.6-.3-.4-.5-.8-.7-1.2-.2-.4-.4-.9-.6-1.5z" style="fill-rule:evenodd;clip-rule:evenodd;fill:#eae8fc" id="Globe" class="st6"/><g id="Cloud"><path d="M194 113.6c4.6 0 14.4 6.5 14.4 14.4 0 8-6.5 14.4-14.4 14.4h-53.3c-3.3 0-5.9-2.7-5.9-5.9s2.4-5.7 5.5-5.9v-.9c0-4.8 3.1-10.7 10.8-10.8 1.3 0-1.1 0 0 0 1.4-10 10.9-17.7 20.4-17.7 9.5 0 16 5.3 19.1 12.8 1-.3-1.2-.4 3.4-.4z" style="fill-rule:evenodd;clip-rule:evenodd;fill:#c8c9ff"/><path class="st20" d="m168.4 127.3-3.6 3.6h17.9v1.7h-17.9l3.6 3.6-1.2 1.2-5.7-5.7 5.7-5.7 1.2 1.3zm15-7.4-5.7 5.7-1.2-1.2 3.6-3.6h-17.9V119h17.9l-3.6-3.6 1.2-1.2 5.7 5.7z"/></g><g id="Small_Icons"><path d="M160.8 248.3c0-.4.3-.7.7-.7.4 0 .7.3.7.7v3.1c0 .4-.3.7-.7.7-.4 0-.7-.3-.7-.7v-3.1zm-4.7 2.5c-.3-.3-.3-.7 0-1 .3-.3.7-.3 1 0l2.2 2.2c.3.3.3.7 0 1-.3.3-.7.3-1 0l-2.2-2.2zm-1.5 5.1c-.4 0-.7-.3-.7-.7 0-.4.3-.7.7-.7h3.1c.4 0 .7.3.7.7 0 .4-.3.7-.7.7h-3.1zm2.5 4.7c-.3.3-.7.3-1 0-.3-.3-.3-.7 0-1l2.2-2.2c.3-.3.7-.3 1 0 .3.3.3.7 0 1l-2.2 2.2zm5.1 1.6c0 .4-.3.7-.7.7-.4 0-.7-.3-.7-.7v-3.1c0-.4.3-.7.7-.7.4 0 .7.3.7.7v3.1zm4.7-2.5c.3.3.3.7 0 1-.3.3-.7.3-1 0l-2.2-2.2c-.3-.3-.3-.7 0-1 .3-.3.7-.3 1 0l2.2 2.2zm1.6-5.1c.4 0 .7.3.7.7 0 .4-.3.7-.7.7h-3.1c-.4 0-.7-.3-.7-.7 0-.4.3-.7.7-.7h3.1zm-2.6-4.8c.3-.3.7-.3 1 0 .3.3.3.7 0 1l-2.2 2.2c-.3.3-.7.3-1 0-.3-.3-.3-.7 0-1l2.2-2.2z" style="fill-rule:evenodd;clip-rule:evenodd;fill:#f7bc94"/><path d="M113.7 178.1c0-.2.2-.4.4-.4s.4.2.4.4v1.8c0 .2-.2.4-.4.4s-.4-.2-.4-.4v-1.8zm-2.8 1.4c-.2-.2-.2-.4 0-.6.2-.2.4-.2.6 0l1.3 1.3c.2.2.2.4 0 .6-.2.2-.4.2-.6 0l-1.3-1.3zm-.9 3c-.2 0-.4-.2-.4-.4s.2-.4.4-.4h1.8c.2 0 .4.2.4.4s-.2.4-.4.4H110zm1.5 2.7c-.2.2-.4.2-.6 0-.2-.2-.2-.4 0-.6l1.3-1.3c.2-.2.4-.2.6 0 .2.2.2.4 0 .6l-1.3 1.3zm3 .9c0 .2-.2.4-.4.4s-.4-.2-.4-.4v-1.8c0-.2.2-.4.4-.4s.4.2.4.4v1.8zm2.7-1.5c.2.2.2.4 0 .6-.2.2-.4.2-.6 0l-1.3-1.3c-.2-.2-.2-.4 0-.6.2-.2.4-.2.6 0l1.3 1.3zm.9-2.9c.2 0 .4.2.4.4s-.2.4-.4.4h-1.8c-.2 0-.4-.2-.4-.4s.2-.4.4-.4h1.8zm-1.5-2.7c.2-.2.4-.2.6 0 .2.2.2.4 0 .6l-1.3 1.3c-.2.2-.4.2-.6 0-.2-.2-.2-.4 0-.6l1.3-1.3z" style="fill-rule:evenodd;clip-rule:evenodd;fill:#f9cdd9"/><path class="st58" d="M443.7 146.6c0-.3.2-.5.5-.5s.5.2.5.5v2.3c0 .3-.2.5-.5.5s-.5-.2-.5-.5v-2.3zm-3.4 1.9c-.2-.2-.2-.5 0-.7.2-.2.5-.2.7 0l1.6 1.6c.2.2.2.5 0 .7-.2.2-.5.2-.7 0l-1.6-1.6zm-1.2 3.7c-.3 0-.5-.2-.5-.5s.2-.5.5-.5h2.3c.3 0 .5.2.5.5s-.2.5-.5.5h-2.3zm1.9 3.5c-.2.2-.5.2-.7 0-.2-.2-.2-.5 0-.7l1.6-1.6c.2-.2.5-.2.7 0 .2.2.2.5 0 .7l-1.6 1.6zm3.7 1.1c0 .3-.2.5-.5.5s-.5-.2-.5-.5v-2.3c0-.3.2-.5.5-.5s.5.2.5.5v2.3zm3.5-1.8c.2.2.2.5 0 .7-.2.2-.5.2-.7 0l-1.6-1.6c-.2-.2-.2-.5 0-.7.2-.2.5-.2.7 0l1.6 1.6zm1.1-3.8c.3 0 .5.2.5.5s-.2.5-.5.5H447c-.3 0-.5-.2-.5-.5s.2-.5.5-.5h2.3zm-1.8-3.4c.2-.2.5-.2.7 0 .2.2.2.5 0 .7l-1.6 1.6c-.2.2-.5.2-.7 0-.2-.2-.2-.5 0-.7l1.6-1.6z"/><path d="M477.9 334.4c0-.3.2-.5.5-.5s.5.2.5.5v2.3c0 .3-.2.5-.5.5s-.5-.2-.5-.5v-2.3zm-3.5 1.9c-.2-.2-.2-.5 0-.7.2-.2.5-.2.7 0l1.6 1.6c.2.2.2.5 0 .7-.2.2-.5.2-.7 0l-1.6-1.6zm-1.1 3.7c-.3 0-.5-.2-.5-.5s.2-.5.5-.5h2.3c.3 0 .5.2.5.5s-.2.5-.5.5h-2.3zm1.8 3.5c-.2.2-.5.2-.7 0-.2-.2-.2-.5 0-.7l1.6-1.6c.2-.2.5-.2.7 0 .2.2.2.5 0 .7l-1.6 1.6zm3.8 1.1c0 .3-.2.5-.5.5s-.5-.2-.5-.5v-2.3c0-.3.2-.5.5-.5s.5.2.5.5v2.3zm3.4-1.8c.2.2.2.5 0 .7-.2.2-.5.2-.7 0l-1.6-1.6c-.2-.2-.2-.5 0-.7.2-.2.5-.2.7 0l1.6 1.6zm1.2-3.8c.3 0 .5.2.5.5s-.2.5-.5.5h-2.3c-.3 0-.5-.2-.5-.5s.2-.5.5-.5h2.3zm-1.9-3.5c.2-.2.5-.2.7 0 .2.2.2.5 0 .7l-1.6 1.6c-.2.2-.5.2-.7 0-.2-.2-.2-.5 0-.7l1.6-1.6z" style="fill-rule:evenodd;clip-rule:evenodd;fill:#e3e2e8"/><g id="Circles"><path d="M470.3 143.6c2.3 0 4.2-1.9 4.2-4.2 0-2.3-1.9-4.2-4.2-4.2-2.3 0-4.2 1.9-4.2 4.2 0 2.3 1.9 4.2 4.2 4.2z" style="fill-rule:evenodd;clip-rule:evenodd;fill:#c2d6f9"/><path d="M330.1 336.7c2.3 0 4.2-1.9 4.2-4.2 0-2.3-1.9-4.2-4.2-4.2-2.3 0-4.2 1.9-4.2 4.2 0 2.4 1.9 4.2 4.2 4.2z" style="fill-rule:evenodd;clip-rule:evenodd;fill:#ccc5ff"/><path d="M107 295.5c1.7 0 3-1.3 3-3s-1.3-3-3-3-3 1.3-3 3c0 1.6 1.3 3 3 3z" style="fill-rule:evenodd;clip-rule:evenodd;fill:#c5fce4"/><path class="st63" d="M85.1 418c1.4 0 2.5-1.1 2.5-2.5s-1.1-2.5-2.5-2.5-2.5 1.1-2.5 2.5 1.1 2.5 2.5 2.5z"/><path d="M68.5 192.4c2.3 0 4.2-1.9 4.2-4.2 0-2.3-1.9-4.2-4.2-4.2-2.3 0-4.2 1.9-4.2 4.2 0 2.3 1.9 4.2 4.2 4.2z" style="fill-rule:evenodd;clip-rule:evenodd;fill:#fff"/></g><path class="st65" d="M76.8 194.5H74c-.7 0-1.2-.6-1.2-1.2v-2.8c0-.7.6-1.2 1.2-1.2h2.8c.7 0 1.2.6 1.2 1.2v2.8c0 .7-.6 1.2-1.2 1.2z"/><path class="st66" d="M66.9 194.5h-2.8c-.7 0-1.2-.6-1.2-1.2v-2.8c0-.7.6-1.2 1.2-1.2h2.8c.7 0 1.2.6 1.2 1.2v2.8c.1.7-.5 1.2-1.2 1.2z"/><path class="st65" d="M57.1 194.5h-2.8c-.7 0-1.2-.6-1.2-1.2v-2.8c0-.7.6-1.2 1.2-1.2h2.8c.7 0 1.2.6 1.2 1.2v2.8c.1.7-.5 1.2-1.2 1.2z"/><path class="st66" d="M47.3 194.5h-2.8c-.7 0-1.2-.6-1.2-1.2v-2.8c0-.7.6-1.2 1.2-1.2h2.8c.7 0 1.2.6 1.2 1.2v2.8c.1.7-.5 1.2-1.2 1.2z"/><path class="st65" d="M37.5 194.5h-2.8c-.7 0-1.2-.6-1.2-1.2v-2.8c0-.7.6-1.2 1.2-1.2h2.8c.7 0 1.2.6 1.2 1.2v2.8c0 .7-.5 1.2-1.2 1.2z"/><path class="st66" d="M56.8 183.8H54c-.7 0-1.2-.6-1.2-1.2v-2.8c0-.7.6-1.2 1.2-1.2h2.8c.7 0 1.2.6 1.2 1.2v2.8c0 .7-.5 1.2-1.2 1.2z"/><path class="st65" d="M47 183.8h-2.8c-.7 0-1.2-.6-1.2-1.2v-2.8c0-.7.6-1.2 1.2-1.2H47c.7 0 1.2.6 1.2 1.2v2.8c0 .7-.6 1.2-1.2 1.2z"/><path class="st66" d="M37.2 183.8h-2.8c-.7 0-1.2-.6-1.2-1.2v-2.8c0-.7.6-1.2 1.2-1.2h2.8c.7 0 1.2.6 1.2 1.2v2.8c0 .7-.6 1.2-1.2 1.2z"/><g id="Triangles"><path class="st67" d="m111.9 335.1-4.8 7.2h9.5zM406.8 174.6l-7.3 1.5 5.8 5.8zM444.3 246.5l-4.1 6.2h8.3z"/></g><g id="Squares"><path class="st58" d="M406 286.1h-3.4c-.8 0-1.5-.7-1.5-1.5v-3.4c0-.8.7-1.5 1.5-1.5h3.4c.8 0 1.5.7 1.5 1.5v3.4c0 .8-.6 1.5-1.5 1.5z"/><path class="st63" d="M470.1 401.1h-3.4c-.8 0-1.5-.7-1.5-1.5v-3.4c0-.8.7-1.5 1.5-1.5h3.4c.8 0 1.5.7 1.5 1.5v3.4c0 .8-.6 1.5-1.5 1.5z"/></g></g></g></svg>