<?xml version="1.0" encoding="utf-8"?>
<!-- Generator: Adobe Illustrator 25.0.1, SVG Export Plug-In . SVG Version: 6.00 Build 0)  -->
<svg version="1.1" id="Layer_1" xmlns="http://www.w3.org/2000/svg" xmlns:xlink="http://www.w3.org/1999/xlink" x="0px" y="0px"
	 viewBox="0 0 335 250" style="enable-background:new 0 0 335 250;" xml:space="preserve">
<style type="text/css">
	.st0{fill:#E6F7FF;}
	.st1{fill:#F3FCFF;}
	.st2{fill:#C8C9FF;}
	.st3{fill:#D7E2F4;}
	.st4{fill:#E2EAF7;}
	.st5{fill:#91B3FA;}
	.st6{opacity:0.6;}
	.st7{fill:#B4CBF9;}
	.st8{fill:#313DA8;}
	.st9{fill:#363DC1;}
	.st10{fill:#EAEAF9;}
	.st11{fill:#B7B7F7;}
	.st12{fill:#F6F6FF;}
	.st13{fill:#BEE5D4;}
	.st14{fill:#97C1AB;}
	.st15{opacity:0.8;}
	.st16{fill:#F2F2F2;}
	.st17{opacity:0.1;}
	.st18{fill:#8E9AFC;}
	.st19{fill:#8E77FA;}
	.st20{fill:#FFFFFF;}
	.st21{fill:#FFD977;}
	.st22{fill:#43DFA2;}
	.st23{fill:#EAEAEA;}
	.st24{fill:#FF8A87;}
	.st25{fill:#F9F9F9;}
	.st26{fill:#F9DAD7;}
	.st27{fill:#6F73BC;}
	.st28{fill:#FFB9B0;}
	.st29{fill:#4EC6A4;}
	.st30{fill:#ED9C80;}
	.st31{fill:#7D94F9;}
	.st32{fill:#617EE5;}
	.st33{fill:#5045AF;}
	.st34{fill:#7A74D1;}
	.st35{fill:#A4A4F7;}
	.st36{opacity:0.25;}
	.st37{fill:#CE4A30;}
	.st38{fill:#13102D;}
	.st39{fill:#09005D;}
	.st40{fill:#FE7062;}
	.st41{opacity:0.35;}
	.st42{fill:#7762EF;}
	.st43{fill:#2B3582;}
	.st44{fill:#4F52FF;}
	.st45{fill:#AAC4CC;}
	.st46{fill:#D4EBF4;}
	.st47{fill:#E2DAB5;}
	.st48{fill:#FCF9E6;}
	.st49{fill:#DEFFF2;}
	.st50{fill:#D8AC6C;}
	.st51{fill:#B78D56;}
	.st52{opacity:0.3;}
	.st53{fill-rule:evenodd;clip-rule:evenodd;fill:#8E77FA;}
	.st54{opacity:0.6;fill-rule:evenodd;clip-rule:evenodd;fill:#EAE8FC;enable-background:new    ;}
	.st55{fill-rule:evenodd;clip-rule:evenodd;fill:#C8C9FF;}
	.st56{fill-rule:evenodd;clip-rule:evenodd;fill:#F7BC94;}
	.st57{fill-rule:evenodd;clip-rule:evenodd;fill:#F9CDD9;}
	.st58{fill-rule:evenodd;clip-rule:evenodd;fill:#B8B0D6;}
	.st59{fill-rule:evenodd;clip-rule:evenodd;fill:#E3E2E8;}
	.st60{fill-rule:evenodd;clip-rule:evenodd;fill:#C2D6F9;}
	.st61{fill-rule:evenodd;clip-rule:evenodd;fill:#CCC5FF;}
	.st62{fill-rule:evenodd;clip-rule:evenodd;fill:#C5FCE4;}
	.st63{fill-rule:evenodd;clip-rule:evenodd;fill:#BEE5D4;}
	.st64{fill-rule:evenodd;clip-rule:evenodd;fill:#FFFFFF;}
	.st65{fill-rule:evenodd;clip-rule:evenodd;fill:#E1FFC2;}
	.st66{fill-rule:evenodd;clip-rule:evenodd;fill:#F9EAAC;}
	.st67{fill-rule:evenodd;clip-rule:evenodd;fill:#AAC4CC;}
</style>
<g id="Feature_Graphic">
	<g id="base">
		<path class="st0" d="M23.4,182.7c29.1-18.5,37-6,32.4-31.7c-4.5-25.6-8.4-82.5,53.6-95.4c62.2-13,66.5,38.1,116.9,14.9
			s105.2,31.5,79.7,75.2c-20.8,35.7,45.3,43.4,4.5,87.8c-4.5,4.8-11.7,5.8-18.3,5.8l-249.5-0.7c-13,0-20.4-4.3-28.9-14.3
			C6.5,215.6,9.2,191.8,23.4,182.7z"/>
		<path class="st1" d="M307.6,143.2L76.5,191.1l247.7,15.4c0,0,0.8-4.8-3.7-13c-3.1-5.8-12.5-17.5-14-19.8c-3.4-5.4-4.2-9-4.5-13.3
			c-0.1-1.6,0.1-5.8,1.6-9.2C305.5,146.8,307.6,143.2,307.6,143.2z M69.5,77.4l144.7,35l-160.4,9.1c0,0,0.2-3.4,0.9-9.7
			c0.5-4,1.4-7.6,1.9-9.3c1-3.6,1.4-4.7,2.7-8.2c0.3-1,2-4.5,2.6-5.8C65.6,82.1,69.5,77.4,69.5,77.4L69.5,77.4z"/>
	</g>
	<path class="st2" d="M330.8,240.8H4c-0.7,0-1.1-0.5-1.1-1.2s0.5-1.2,1.1-1.2h326.8c0.7,0,1.2,0.5,1.2,1.2
		C332,240.3,331.5,240.8,330.8,240.8L330.8,240.8z"/>
	<g id="leave_1">
		<path class="st3" d="M324.7,116.4c-8.1,34.1-46.9,37-46.9,37s-33-20.8-24.9-54.9c8.1-34.1,53-69.5,53-69.5S332.9,82.3,324.7,116.4
			L324.7,116.4z"/>
		<path class="st4" d="M305.4,30.2l1.3,0.3L277.4,153l-1.3-0.3L305.4,30.2z"/>
		<path class="st4" d="M325,108.1l0.7,1.2l-45.2,29.1l-0.7-1.2L325,108.1z"/>
		<path class="st4" d="M286.5,115.1l-1.1,0.8l-25.1-35.3l1.1-0.8L286.5,115.1z"/>
		<path class="st4" d="M289.3,103.4l-1.1,0.8l-22.8-32l1.1-0.8L289.3,103.4z"/>
		<path class="st4" d="M315.3,52.6l0.8,1.1L298,66.1l-0.8-1.1L315.3,52.6z"/>
	</g>
	<g id="leave_2">
		<path class="st5" d="M320.3,212c-17.8,30.2-55.7,21.6-55.7,21.6s-25.5-29.6-7.6-59.8c17.8-30.2,71.1-50.8,71.1-50.8
			S338.2,181.8,320.3,212z"/>
		<g class="st6">
			<path class="st7" d="M327.2,123.9l1.2,0.7l-64,108.4l-1.2-0.7L327.2,123.9z"/>
			<path class="st7" d="M323.1,204.1l0.4,1.3l-51.8,14.5l-0.4-1.3L323.1,204.1z"/>
			<path class="st7" d="M284.3,199.4l-1.3,0.4l-13.6-41.1l1.3-0.4L284.3,199.4z"/>
			<path class="st7" d="M290.3,189.2l-1.3,0.4l-12.3-37.3l1.3-0.4L290.3,189.2z"/>
			<path class="st7" d="M330.1,148.3l0.4,1.3l-20.9,6.5l-0.4-1.3L330.1,148.3z"/>
		</g>
	</g>
	<g id="MAC">
		<g id="Mac">
			<path class="st8" d="M217,238.6h-94.2c-0.6,0-1-0.5-1-1l0.9-6.4c0-1.8,2.2-3.4,3.9-3.4h87.6c1.4,0,3.3,2,3.3,3.3l0.9,6.1
				C218.4,238,217.8,238.6,217,238.6L217,238.6z"/>
			<path id="Rounded_Rectangle_22_copy_3" class="st8" d="M194.2,198.4c-1.5-4-9.1-1.3-12.6-1.3h-22.7c-3.5,0-11.1-3.1-12.2-0.2
				l-4.7,33.4c0,2.9,6.5,2.2,10,2.2h36.4c3.5,0,10,1.3,10-1.6L194.2,198.4L194.2,198.4z"/>
			<path id="Rounded_Rectangle_22_1_" class="st9" d="M270.7,56.2H64c-5.5,0-10,4.8-10,10.7v124.9c0,5.9,4.5,10.7,10,10.7h206.6
				c5.5,0,10-4.8,10-10.7V67C280.6,61.1,276.2,56.2,270.7,56.2z"/>
			<path id="Rounded_Rectangle_22_copy_2_" class="st10" d="M263.4,63.6H72.2c-8.6,0-9.8,1.6-9.8,10.7v107.2
				c0,9.1,1.2,10.7,9.8,10.7h191.2c9.8,0,9.8,0,9.8-10.7V74.3C273.3,64.6,271,63.6,263.4,63.6z"/>
		</g>
		<path class="st11" d="M167.5,201.1c-1.6,0-2.9-1.3-2.9-2.9s1.3-2.9,2.9-2.9s2.9,1.3,2.9,2.9S169.1,201.1,167.5,201.1z
			 M167.5,195.8c-1.2,0-2.3,1-2.3,2.3s1,2.3,2.3,2.3s2.3-1,2.3-2.3S168.8,195.8,167.5,195.8z"/>
		<path class="st12" d="M67,198.1h93.8"/>
		<path class="st11" d="M67,197.9h93.8v0.3H67V197.9z"/>
		<g>
			<path class="st12" d="M175.9,198.1h93.4"/>
			<path class="st11" d="M175.9,197.9h93.4v0.3h-93.4V197.9z"/>
		</g>
	</g>
	<g id="Main_Docs">
		<path class="st13" d="M183.7,184.2h-60.2c-1.4,0-2.6-1.1-2.6-2.6V76.4c0-1.4,1.1-2.6,2.6-2.6h60.2c1.4,0,2.6,1.1,2.6,2.6v105.3
			C186.2,183,185.1,184.2,183.7,184.2L183.7,184.2z"/>
		<path class="st14" d="M183.7,184.8h-60.2c-1.8,0-3.2-1.4-3.2-3.2V76.4c0-1.8,1.4-3.2,3.2-3.2h60.2c1.8,0,3.2,1.4,3.2,3.2v105.3
			C186.9,183.4,185.5,184.8,183.7,184.8L183.7,184.8z M123.5,74.5c-1,0-1.9,0.9-1.9,1.9v105.3c0,1,0.9,1.9,1.9,1.9h60.2
			c1,0,1.9-0.9,1.9-1.9V76.4c0-1-0.9-1.9-1.9-1.9L123.5,74.5L123.5,74.5z"/>
		<g class="st15">
			<path class="st16" d="M152.9,82.2h-18.2c-0.5,0-1-0.5-1-1c0-0.5,0.5-1,1-1h18.2c0.5,0,1,0.5,1,1
				C153.9,81.7,153.5,82.2,152.9,82.2z M152.9,85.6h-18.2c-0.5,0-1-0.5-1-1c0-0.5,0.5-1,1-1h18.2c0.5,0,1,0.5,1,1
				C153.9,85.1,153.5,85.6,152.9,85.6z M152.9,89h-18.2c-0.5,0-1-0.5-1-1c0-0.5,0.5-1,1-1h18.2c0.5,0,1,0.5,1,1
				C153.9,88.6,153.5,89,152.9,89z"/>
		</g>
		<g class="st15">
			<path class="st16" d="M183.7,166.7h-47.1c-0.9,0-1.6-0.7-1.6-1.6s0.7-1.6,1.6-1.6h47.1c0.9,0,1.6,0.7,1.6,1.6
				C185.3,166,184.5,166.7,183.7,166.7z"/>
		</g>
		<g class="st15">
			<path class="st16" d="M183.7,172.4h-47.1c-0.9,0-1.6-0.7-1.6-1.6c0-0.9,0.7-1.6,1.6-1.6h47.1c0.9,0,1.6,0.7,1.6,1.6
				C185.3,171.7,184.5,172.4,183.7,172.4z"/>
		</g>
		<g class="st15">
			<path class="st16" d="M183.7,178.1h-47.1c-0.9,0-1.6-0.7-1.6-1.6c0-0.9,0.7-1.6,1.6-1.6h47.1c0.9,0,1.6,0.7,1.6,1.6
				C185.3,177.4,184.5,178.1,183.7,178.1z"/>
		</g>
		<g class="st17">
			<path class="st16" d="M155.9,74.1c-0.1,0-17.6,29.9-19.9,41.3c-1.4,7.3-2.1,17.2,5.5,26.5c7.9,9.7,17.2,18.5,16.1,27.5
				c-1.2,9-9.7,16.1-9.7,16.1h32.4c0,0,2.9,0.1,3.5,0c1.2-0.1,1.8-0.9,2-1.2c0.3-0.5,0.2-1.2,0.2-1.2l0.1-106.6c0-1.1-1-2.3-2.4-2.3
				L155.9,74.1L155.9,74.1z"/>
		</g>
		<g>
			<path class="st18" d="M221.9,169.2h-5.2c-0.4,0-0.7-0.3-0.7-0.7s0.3-0.7,0.7-0.7h5.2c0.4,0,0.7,0.3,0.7,0.7
				S222.3,169.2,221.9,169.2z M212.9,169.2h-5.2c-0.4,0-0.7-0.3-0.7-0.7s0.3-0.7,0.7-0.7h5.2c0.4,0,0.7,0.3,0.7,0.7
				S213.2,169.2,212.9,169.2z M203.8,169.2h-5.2c-0.4,0-0.7-0.3-0.7-0.7s0.3-0.7,0.7-0.7h5.2c0.4,0,0.7,0.3,0.7,0.7
				S204.2,169.2,203.8,169.2z M194.8,169.2h-5.2c-0.4,0-0.7-0.3-0.7-0.7s0.3-0.7,0.7-0.7h5.2c0.4,0,0.7,0.3,0.7,0.7
				S195.2,169.2,194.8,169.2z M185.8,169.2h-0.9c-1.6,0-3-0.5-4.3-1.2c-0.3-0.2-0.4-0.6-0.2-0.9c0.2-0.3,0.6-0.4,0.9-0.2
				c1.1,0.7,2.4,1,3.7,1h0.9c0.4,0,0.7,0.3,0.7,0.7C186.5,168.9,186.1,169.2,185.8,169.2L185.8,169.2z M225.6,168.2
				c-0.2,0-0.5-0.1-0.6-0.3c-0.2-0.3-0.1-0.7,0.3-0.9c1.4-0.8,2.5-2,3.1-3.5c0.1-0.3,0.5-0.5,0.9-0.4c0.3,0.1,0.5,0.5,0.4,0.9
				c-0.7,1.8-2,3.2-3.6,4.1C225.8,168.2,225.8,168.2,225.6,168.2z M178.2,165.3c-0.2,0-0.5-0.1-0.6-0.3c-0.7-1.2-1-2.6-1-4.1v-1.2
				c0-0.4,0.3-0.7,0.7-0.7c0.4,0,0.7,0.3,0.7,0.7v1.2c0,1.2,0.3,2.4,0.9,3.4c0.2,0.3,0.1,0.7-0.3,0.9
				C178.4,165.2,178.2,165.3,178.2,165.3z M229.5,160.6c-0.4,0-0.7-0.3-0.7-0.7v-5.2c0-0.4,0.3-0.7,0.7-0.7s0.7,0.3,0.7,0.7v5.2
				C230.2,160.3,229.9,160.6,229.5,160.6z M177.2,156.4c-0.4,0-0.7-0.3-0.7-0.7v-5.2c0-0.4,0.3-0.7,0.7-0.7c0.4,0,0.7,0.3,0.7,0.7
				v5.2C177.9,156.1,177.5,156.4,177.2,156.4z M229.5,151.5c-0.4,0-0.7-0.3-0.7-0.7v-5.2c0-0.4,0.3-0.7,0.7-0.7s0.7,0.3,0.7,0.7v5.2
				C230.2,151.3,229.9,151.5,229.5,151.5z M177.2,147.3c-0.4,0-0.7-0.3-0.7-0.7v-5.2c0-0.4,0.3-0.7,0.7-0.7c0.4,0,0.7,0.3,0.7,0.7
				v5.2C177.9,147.1,177.5,147.3,177.2,147.3z M229.5,142.6c-0.4,0-0.7-0.3-0.7-0.7v-5.2c0-0.4,0.3-0.7,0.7-0.7s0.7,0.3,0.7,0.7v5.2
				C230.2,142.2,229.9,142.6,229.5,142.6z M177.2,138.4c-0.4,0-0.7-0.3-0.7-0.7v-5.2c0-0.4,0.3-0.7,0.7-0.7c0.4,0,0.7,0.3,0.7,0.7
				v5.2C177.9,138,177.5,138.4,177.2,138.4L177.2,138.4z M229.5,133.5c-0.4,0-0.7-0.3-0.7-0.7v-5.2c0-0.4,0.3-0.7,0.7-0.7
				s0.7,0.3,0.7,0.7v5.2C230.2,133.2,229.9,133.5,229.5,133.5z M177.2,129.3c-0.4,0-0.7-0.3-0.7-0.7v-5.2c0-0.4,0.3-0.7,0.7-0.7
				c0.4,0,0.7,0.3,0.7,0.7v5.2C177.9,129,177.5,129.3,177.2,129.3z M229.5,124.5c-0.4,0-0.7-0.3-0.7-0.7v-5.2c0-0.4,0.3-0.7,0.7-0.7
				s0.7,0.3,0.7,0.7v5.2C230.2,124.1,229.9,124.5,229.5,124.5z M177.2,120.3c-0.4,0-0.7-0.3-0.7-0.7v-5.2c0-0.4,0.3-0.7,0.7-0.7
				c0.4,0,0.7,0.3,0.7,0.7v5.2C177.9,119.9,177.5,120.3,177.2,120.3z M229.5,115.4c-0.4,0-0.7-0.3-0.7-0.7v-5.2
				c0-0.4,0.3-0.7,0.7-0.7s0.7,0.3,0.7,0.7v5.2C230.2,115.2,229.9,115.4,229.5,115.4L229.5,115.4z M177.2,111.2
				c-0.4,0-0.7-0.3-0.7-0.7v-5.2c0-0.4,0.3-0.7,0.7-0.7c0.4,0,0.7,0.3,0.7,0.7v5.2C177.9,111,177.5,111.2,177.2,111.2z M229.5,106.4
				c-0.4,0-0.7-0.3-0.7-0.7v-5.2c0-0.4,0.3-0.7,0.7-0.7s0.7,0.3,0.7,0.7v5.2C230.2,106.1,229.9,106.4,229.5,106.4z M177.2,102.2
				c-0.4,0-0.7-0.3-0.7-0.7v-5.2c0-0.4,0.3-0.7,0.7-0.7c0.4,0,0.7,0.3,0.7,0.7v5.2C177.9,101.9,177.5,102.2,177.2,102.2z
				 M229.5,97.3c-0.4,0-0.7-0.3-0.7-0.7v-5.2c0-0.4,0.3-0.7,0.7-0.7s0.7,0.3,0.7,0.7v5.2C230.2,97.1,229.9,97.3,229.5,97.3z
				 M177.2,93.1c-0.4,0-0.7-0.3-0.7-0.7v-1.6c0-1.3,0.3-2.6,0.9-3.7c0.2-0.3,0.6-0.5,0.9-0.3c0.3,0.2,0.5,0.6,0.3,0.9
				c-0.5,1-0.7,2-0.7,3.1v1.6C177.9,92.9,177.5,93.1,177.2,93.1L177.2,93.1z M228.8,88.4c-0.3,0-0.5-0.1-0.6-0.4
				c-0.7-1.4-1.8-2.6-3.2-3.3c-0.3-0.1-0.5-0.6-0.3-0.9c0.1-0.3,0.5-0.5,0.9-0.3c1.7,0.9,3,2.2,3.8,3.9c0.1,0.3,0,0.7-0.3,0.9
				C229,88.4,228.9,88.4,228.8,88.4z M180.5,85.3c-0.2,0-0.4-0.1-0.5-0.3c-0.2-0.3-0.1-0.7,0.2-0.9c1.4-0.9,2.9-1.4,4.7-1.4h0.7
				c0.4,0,0.7,0.3,0.7,0.7c0,0.4-0.3,0.7-0.7,0.7h-0.7c-1.4,0-2.8,0.4-3.9,1.2C180.8,85.2,180.7,85.3,180.5,85.3L180.5,85.3z
				 M221.6,84h-5.2c-0.4,0-0.7-0.3-0.7-0.7c0-0.4,0.3-0.7,0.7-0.7h5.2c0.4,0,0.7,0.3,0.7,0.7C222.2,83.7,222,84,221.6,84z M212.5,84
				h-5.1c-0.4,0-0.7-0.3-0.7-0.7c0-0.4,0.3-0.7,0.7-0.7h5.2c0.4,0,0.7,0.3,0.7,0.7C213.2,83.7,212.9,84,212.5,84L212.5,84z
				 M203.5,84h-5.2c-0.4,0-0.7-0.3-0.7-0.7c0-0.4,0.3-0.7,0.7-0.7h5.2c0.4,0,0.7,0.3,0.7,0.7C204.1,83.7,203.9,84,203.5,84z
				 M194.5,84h-5.2c-0.4,0-0.7-0.3-0.7-0.7c0-0.4,0.3-0.7,0.7-0.7h5.2c0.4,0,0.7,0.3,0.7,0.7C195.2,83.7,194.8,84,194.5,84z"/>
			<circle class="st10" cx="231" cy="112" r="19"/>
			<path class="st18" d="M241.7,114.4l-0.8-0.7l0.1-0.3c0.1-0.7,0.2-1.1,0.2-1.4s-0.1-0.8-0.2-1.4l-0.1-0.3l3.1-2.8l-3.1-5.4
				l-0.9,0.3l-3.2,1.1c-0.9-0.7-1.9-1.3-2.9-1.7l-0.9-4.2h-6.3l-0.2,0.9l-0.7,3.3c-1,0.4-2,1-2.9,1.7l-3.2-1.1l-0.9-0.3l-3.1,5.4
				l3.1,2.8l-0.1,0.3c-0.1,0.7-0.2,1.1-0.2,1.4s0.1,0.8,0.2,1.4l0.1,0.3l-3.1,2.8l3.1,5.4l0.9-0.3l3.2-1.1c0.9,0.7,1.9,1.3,2.9,1.7
				l0.9,4.2h6.3l0.9-4.2c1-0.4,2-1,2.9-1.7l3.2,1.1l0.9,0.3l3.1-5.4L241.7,114.4L241.7,114.4z M234.7,112c0,1.3-0.5,2.4-1.4,3.3
				c-0.9,0.9-2,1.4-3.3,1.4c-1.3,0-2.4-0.5-3.3-1.4c-0.9-0.9-1.4-2-1.4-3.3s0.5-2.4,1.4-3.3c0.9-0.9,2-1.4,3.3-1.4
				c1.3,0,2.4,0.5,3.3,1.4C234.2,109.5,234.7,110.6,234.7,112z M238.5,109.3L238.5,109.3l0.1-0.1L238.5,109.3z M221.3,109.2
				L221.3,109.2h-0.1H221.3z"/>
		</g>
		<g>
			<path class="st2" d="M208.3,186.8h-73.8c-1.3,0-2.4-1.1-2.4-2.4V72.3c0-1.3,1.1-2.4,2.4-2.4h73.8c1.3,0,2.4,1.1,2.4,2.4v112.1
				C210.7,185.7,209.6,186.8,208.3,186.8z"/>
			<path class="st19" d="M208.3,187.5h-73.8c-1.7,0-3.1-1.4-3.1-3.1V72.3c0-1.7,1.4-3.1,3.1-3.1h73.8c1.7,0,3.1,1.4,3.1,3.1v112.1
				C211.3,186.1,210,187.5,208.3,187.5z M134.5,70.5c-1,0-1.8,0.8-1.8,1.8v112.1c0,1,0.8,1.8,1.8,1.8h73.8c1,0,1.8-0.8,1.8-1.8V72.3
				c0-1-0.8-1.8-1.8-1.8L134.5,70.5L134.5,70.5z"/>
			<path class="st19" d="M174.7,147.2h-30.6c-0.9,0-1.6-0.7-1.6-1.6c0-0.9,0.7-1.6,1.6-1.6h30.6c0.9,0,1.6,0.7,1.6,1.6
				C176.3,146.5,175.6,147.2,174.7,147.2z"/>
			<circle id="Ellipse_44_1_" class="st19" cx="192.7" cy="145.6" r="4.2"/>
			<path id="Path_395_1_" class="st20" d="M192.3,147.2c-0.1,0-0.2,0-0.3-0.1l-1-0.7c-0.2-0.1-0.2-0.4-0.1-0.6
				c0.1-0.2,0.4-0.2,0.6-0.1l0.6,0.5l1.5-1.9c0.1-0.2,0.4-0.2,0.6-0.1c0.2,0.1,0.2,0.4,0.1,0.6l-1.7,2.4
				C192.5,147.1,192.5,147.2,192.3,147.2L192.3,147.2z"/>
			<g>
				<circle id="Ellipse_44_2_" class="st19" cx="192.7" cy="157.6" r="4.2"/>
				<path id="Path_395_2_" class="st20" d="M192.3,159.3c-0.1,0-0.2,0-0.3-0.1l-1-0.7c-0.2-0.1-0.2-0.4-0.1-0.6
					c0.1-0.2,0.4-0.2,0.6-0.1l0.6,0.5l1.5-1.9c0.1-0.2,0.4-0.2,0.6-0.1c0.2,0.1,0.2,0.4,0.1,0.6l-1.7,2.4
					C192.5,159.1,192.5,159.3,192.3,159.3L192.3,159.3z"/>
				<g>
					<path class="st19" d="M174.7,159.7h-30.6c-0.9,0-1.6-0.7-1.6-1.6c0-0.9,0.7-1.6,1.6-1.6h30.6c0.9,0,1.6,0.7,1.6,1.6
						C176.3,158.9,175.6,159.7,174.7,159.7z"/>
				</g>
			</g>
			<g>
				<circle id="Ellipse_44_3_" class="st19" cx="193.2" cy="169.7" r="4.2"/>
				<path id="Path_395_3_" class="st20" d="M192.7,171.3c-0.1,0-0.2,0-0.3-0.1l-1-0.7c-0.2-0.1-0.2-0.4-0.1-0.6
					c0.1-0.2,0.4-0.2,0.6-0.1l0.6,0.5l1.5-1.9c0.1-0.2,0.4-0.2,0.6-0.1c0.2,0.1,0.2,0.4,0.1,0.6l-1.7,2.4
					C193,171.2,192.9,171.3,192.7,171.3z"/>
				<g>
					<path class="st19" d="M174.7,171.3h-30.6c-0.9,0-1.6-0.7-1.6-1.6c0-0.9,0.7-1.6,1.6-1.6h30.6c0.9,0,1.6,0.7,1.6,1.6
						C176.3,170.6,175.6,171.3,174.7,171.3z"/>
				</g>
			</g>
			<g>
				<path class="st21" d="M155.4,126.5l8.8-12.1c-1.8-1.8-3-4.4-3-7.2c0-3.6,1.9-6.8,4.7-8.6l-8.7-12.2c-6.6,4.5-11,12.1-11,20.8
					C146.3,115,149.8,121.9,155.4,126.5L155.4,126.5z"/>
				<path class="st22" d="M168.4,97.5c1-0.3,2-0.5,3-0.5c5.6,0,10.2,4.6,10.2,10.2v0.2l14.9,1v-1.2c0-13.8-11.3-25.1-25.1-25.1
					c-4.3,0-8.3,1-11.9,2.9L168.4,97.5L168.4,97.5z"/>
				<path class="st18" d="M181.2,110.1c-1.2,4.3-5.2,7.3-9.8,7.3c-1.8,0-3.6-0.5-5-1.4l-8.8,12.1c4,2.7,8.8,4.2,13.9,4.2
					c12.5,0,22.9-9.2,24.8-21.2L181.2,110.1L181.2,110.1z"/>
			</g>
			<g class="st17">
				<path class="st23" d="M164.3,70.6c0.1,0,18.5,31.1,20.9,43c1.5,7.5,2.2,17.9-5.8,27.5c-8.3,10-18,19.2-16.8,28.5
					c1.2,9.3,10,16.6,10,16.6H139c0,0-3.7,0.1-4.3,0c-1.3-0.1-1.6-0.7-1.8-1c-0.3-0.5-0.2-1.3-0.2-1.3V72.4c0-1,0.7-1.8,2-1.8
					L164.3,70.6L164.3,70.6z"/>
			</g>
		</g>
		<g>
			<path class="st24" d="M143.7,102.4h-30.2c-0.7,0-1.4-0.7-1.4-1.6V87.5c0-0.9,0.6-1.6,1.4-1.6h26.1c0.7,0,1.4,0.7,1.4,1.6v10.9
				C141,99.3,144.5,102.4,143.7,102.4L143.7,102.4z"/>
			<path class="st25" d="M134.5,91.9h-16.8c-0.4,0-0.7-0.3-0.7-0.7c0-0.4,0.3-0.7,0.7-0.7h16.8c0.4,0,0.7,0.3,0.7,0.7
				C135.2,91.6,134.9,91.9,134.5,91.9z M134.5,94.8h-16.8c-0.4,0-0.7-0.3-0.7-0.7c0-0.4,0.3-0.7,0.7-0.7h16.8c0.4,0,0.7,0.3,0.7,0.7
				C135.2,94.6,134.9,94.8,134.5,94.8z M134.5,97.8h-16.8c-0.4,0-0.7-0.3-0.7-0.7c0-0.4,0.3-0.7,0.7-0.7h16.8c0.4,0,0.7,0.3,0.7,0.7
				C135.2,97.5,134.9,97.8,134.5,97.8z"/>
		</g>
	</g>
	<path class="st2" d="M88.1,141.4H19.5c-2.8,0-5.1-2.3-5.1-5.1V92.9c0-2.8,2.3-5.1,5.1-5.1h68.7c2.8,0,5.1,2.3,5.1,5.1v43.5
		C93.3,139.2,91,141.4,88.1,141.4z"/>
	<path id="Shape_61_2_" class="st19" d="M63.2,98.8l-11.9,19.1l-10.4-7.8l-16.6,20.3h59L63.2,98.8z"/>
	<g id="Mobile">
		<path class="st8" d="M294.3,238.4h-42.2c-3.5,0-6.4-2.8-6.4-6.4v-75.2c0-3.5,2.8-6.4,6.4-6.4h42.2c3.5,0,6.4,2.8,6.4,6.4V232
			C300.7,235.5,297.9,238.4,294.3,238.4z"/>
		<path class="st26" d="M291.8,234.6h-37c-3.1,0-5.8-2.6-5.8-5.8v-69.3c0-3.1,2.6-5.8,5.8-5.8h37c3.1,0,5.8,2.6,5.8,5.8v69.3
			C297.5,232.1,295,234.6,291.8,234.6z"/>
		<circle class="st8" cx="274" cy="157.4" r="1.4"/>
		<path class="st8" d="M274.9,232.9h-1.7c-1.6,0-2.9-1.3-2.9-2.9v-1.7c0-1.6,1.3-2.9,2.9-2.9h1.7c1.6,0,2.9,1.3,2.9,2.9v1.7
			C277.7,231.7,276.4,232.9,274.9,232.9z"/>
		<path class="st2" d="M285.3,189.3h-24.2c-2,0-3.5-1.6-3.5-3.5v-15.9c0-2,1.6-3.5,3.5-3.5h24.2c2,0,3.5,1.6,3.5,3.5v15.9
			C288.9,187.7,287.3,189.3,285.3,189.3z"/>
		<path class="st27" d="M276.8,171.1c0.9,0.4,1.7,0.9,2.4,1.6l-0.8,0.8c-0.5-0.5-1.2-1-2-1.3c-0.8-0.3-1.6-0.5-2.4-0.5
			c-1.2,0-2.3,0.3-3.2,0.9s-1.7,1.3-2.3,2.3c-0.5,1-0.9,2-0.9,3.2s0.3,2.3,0.9,3.2s1.3,1.7,2.3,2.3c1,0.5,2,0.9,3.2,0.9
			c1.2,0,2.3-0.3,3.2-0.9c0.9-0.5,1.7-1.3,2.3-2.3c0.5-1,0.9-2,0.9-3.2c0-0.5-0.1-0.9-0.1-1.4l0.9-0.9c0.3,0.7,0.4,1.5,0.4,2.4
			c0,1.3-0.3,2.7-1,3.9c-0.7,1.1-1.6,2-2.7,2.7c-1.2,0.7-2.4,1-3.9,1c-1.3,0-2.7-0.3-3.9-1c-1.1-0.7-2-1.6-2.7-2.7
			c-0.7-1.2-1-2.4-1-3.9s0.3-2.7,1-3.9c0.7-1.1,1.6-2,2.7-2.7c1.2-0.7,2.4-1,3.9-1C274.9,170.6,276,170.7,276.8,171.1L276.8,171.1z
			 M281.4,173.9l-7,7l-0.4,0.4l-0.4-0.4l-2.9-2.9l0.9-0.9l2.5,2.5l6.6-6.6L281.4,173.9L281.4,173.9z M287.8,202.4h-29
			c-0.7,0-1.2-0.5-1.2-1.2s0.5-1.2,1.2-1.2h29c0.7,0,1.2,0.5,1.2,1.2S288.4,202.4,287.8,202.4z M287.8,207.4h-29
			c-0.7,0-1.2-0.5-1.2-1.2s0.5-1.2,1.2-1.2h29c0.7,0,1.2,0.5,1.2,1.2S288.4,207.4,287.8,207.4z M287.8,212.6h-29
			c-0.7,0-1.2-0.5-1.2-1.2s0.5-1.2,1.2-1.2h29c0.7,0,1.2,0.5,1.2,1.2S288.4,212.6,287.8,212.6z"/>
	</g>
	<g id="Programmer">
		<path class="st28" d="M256.6,20c0.1,0.9,0.3,3,0.9,3.7c0.6,0.6,1,0.1,1.6,0.3c-0.8,1.2-3.1,4.7-4.3,4.9c-1.3,0.2-4.8-3.8-4.4-4.3
			c0.4-0.5,2,0,2-0.7c0-0.7-0.3-1-0.3-1.6"/>
		<path class="st29" d="M262.1,48.1c0,0-8.2,0.9-10,1c-1.9,0.1-1.8-0.9-1.8-0.9c-0.1-2.1-0.5-6.9-0.9-8.6c-0.4-1.6-0.5-2.1-0.9-3.6
			c-0.7-3.3-0.7-3.9-1.4-7.9l4.8-3.9c0,0,0.5,1.5,2.6,1.5c2.8,0.1,3.6-1.9,3.6-1.9l6.7,4.4l0.7,10.7l-0.8,8.8"/>
		<path class="st28" d="M257.4,17.9c-0.1,0.6-0.1,1.3-0.3,1.9c-0.2,1.1-0.7,1.8-1.8,2c-0.8,0.2-1.6,0.3-2.3,0.5
			c-0.7,0.2-1.4,0.4-2,0.1c-0.7-0.3-0.7-0.9-1-1.6c-0.3-0.7-0.6-1.5-0.8-2.2c-0.4-1.4-0.7-2.7-1-4.1c-0.1-0.2-0.1-0.5-0.1-0.7
			c0-0.1,0-0.2,0.1-0.3c0.1-0.1,0.1-0.1,0.3-0.2c1.5-0.6,3-1.2,4.6-1.6c1.1-0.3,2.3-0.5,3.3,0c1,0.5,1.6,1.4,2.2,2.4
			c0.1,0.1,0.1,0.3,0.1,0.5"/>
		<path class="st30" d="M239.1,77.3c0,0,0.3,1.6,0.5,2.2c0.2,0.5,2,0.1,2.2-0.3c0.1-0.3-0.6-3-0.6-3"/>
		<path class="st31" d="M247.1,56.1c-2.8,0.6-6.4,0.6-9.3,0.2c0.4,1.2,1.4,2.6,1.8,4.3c1.2,5.4,1.7,12.6,2,17c0,0-0.6,1.1-2.5,0.3
			c-2.9-7.1-7.9-21.3-7.8-24.4c0.1-3.9,9.9-4.9,17.1-5.9"/>
		<path class="st32" d="M259.7,48.1c2.3,1.6-12.6,7.9-12.6,7.9c-1.6,0.3-3.3,0.5-4.8,0.5c-0.1-0.3-0.3-0.6-0.4-0.9
			c-0.1-0.5-0.1-0.9-0.1-1.3c-0.1-0.9-0.7-1.6-1.5-2c-0.7-0.5-1.6-0.7-2.4-0.8c-2-0.3-5.5-0.1-5.5-0.1c4.5-3.3,13.6-3.7,17.8-4
			C251,48.7,259.4,47.9,259.7,48.1z"/>
		<path class="st30" d="M243.8,81c0,0,0,1.6,0.1,2.2c0.1,0.6,2,0.4,2.2,0.1c0.2-0.3-0.1-3.1-0.1-3.1"/>
		<path class="st33" d="M240.5,86.3c1.6,0.1,2.8-0.5,3.5-0.5c0.6,0.1,2.1,0.1,2.4-0.5c0.2-0.4,0.3-2.3-0.4-2.5c0,0-0.1,0.1-0.4,0.1
			c-0.4,0.1-1,0.2-1.9,0.1c-1.2,0.7-1.2,0.9-2.6,1.2c-0.6,0.2-1.2,0.5-1.7,0.7C238.9,85.4,239.6,86.3,240.5,86.3z M236.6,82.9
			c1.6-0.1,2.8-0.8,3.5-0.8c0.6,0,2.1-0.1,2.4-0.7c0.2-0.5,0-2.4-0.7-2.4l-0.4,0.2c-0.4,0.1-1,0.3-1.9,0.3c-1.1,0.7-1.1,1-2.4,1.5
			c-0.6,0.3-1.2,0.6-1.6,0.9C234.9,82.1,235.7,82.9,236.6,82.9L236.6,82.9z"/>
		<path class="st31" d="M264.6,47.8c0,0-4.5,0.5-10,0.3c-1.3,0-11,1.8-11.9,3.5c-1.5,2.7,1,18.5,0.8,29.9c0,0,1.2,1,3.2,0.1
			c0.5-5.6,3.8-18.7,1.5-24.8c5.4,0.7,9.7,1.4,14.5-0.2c1.1-0.4,2-1.2,2.5-2.7C265.7,52.4,265.5,49.1,264.6,47.8L264.6,47.8z"/>
		<g>
			<path class="st29" d="M252,24.1c-0.4,0.1-1.2,0.1-1.5,0.1c-1.4,0.1-1.7,0.1-3.1,0.4c-3.3,0.7-4.1,11.9-4.6,15.2
				c-0.7,3.9,0-1.2-1,3.2c-0.3,1.5-1.3-3.3-2,0.3c0.3,1.7-0.6,2.2,0.5,2.4c4.6,1.6,6.6,6.3,7.5-0.7c0.7-5,0-3.5,1.1-9.2
				C250.1,32.9,251.2,27.2,252,24.1z"/>
		</g>
		<g>
			<path class="st28" d="M254.4,50.2c-0.3,0.7-1,0.9-1.8,1c-0.5,0.1-1,0.2-1.5,0.2c-0.3,0-0.5,0-0.6-0.2c-0.1-0.3,1.1-0.3,1.6-0.5
				c-1.2,0.1-2.4,0.4-3.5,0.7c-0.1,0.1-0.3,0.1-0.4,0.1c-0.1,0-0.3-0.1-0.3-0.3s0.1-0.2,0.1-0.3c0.3-0.4,0.7-0.6,1.1-0.7
				c1.7-0.7,3.6-1,5.4-0.7"/>
		</g>
		<g>
			<path class="st34" d="M255.3,52.2l-9.8-0.1l-0.2-0.7l9.5,0.1L255.3,52.2z"/>
		</g>
		<g>
			<path class="st35" d="M228.8,52.1h21.8l-3.9-12.8c-0.2-0.7-0.9-1.2-1.6-1.2H226c-0.7,0-1.2,0.7-1,1.4L228.8,52.1L228.8,52.1z"/>
			<path class="st34" d="M228.5,52.1h21.6l-3.9-12.8c-0.2-0.7-0.9-1.2-1.6-1.2h-19.1c-0.7,0-1.2,0.7-1,1.4l3.7,12.3
				C228.2,52,228.3,52.1,228.5,52.1L228.5,52.1z"/>
		</g>
		<g class="st36">
			<path class="st37" d="M261.4,30.2c-1.1,4.9-0.6,9.4-0.9,12.9c-3.5,2.2-2.2,2.9-5.8,5.1c0,0,0.1,0.3-0.2,1.4
				c-0.2,0.7,0.1,1.5,0.1,1.5c2.7-1.2,8.8-3.7,10-5.2c0.4-0.5,2-10.7,2.1-17c0-0.9,0-1.8-0.6-2.6c-0.3-0.4-0.7-0.6-1.1-0.9
				c-2.4-1.2-4.3-1.6-6.9-1.8"/>
		</g>
		<g>
			<path class="st29" d="M261.4,30.2c-0.1,5.2-0.5,7.7-0.4,12.9c-4.5,3.5-2.7,3.5-6.5,5.4c0,0-0.5,1.8-0.2,2.5
				c0.3,0.1,9.4-4.1,10.4-5c0.9-0.8,2-10.7,2.1-17c0-0.9,0-1.8-0.6-2.6c-0.3-0.4-0.7-0.6-1.1-0.9c-2.4-1.2-4.3-1.6-6.9-1.8"/>
		</g>
		<g>
			<path class="st38" d="M253.4,15c-0.1-0.2-0.5-0.2-0.9-0.1c-0.5,0.1-1.6,0.3-1.8,0.5c-0.3,0.2-0.2,0.3-0.3,0.3
				c-0.1,0-0.1-0.1-0.4-0.2c-0.3-0.1-1,0-1.4,0.1c-0.5,0.1-0.9,0.2-0.9,0.4s0.1,0.5,0.2,0.6c0.1,0.1,0.1,0.1,0.5,0.9
				c0.2,0.5,0.5,0.7,1,0.5c0.7-0.2,0.7-1,0.8-1.4c0.1-0.3,0.1-0.4,0.2-0.4c0.1,0,0.2,0,0.3,0.3c0.1,0.3,0.3,1,1,1c1,0,1.4-0.3,1.5-1
				c0.1-0.9,0.1-0.9,0.2-0.9c0-0.1,0.7,0.1,0.7,0.1v-0.3C254.1,15.4,253.4,15.1,253.4,15z M249.9,16.9c0,0.5-0.2,0.9-0.7,0.9
				s-0.7-0.1-0.9-0.7c-0.2-0.5-0.3-0.9-0.2-1c0.1-0.1,0.3-0.1,0.9-0.2c0.5-0.1,0.7-0.1,0.9,0.2C249.9,16.1,249.9,16.5,249.9,16.9z
				 M253.1,16.3c-0.1,0.6-0.3,0.9-0.9,1c-0.9,0.1-1-0.2-1.2-0.6c-0.1-0.4-0.2-0.7-0.2-0.9c0-0.3,0.2-0.3,0.7-0.4
				c0.5-0.1,1.2-0.3,1.4-0.2C253.1,15.4,253.2,15.7,253.1,16.3L253.1,16.3z"/>
		</g>
		<g>
			<path class="st39" d="M258.9,13.4c-0.1-0.5-0.2-0.9-0.3-1.2c-0.4-1.1-1.2-2-2.2-2.5c-1.4-0.6-3.2-0.6-4.6-0.1
				c-0.8,0.3-1.1,0.8-1.5,0.8c-0.3,0-0.8,0.2-1.1,0.4c-0.9,0.5-1.2,0.5-1.4,1.6c-0.1,0.4,0.2,1.4,0.3,1.6c0.1,0.1,0.2,0.9,0.3,1.3
				c0.1,0.3,0.1,0.5,0.1,0.5s0.3-1,0.3-1.2c0-0.4,0.1-0.8,0.4-1c0.3-0.3,0.8-0.3,1.1-0.4c0.4-0.1,2.3,0.1,2.4,0.2
				c0.7,0.5,1.1,1.1,1.1,1.8c0.1,1.4,0.5,0.8,0.5,0.8c0.2-0.8,0.7-0.9,1-0.6c0.2,0.3,0.3,0.7,0.4,1.2c0.1,0.6-0.6,0.9-0.8,1.5
				c-0.1,0.4,0.5,1.6,0.9,1.9c0.1,0.1,0.1,0.1,0.3,0.3c0.1,0.1,0.3,0.4,0.4,0.5c0.3,0.2,0.3,0.1,0.4-0.1c0.2-0.5,0.6-0.9,0.9-1.4
				c0.2-0.3,0.3-0.5,0.4-0.8c0.2-0.5,0.2-0.3,0.3-0.9C258.7,16.3,259.2,14.8,258.9,13.4L258.9,13.4z"/>
		</g>
		<g class="st36">
			<path class="st37" d="M248.6,35.7c0,0,0.9,3.1,0.9,3.2c0,0.1,0.5,1.6,0.7,2.4c0.1,0.3,0.1,0.5,0.1,0.7l0.1,2.8l-0.2,1.3l-0.1-2
				l-0.1-1.5c0,0-0.2-2-0.5-3.4c-0.3-1.4-0.5-1.9-0.5-1.9l-0.1-0.6C248.8,36.6,248.6,35.7,248.6,35.7z"/>
		</g>
		<g class="st36">
			<path class="st37" d="M248.6,35.7c0,0-0.2,1.2-0.3,1.4c-0.1,0.3-0.3,2.2-0.3,2.2l0.1,2.3l0.1-1.2l0.2-1.7l0.3-1.7l0.1-0.3
				L248.6,35.7z"/>
		</g>
	</g>
	<circle class="st35" cx="236.2" cy="45" r="1.6"/>
	<g id="Girl">
		<path class="st28" d="M127.6,167.1c0,0.3,0.4,0.5,0.1,0.9c-0.5,1.1-2.2,2.6-4.1,1.9c-0.1,0-10.7,6.2-11.6,6.2
			c-0.9,0-6.4-5.3-8.3-11.9c-0.5-1.6-0.3-3.4,1.2-4.2c0,0,1.2,0.3,2,1.8c1.2,2.3,4.8,9.9,5.6,10.2c1-0.7,5.9-2.1,9.8-3.8
			c0.9-0.4,1.2-0.7,1.5-1.3c0.3-0.6,1-1.9,1.6-2.6c0.2-0.2,2.6-1.4,2.6-1c0,0.3-0.7,0.9-1.6,1.4c-0.5,0.3-0.7,0.9-0.8,1
			c-0.1,0.3,1.7-0.3,1.8,0.4C127.7,166.3,127.6,167,127.6,167.1L127.6,167.1z"/>
		<path class="st40" d="M104.5,159.9c1.4,0.3,2.6,1.2,3.2,2.5c0.2,0.3,0.3,0.7,0.5,1c0.6,1.4,1.4,2.8,1.9,4.2
			c-0.8,0.7-1.7,0.9-2.5,1.2c-0.7,0.3-1.6,0.4-2.4,0.3c-0.1,0-0.3,0-0.4-0.1c-0.2-0.1-0.3-0.2-0.4-0.3c-0.3-0.3-0.5-0.6-0.7-0.9
			c-0.2-0.3-0.4-0.5-0.5-0.8c-0.1-0.4,0-0.9,0.1-1.2"/>
		<g class="st41">
			<path class="st42" d="M105.9,163.9c-0.1-0.1-0.1-0.1-0.2-0.1c-0.1-0.1-0.3,0.1-0.4,0.2c-0.1,0.1-0.1,0.3-0.1,0.5
				c0,0.6,0.1,1.2,0.3,1.7l-0.2,3.1c0.7,0.1,1.5-0.1,2.2-0.3c0.3-0.1,0.7-0.3,1-0.4C108.3,166.7,107.1,165.2,105.9,163.9
				L105.9,163.9z"/>
		</g>
		<path class="st28" d="M101.2,156.8c0,0-0.1,1.9,0.3,2c0.6,0.3,1.2,0.4,1.2,0.4v3.9l-5.3-0.8l-3.6-2c0,0,3.8-1.2,3.8-1.6
			c0.1-0.4-0.2-2.5-0.2-2.5 M93,214.1c-1.4,6.9-0.8,16.3-1,21.4c0.1,0,2,0.3,2,0.3s4.5-21.7,5.2-25.9c0.1-0.3,0.1-0.6,0.1-0.8
			c0.2-3.1-2.6-3.3-4.2-0.7c-0.3,0.4-0.5,0.9-0.7,1.4c-0.1,0.2-0.2,0.4-0.3,0.7c-0.3,0.7-0.5,1.4-0.7,2.2v0.1
			c-0.1,0.2-0.1,0.5-0.2,0.7v0.1C93.2,213.7,93.1,213.9,93,214.1L93,214.1z"/>
		<path class="st28" d="M101.5,189.6c-0.1,0.6-0.3,3.3-0.7,6.4c-0.3,2.7-0.7,5.7-0.9,8.1c-0.2,1.8-0.3,3.2-0.4,3.9
			c0,0.4-0.1,0.8-0.1,1.2c-0.7,3.1-2.8,3.3-4.1,2.6c-0.2-0.1-0.3-0.2-0.5-0.3c-0.3-0.3-0.5-0.6-0.6-0.9c-0.1-0.7-0.2-1.5-0.3-2.6
			c-0.1-2-0.3-4.7-0.4-7.2c-0.1-3.1-0.3-6.2-0.3-7.9v-0.3c0-5.2,4.8-8.5,7.7-6.9c0.1,0,0.1,0,0.1,0.1c0.1,0,0.1,0.1,0.1,0.1
			c0.3,0.2,0.5,1,0.5,1.9C101.6,188.2,101.6,189,101.5,189.6L101.5,189.6z"/>
		<path class="st28" d="M94.2,209.2l-0.4-1.4c0,0.3,0.1,2.5-0.5,4.8v0.1c-0.1,0.2-0.1,0.5-0.2,0.7v0.1c-0.1,0.4-0.1,0.6-0.1,0.7
			c0,0.6,1.3-2.1,1.6-2.8c0.1-0.1,0.1-0.1,0.1-0.1l-0.3-1.4L94.2,209.2L94.2,209.2z M104.6,215.4c-0.1,7.2,2.1,15.6,2.7,20.8
			c0.1,0,1.8-0.3,1.8-0.3s0.3-22,0.3-26.3c0-0.3,0-0.6-0.1-0.9c-0.3-3.1-2.9-2.6-3.9,0.3c-0.2,0.5-0.3,1-0.4,1.6
			c-0.1,0.2-0.1,0.5-0.1,0.7c-0.1,0.7-0.2,1.5-0.3,2.4v0.1c0,0.3,0,0.5-0.1,0.7V215.4z"/>
		<path class="st28" d="M106,212.5c-0.2-0.1-0.3-0.1-0.5-0.2c-0.3-0.2-0.6-0.5-0.7-0.8c-0.2-0.6-0.4-1.5-0.7-2.5c-0.5-2-1-4.5-1.6-7
			c-0.7-3.1-1.2-6-1.6-7.7c0-0.1-0.3-1.3-0.3-1.4c-0.9-5.2,3.1-8.7,6.2-7.7c0.1,0,0.1,0,0.1,0.1c0.6,0.3,0.8,2.4,0.9,3.7
			c0.1,1.4,1.1,16.1,1.4,18.7c0.1,0.4,0.1,0.8,0.1,1.2C109.2,212.2,107.3,212.9,106,212.5z"/>
		<path class="st28" d="M104.8,210.3l-0.6-1.2c0.1,0.3,0.5,2.5,0.4,4.8v0.1c0,0.2,0,0.5-0.1,0.7v0.1c0,0.4-0.1,0.6,0,0.7
			c0.1,0.6,0.9-2.4,1-3.1v-0.1l-0.6-1.3L104.8,210.3L104.8,210.3z"/>
		<path class="st43" d="M95.7,179.5c0,0-3.9,4.8-3.5,9.8c0.2,2,0.4,3.9,0.7,5.9c0.1,0.3,0.5,4.6,0.4,4.6c0,0,7.9,2.4,15.6-0.8
			c0-0.5,0.6-10.6-3.5-20.1C100.3,179.6,95.7,179.5,95.7,179.5L95.7,179.5z"/>
		<path class="st40" d="M107.7,168.3c0,1.4-0.8,2.2-1.8,3.4c-0.1,0.2-0.5,3.3-0.6,5.4c-0.1,1,0.4,1.8,0,1.8
			c-1.5,1.3-7.1,2.4-9.6,0.6c0.3-2.2-0.7-7.2-1.4-9.8c-0.1-0.4-0.2-0.7-0.3-1c-0.7-1.9-2.4-7.8-0.9-8.3c0.2-0.1,0.5-0.1,0.7-0.2
			c1.3-0.4,3.3-1.1,3.3-1.1s1.2,3.4,4.1,3.8c1.6-0.7,1.5-2.8,1.4-3.7c0.5,0.1,0.8,0.3,2.4,0.8c0.5,0.7,0.1,2,0.8,4.1
			C106.1,164.7,107.7,166.5,107.7,168.3L107.7,168.3z"/>
		<path class="st28" d="M104.2,149c0,0,0.3,3.7-0.3,5.6c-0.5,1.4-2.4,2.8-4,2.8c-4.4,0-5.2-6-5.2-6.3c0-0.3,6.5-2.8,6.5-2.8
			L104.2,149L104.2,149z"/>
		<path class="st44" d="M113.4,238.3c-1.6,0.3-3.3-0.1-3.9-0.1c-0.6,0.1-2,0.5-2.6,0c-0.5-0.5-0.5-2.2,0.2-2.4c0,0,0.1,0.1,0.4,0.1
			c0.4,0.1,1,0.1,1.8-0.1c1.2,0.5,1.2,0.7,2.6,1c0.6,0.1,1.3,0.3,1.7,0.5C114.2,237.5,114.3,238.2,113.4,238.3L113.4,238.3z
			 M96.5,239c-1.6-0.3-2.6-1.1-3.3-1.2c-0.6-0.1-2-0.4-2.2-1c-0.1-0.5,0.3-2.2,1-2.2c0,0,0.1,0.1,0.3,0.3c0.3,0.2,1,0.5,1.8,0.5
			c1,0.9,0.9,1.1,2.1,1.8c0.5,0.3,1.1,0.7,1.4,1C98.2,238.6,97.3,239.2,96.5,239L96.5,239z"/>
		<g>
			<path class="st28" d="M105.4,179.1l0.5-2.1l-11.5-0.2c-0.2,0-0.3-0.1-0.3-0.3c0.1-1.4,0.7-7.1,0.9-8.9c0.3-2.4,0.6-4.4-0.6-5.9
				c-0.5-0.1-4.5,5.7-4.5,6c-0.3,3.1-0.1,11.3,0.9,12.7C92,181.8,105.4,179.1,105.4,179.1z"/>
			<path class="st40" d="M93,160.5c0,0-2,0.5-2.4,1.8c-0.8,2.6-1.2,8.1-1.2,8.1s0.7,1.4,2,1.8c1.4,0.5,3.4,0,3.4,0s-0.1-3.1,0.5-4.3
				c0.4-0.7,1,0.4,1,0.4L98,164L93,160.5L93,160.5z"/>
		</g>
		<g>
			<path class="st28" d="M103,177c0,0,2.7,0.1,3.1-0.2s0.7-0.6,1.2-0.9c0.6-0.3,0.9,1,1.4,1c0.6-0.1,0.5,0.1,1.6,0
				c0.6,0,1.8,0.7,1.4,1.3c-0.8,1.2-5.4,1-5.6,0.9c-0.2-0.2-2.4,0.1-2.4,0.1"/>
			<path class="st28" d="M106,176.8c0.3-0.2,0.7-0.5,0.9-0.7c0.6-0.7,1.4-1,2.2-0.9c0.1,0,0.1,0,0.2,0.1c0.1,0.1,0.1,0.2,0,0.3
				l-0.2,0.2c-0.3,0.1-0.9,0.3-0.9,0.6c-0.1,0.4-0.3,0.9-0.6,1.2c-0.3,0.3-0.8,0.7-1.2,0.4"/>
		</g>
		<g class="st41">
			<path class="st42" d="M95.3,165.3c-0.3,0.9-1.6,4.4-1.1,6.8c0.1,0.3,0.1,0.1,0.6,0.1"/>
		</g>
		<g>
			<path class="st44" d="M99.5,154.2c0,0-0.7-3.7,1.6-4.9c1-0.5,2.4-0.3,3.1,0.7l0.1,0.1c0,0,2.4-3-0.5-4.9s-7.5-1.2-9.4,2.8
				c-1.8,3.9-1.4,6.7,0.5,8.9c1.9,2.2,3.1,0.3,3.1,0.3s-1-2.2-0.4-3.1c0.6-0.9,1.6,0.3,1.6,0.3L99.5,154.2L99.5,154.2z"/>
			<path class="st44" d="M95.7,147.6c0.7-0.7,0.3-1.8-0.7-2c-2.9-0.5-7.5-0.2-9.6,6.2c-2.3,7.1-3.8,10.7-5.2,11.3
				c-1,0.4-1,1.7-0.1,2.2c0.7,0.3,1.7,0.5,3.1,0.2C94.2,163.3,91.7,151.5,95.7,147.6L95.7,147.6z"/>
		</g>
	</g>
	<g id="Pot_and_Leaves_2">
		<g id="Leaves">
			<path class="st45" d="M31.9,197.4v-43.1c0,0,7.9,10,8.5,21.5C41,187.3,31.9,197.4,31.9,197.4L31.9,197.4z"/>
			<path class="st46" d="M31.9,197.4v-43.1c0,0-7.9,10-8.5,21.5S31.9,197.4,31.9,197.4L31.9,197.4z"/>
			<path class="st47" d="M32.6,208.9l-17.4-39.3c0,0,11.3,6,16.4,16.3C36.7,196.1,32.6,208.9,32.6,208.9z"/>
			<path class="st48" d="M32.6,208.9l-17.4-39.3c0,0-3.2,12.4,1,23.1C20.3,203.4,32.6,208.9,32.6,208.9z"/>
			<g>
				<path class="st13" d="M32.1,208.4l18.4-38.9c0,0,2.9,12.5-1.6,23.1C44.6,203.2,32.1,208.4,32.1,208.4L32.1,208.4z"/>
				<path class="st49" d="M32.1,208.4l18.4-38.9c0,0-11.5,5.6-16.9,15.8C28.2,195.5,32.1,208.4,32.1,208.4L32.1,208.4z"/>
			</g>
		</g>
		<g id="Pot">
			<path class="st50" d="M54,209.7H11.3c-0.8,0-1.5-0.7-1.5-1.5v-5c0-0.8,0.7-1.5,1.5-1.5H54c0.8,0,1.5,0.7,1.5,1.5v5
				C55.4,209,54.8,209.7,54,209.7z M45.3,238.4H20.1c-1.7,0-3.1-1.3-3.3-3l-2.9-25.7h37.9l-2.9,25.7
				C48.5,237.1,47.1,238.4,45.3,238.4z"/>
			<path class="st51" d="M51.5,211.6H13.9l-0.2-1.9h37.9L51.5,211.6z"/>
		</g>
	</g>
	<g class="st52">
		<path id="gear" class="st53" d="M312.4,87.1c-0.4-0.4-0.8-0.7-1.3-0.9c-0.5-0.2-1-0.3-1.5-0.3s-1,0.1-1.5,0.3
			c-0.5,0.2-0.9,0.5-1.3,0.9c-0.4,0.4-0.7,0.8-0.9,1.3c-0.2,0.5-0.3,1-0.3,1.5c0,0.5,0.1,1,0.3,1.5c0.2,0.5,0.5,0.9,0.9,1.3
			c0.4,0.4,0.8,0.7,1.3,0.9c0.5,0.2,1,0.3,1.5,0.3s1-0.1,1.5-0.3c0.5-0.2,0.9-0.5,1.3-0.9c0.4-0.4,0.7-0.8,0.9-1.3
			c0.2-0.5,0.3-1,0.3-1.5c0-0.5-0.1-1-0.3-1.5C313.1,87.9,312.7,87.4,312.4,87.1z M311,86.6c0.5,0.2,0.9,0.5,1.2,0.8
			c0.3,0.3,0.6,0.7,0.8,1.2c0.2,0.4,0.3,0.9,0.3,1.4c0,0.5-0.1,1-0.3,1.4c-0.2,0.5-0.5,0.9-0.8,1.2c-0.3,0.3-0.7,0.6-1.2,0.8
			c-0.4,0.2-0.9,0.3-1.4,0.3s-1-0.1-1.4-0.3c-0.5-0.2-0.9-0.5-1.2-0.8c-0.3-0.3-0.6-0.7-0.8-1.2c-0.2-0.4-0.3-0.9-0.3-1.4
			c0-0.5,0.1-1,0.3-1.4c0.2-0.5,0.5-0.9,0.8-1.2c0.3-0.3,0.7-0.6,1.2-0.8c0.4-0.2,0.9-0.3,1.4-0.3S310.5,86.4,311,86.6z M311.4,83.6
			c0.3,0.1,0.5,0.1,0.7,0.3c0.3,0.1,0.5,0.2,0.7,0.3s0.5,0.3,0.7,0.5c0.2,0.1,0.4,0.3,0.6,0.5c0.1,0.1,0.1,0.1,0.3,0.1
			c0.1,0,0.2,0,0.3-0.1c0.6-0.3,1.2-0.7,1.8-1h0.1c0.1,0,0.1,0,0.1,0.1l0.1,0.1c0.4,0.7,0.9,1.5,1.2,2.2v0.2c0,0,0,0.1-0.1,0.1
			l-0.1,0.1c-0.5,0.3-1.2,0.7-1.8,1l-0.2,0.2v0.1h-0.1l0.1,0.2c0,0.1,0.1,0.3,0.1,0.4c0,0.1,0.1,0.3,0.1,0.4c0,0.1,0,0.3,0.1,0.4
			v0.8c0,0.1,0,0.3-0.1,0.4c0,0.1-0.1,0.3-0.1,0.4c0,0.1-0.1,0.3-0.1,0.4v0.3l0.2,0.2l1.6,0.9l0.2,0.1l0.1,0.1l0.1,0.1v0.2l-1.2,2
			l-0.1,0.1l-0.1,0.1l-0.1,0.1h-0.2c-0.6-0.3-1.2-0.7-1.8-1c-0.1-0.1-0.2-0.1-0.3-0.1s-0.2,0.1-0.3,0.1c-0.2,0.2-0.4,0.3-0.6,0.5
			c-0.2,0.1-0.5,0.3-0.7,0.5c-0.2,0.1-0.5,0.3-0.7,0.3c-0.3,0.1-0.5,0.2-0.7,0.3c-0.1,0-0.2,0.1-0.2,0.1c-0.1,0.1-0.1,0.1-0.1,0.3
			v2.1c0,0,0,0.1-0.1,0.1l-0.1,0.1h-2.6c0,0-0.1,0-0.1-0.1l-0.1-0.1v-2.1c0-0.1-0.1-0.2-0.1-0.3c-0.1-0.1-0.1-0.1-0.3-0.1
			c-0.3-0.1-0.5-0.1-0.7-0.3c-0.3-0.1-0.5-0.2-0.7-0.3c-0.3-0.1-0.5-0.3-0.7-0.5c-0.2-0.1-0.4-0.3-0.6-0.5c-0.1-0.1-0.1-0.1-0.3-0.1
			c-0.1,0-0.2,0-0.3,0.1l-1.8,1h-0.2c-0.1,0-0.1,0-0.1-0.1l-0.1-0.1c-0.4-0.7-0.9-1.4-1.2-2.2v-0.2c0,0,0-0.1,0.1-0.1l0.1-0.1l1.8-1
			l0.2-0.2v-0.1h0.1l-0.1-0.2c0-0.1-0.1-0.3-0.1-0.4c0-0.1-0.1-0.3-0.1-0.4c0-0.1,0-0.3-0.1-0.4v-0.8c0-0.1,0-0.3,0.1-0.4
			c0-0.1,0.1-0.3,0.1-0.4c0-0.1,0.1-0.3,0.1-0.4V88l-0.2-0.2l-1.8-1l-0.1-0.1l-0.1-0.1v-0.2c0.4-0.7,0.9-1.5,1.2-2.2l0.1-0.1
			l0.1-0.1h0.2l1.8,1c0.1,0.1,0.2,0.1,0.3,0.1s0.2-0.1,0.3-0.1c0.2-0.2,0.4-0.3,0.6-0.5c0.2-0.1,0.5-0.3,0.7-0.5s0.5-0.3,0.7-0.3
			c0.3-0.1,0.5-0.2,0.7-0.3c0.1,0,0.2-0.1,0.2-0.1c0.1-0.1,0.1-0.1,0.1-0.3v-2.1c0,0,0-0.1,0.1-0.1l0.1-0.1h2.6c0,0,0.1,0,0.1,0.1
			c0.1,0.1,0.1,0.1,0.1,0.2v2c0,0.1,0.1,0.2,0.1,0.3C311.2,83.6,311.3,83.6,311.4,83.6L311.4,83.6z M312.3,83.6
			c0.3,0.1,0.5,0.3,0.7,0.4c0.3,0.1,0.5,0.3,0.7,0.5c0.2,0.2,0.5,0.3,0.7,0.5c0.6-0.3,1.2-0.7,1.8-1c0.1-0.1,0.1-0.1,0.2-0.1h0.3
			c0.1,0,0.1,0.1,0.2,0.1c0.1,0.1,0.1,0.1,0.1,0.2c0.5,0.7,0.9,1.4,1.2,2.2c0.1,0.1,0.1,0.1,0.1,0.3v0.3c0,0.1-0.1,0.1-0.1,0.2
			c-0.1,0.1-0.1,0.1-0.2,0.1c-0.6,0.3-1.2,0.7-1.8,1l0.1,0.2c0,0.1,0.1,0.1,0.1,0.3s0.1,0.3,0.1,0.4s0,0.3,0.1,0.4v0.8
			c0,0.1,0,0.3-0.1,0.4c0,0.1-0.1,0.3-0.1,0.4s-0.1,0.3-0.1,0.4c0.7,0.3,1.3,0.7,2,1.1c0.1,0.1,0.1,0.1,0.1,0.2V93
			c0,0.1-0.1,0.1-0.1,0.3l-1.3,2.3l-0.1,0.1c-0.1,0.1-0.1,0.1-0.2,0.1h-0.3c-0.1,0-0.1-0.1-0.2-0.1c-0.6-0.3-1.2-0.7-1.8-1
			c-0.2,0.2-0.4,0.4-0.7,0.5c-0.2,0.2-0.5,0.3-0.7,0.5s-0.5,0.3-0.7,0.4c-0.3,0.1-0.5,0.2-0.8,0.3v2c0,0.1,0,0.1-0.1,0.3
			c0,0.1-0.1,0.1-0.1,0.2c-0.1,0.1-0.1,0.1-0.2,0.1S311,99,310.9,99h-2.6c-0.1,0-0.1,0-0.3-0.1c-0.1,0-0.1-0.1-0.2-0.1
			c-0.1-0.1-0.1-0.1-0.1-0.2s-0.1-0.1-0.1-0.3v-2c-0.3-0.1-0.5-0.2-0.8-0.3c-0.3-0.1-0.5-0.3-0.7-0.4c-0.3-0.1-0.5-0.3-0.7-0.5
			c-0.2-0.2-0.5-0.3-0.7-0.5l-1.8,1c-0.1,0.1-0.1,0.1-0.2,0.1h-0.3c-0.1,0-0.1-0.1-0.2-0.1c-0.1-0.1-0.1-0.1-0.1-0.2
			c-0.5-0.7-0.9-1.6-1.3-2.3v-0.3c0-0.1,0.1-0.1,0.1-0.2c0.1-0.1,0.1-0.1,0.2-0.1l1.8-1l-0.1-0.2c0-0.1,0-0.1-0.1-0.2
			c0-0.1-0.1-0.3-0.1-0.4c0-0.1,0-0.3-0.1-0.4v-0.8c0-0.1,0-0.3,0.1-0.4c0-0.1,0.1-0.3,0.1-0.4c0-0.1,0.1-0.3,0.1-0.4l-1.8-1
			c-0.1-0.1-0.1-0.1-0.2-0.1c-0.1-0.1-0.1-0.1-0.1-0.2v-0.3c0-0.1,0.1-0.1,0.1-0.2c0.4-0.8,0.9-1.6,1.3-2.4l0.1-0.1
			c0.1-0.1,0.1-0.1,0.2-0.1h0.3c0.1,0,0.1,0.1,0.2,0.1l0.1,0.1l1.6,0.9c0.2-0.2,0.4-0.4,0.7-0.5c0.2-0.2,0.5-0.3,0.7-0.5
			s0.5-0.3,0.7-0.4c0.3-0.1,0.5-0.2,0.8-0.3v-2c0-0.1,0-0.1,0.1-0.3c0-0.1,0.1-0.1,0.1-0.2c0.1-0.1,0.1-0.1,0.2-0.1s0.1-0.1,0.3-0.1
			h2.5c0.1,0,0.1,0,0.3,0.1c0.1,0,0.1,0.1,0.2,0.1c0.1,0.1,0.2,0.3,0.2,0.5v2C311.7,83.4,312,83.4,312.3,83.6L312.3,83.6z"/>
	</g>
	<path id="Globe" class="st54" d="M305.6,139.7c1.2,0,2.4,0.5,3.3,1.4c0.9,0.9,1.4,2.1,1.4,3.3s-0.5,2.4-1.4,3.3
		c-0.9,0.9-2.1,1.4-3.3,1.4c-1.2,0-2.4-0.5-3.3-1.4c-0.9-0.9-1.4-2.1-1.4-3.3s0.5-2.4,1.4-3.3C303.2,140.2,304.3,139.7,305.6,139.7z
		 M309.8,144.7h-1.9c0,0.5-0.1,1-0.1,1.5c0.5,0.1,1,0.3,1.4,0.5C309.5,146.1,309.7,145.4,309.8,144.7L309.8,144.7z M307.4,144.7
		h-1.5v1.3c0.5,0,0.9,0.1,1.4,0.1C307.3,145.6,307.4,145.1,307.4,144.7L307.4,144.7z M305.3,144.7h-1.5c0,0.5,0.1,1,0.1,1.4
		c0.5-0.1,0.9-0.1,1.4-0.1V144.7L305.3,144.7z M303.3,144.7h-1.9c0.1,0.7,0.3,1.4,0.7,2c0.5-0.3,0.9-0.4,1.4-0.5
		C303.4,145.6,303.4,145.2,303.3,144.7L303.3,144.7z M301.4,144.1h1.9c0-0.5,0.1-0.9,0.1-1.3c-0.5-0.1-1-0.3-1.4-0.6
		C301.7,142.9,301.5,143.5,301.4,144.1z M303.9,143c-0.1,0.4-0.1,0.8-0.1,1.2h1.5v-1C304.9,143.1,304.4,143,303.9,143L303.9,143z
		 M307.2,143c-0.5,0.1-0.9,0.1-1.4,0.1v1h1.5C307.4,143.7,307.3,143.3,307.2,143L307.2,143z M307.9,144.1h1.9
		c-0.1-0.7-0.2-1.3-0.6-1.8c-0.5,0.3-1,0.5-1.4,0.6C307.8,143.3,307.8,143.7,307.9,144.1z M305.9,140.3v2.4c0.5,0,0.9-0.1,1.3-0.1
		c-0.1-0.4-0.2-0.8-0.4-1.1C306.6,141,306.3,140.4,305.9,140.3L305.9,140.3z M305.9,146.4v2.1c0.5-0.1,0.8-0.7,1-1.1
		c0.1-0.3,0.2-0.6,0.3-0.9C306.7,146.5,306.2,146.4,305.9,146.4z M305.3,148.5v-2.1c-0.4,0-0.9,0.1-1.2,0.1c0.1,0.3,0.2,0.6,0.3,0.9
		C304.5,147.8,304.9,148.4,305.3,148.5z M305.3,142.6v-2.4c-0.5,0.1-0.8,0.7-1,1.1c-0.1,0.3-0.3,0.7-0.4,1.1
		C304.5,142.6,304.9,142.6,305.3,142.6L305.3,142.6z M302.2,141.9c0.4,0.2,0.9,0.4,1.3,0.5c0.1-0.4,0.2-0.9,0.4-1.2
		c0.1-0.3,0.3-0.5,0.5-0.8c-0.7,0.2-1.2,0.6-1.8,1C302.5,141.6,302.4,141.7,302.2,141.9L302.2,141.9z M307.6,142.4
		c0.5-0.1,0.9-0.3,1.3-0.5c-0.1-0.1-0.3-0.3-0.4-0.5c-0.5-0.5-1.1-0.9-1.8-1c0.2,0.3,0.3,0.5,0.5,0.8
		C307.4,141.5,307.6,142,307.6,142.4L307.6,142.4z M308.8,147.1c-0.4-0.2-0.8-0.3-1.2-0.5c-0.1,0.3-0.2,0.7-0.3,1
		c-0.1,0.3-0.3,0.5-0.5,0.8c0.7-0.2,1.2-0.6,1.8-1C308.6,147.3,308.7,147.2,308.8,147.1z M303.6,146.6c-0.4,0.1-0.9,0.3-1.2,0.5
		c0.1,0.1,0.1,0.2,0.3,0.3c0.5,0.5,1.1,0.9,1.8,1c-0.2-0.3-0.3-0.5-0.5-0.8C303.8,147.3,303.7,147,303.6,146.6z"/>
	<g id="Cloud">
		<path class="st55" d="M126.8,31.3c3,0,9.4,4.3,9.4,9.4c0,5.2-4.3,9.4-9.4,9.4H91.9c-2.2,0-3.9-1.8-3.9-3.9c0-2.1,1.6-3.7,3.6-3.9
			v-0.6c0-3.1,2-7,7.1-7.1c0.9,0-0.7,0,0,0c0.9-6.6,7.1-11.6,13.4-11.6s10.5,3.5,12.5,8.4C125.2,31.4,123.8,31.3,126.8,31.3
			L126.8,31.3z"/>
		<path class="st20" d="M110,40.3l-2.4,2.4h11.7v1.1h-11.7l2.4,2.4l-0.8,0.8l-3.7-3.7l3.7-3.7L110,40.3L110,40.3z M119.9,35.5
			l-3.7,3.7l-0.8-0.8l2.4-2.4H106v-1.2h11.7l-2.4-2.4l0.8-0.8L119.9,35.5z"/>
	</g>
	<g id="Small_Icons">
		<path class="st56" d="M105,119.6c0-0.3,0.2-0.5,0.5-0.5s0.5,0.2,0.5,0.5v2c0,0.3-0.2,0.5-0.5,0.5s-0.5-0.2-0.5-0.5V119.6z
			 M102,121.3c-0.2-0.2-0.2-0.5,0-0.7c0.2-0.2,0.5-0.2,0.7,0l1.4,1.4c0.2,0.2,0.2,0.5,0,0.7c-0.2,0.2-0.5,0.2-0.7,0L102,121.3z
			 M101,124.6c-0.3,0-0.5-0.2-0.5-0.5s0.2-0.5,0.5-0.5h2c0.3,0,0.5,0.2,0.5,0.5s-0.2,0.5-0.5,0.5H101z M102.6,127.7
			c-0.2,0.2-0.5,0.2-0.7,0c-0.2-0.2-0.2-0.5,0-0.7l1.4-1.4c0.2-0.2,0.5-0.2,0.7,0c0.2,0.2,0.2,0.5,0,0.7L102.6,127.7z M106,128.7
			c0,0.3-0.2,0.5-0.5,0.5s-0.5-0.2-0.5-0.5v-2c0-0.3,0.2-0.5,0.5-0.5s0.5,0.2,0.5,0.5V128.7z M109,127.1c0.2,0.2,0.2,0.5,0,0.7
			c-0.2,0.2-0.5,0.2-0.7,0l-1.4-1.4c-0.2-0.2-0.2-0.5,0-0.7c0.2-0.2,0.5-0.2,0.7,0L109,127.1z M110.1,123.8c0.3,0,0.5,0.2,0.5,0.5
			s-0.2,0.5-0.5,0.5h-2c-0.3,0-0.5-0.2-0.5-0.5s0.2-0.5,0.5-0.5H110.1z M108.4,120.6c0.2-0.2,0.5-0.2,0.7,0c0.2,0.2,0.2,0.5,0,0.7
			l-1.4,1.4c-0.2,0.2-0.5,0.2-0.7,0s-0.2-0.5,0-0.7L108.4,120.6z"/>
		<path class="st57" d="M74.2,73.6c0-0.1,0.1-0.3,0.3-0.3c0.1,0,0.3,0.1,0.3,0.3v1.2c0,0.1-0.1,0.3-0.3,0.3c-0.1,0-0.3-0.1-0.3-0.3
			V73.6z M72.3,74.5c-0.1-0.1-0.1-0.3,0-0.4c0.1-0.1,0.3-0.1,0.4,0l0.9,0.9c0.1,0.1,0.1,0.3,0,0.4c-0.1,0.1-0.3,0.1-0.4,0L72.3,74.5
			z M71.7,76.5c-0.1,0-0.3-0.1-0.3-0.3s0.1-0.3,0.3-0.3h1.2c0.1,0,0.3,0.1,0.3,0.3s-0.1,0.3-0.3,0.3C72.9,76.5,71.7,76.5,71.7,76.5z
			 M72.7,78.3c-0.1,0.1-0.3,0.1-0.4,0s-0.1-0.3,0-0.4l0.9-0.9c0.1-0.1,0.3-0.1,0.4,0s0.1,0.3,0,0.4L72.7,78.3z M74.7,78.9
			c0,0.1-0.1,0.3-0.3,0.3s-0.3-0.1-0.3-0.3v-1.2c0-0.1,0.1-0.3,0.3-0.3s0.3,0.1,0.3,0.3V78.9z M76.5,77.9c0.1,0.1,0.1,0.3,0,0.4
			c-0.1,0.1-0.3,0.1-0.4,0l-0.9-0.9c-0.1-0.1-0.1-0.3,0-0.4c0.1-0.1,0.3-0.1,0.4,0L76.5,77.9z M77.1,76c0.1,0,0.3,0.1,0.3,0.3
			s-0.1,0.3-0.3,0.3h-1.2c-0.1,0-0.3-0.1-0.3-0.3s0.1-0.3,0.3-0.3H77.1z M76.1,74.2c0.1-0.1,0.3-0.1,0.4,0c0.1,0.1,0.1,0.3,0,0.4
			l-0.9,0.9c-0.1,0.1-0.3,0.1-0.4,0s-0.1-0.3,0-0.4L76.1,74.2z"/>
		<path class="st58" d="M290.4,53c0-0.2,0.1-0.3,0.3-0.3s0.3,0.1,0.3,0.3v1.5c0,0.2-0.1,0.3-0.3,0.3s-0.3-0.1-0.3-0.3V53z
			 M288.2,54.2c-0.1-0.1-0.1-0.3,0-0.5c0.1-0.1,0.3-0.1,0.5,0l1,1c0.1,0.1,0.1,0.3,0,0.5s-0.3,0.1-0.5,0L288.2,54.2z M287.4,56.6
			c-0.2,0-0.3-0.1-0.3-0.3c0-0.2,0.1-0.3,0.3-0.3h1.5c0.2,0,0.3,0.1,0.3,0.3c0,0.2-0.1,0.3-0.3,0.3H287.4z M288.7,58.9
			c-0.1,0.1-0.3,0.1-0.5,0c-0.1-0.1-0.1-0.3,0-0.5l1-1c0.1-0.1,0.3-0.1,0.5,0c0.1,0.1,0.1,0.3,0,0.5L288.7,58.9z M291.1,59.7
			c0,0.2-0.1,0.3-0.3,0.3s-0.3-0.1-0.3-0.3v-1.5c0-0.2,0.1-0.3,0.3-0.3s0.3,0.1,0.3,0.3V59.7z M293.4,58.5c0.1,0.1,0.1,0.3,0,0.5
			c-0.1,0.1-0.3,0.1-0.5,0l-1-1c-0.1-0.1-0.1-0.3,0-0.5s0.3-0.1,0.5,0L293.4,58.5z M294.1,56c0.2,0,0.3,0.1,0.3,0.3
			c0,0.2-0.1,0.3-0.3,0.3h-1.5c-0.2,0-0.3-0.1-0.3-0.3c0-0.2,0.1-0.3,0.3-0.3H294.1L294.1,56z M292.9,53.8c0.1-0.1,0.3-0.1,0.5,0
			c0.1,0.1,0.1,0.3,0,0.5l-1,1c-0.1,0.1-0.3,0.1-0.5,0c-0.1-0.1-0.1-0.3,0-0.5L292.9,53.8z"/>
		<path class="st59" d="M312.9,176c0-0.2,0.1-0.3,0.3-0.3s0.3,0.1,0.3,0.3v1.5c0,0.2-0.1,0.3-0.3,0.3s-0.3-0.1-0.3-0.3V176z
			 M310.6,177.3c-0.1-0.1-0.1-0.3,0-0.5c0.1-0.1,0.3-0.1,0.5,0l1,1c0.1,0.1,0.1,0.3,0,0.5c-0.1,0.1-0.3,0.1-0.5,0L310.6,177.3z
			 M309.8,179.7c-0.2,0-0.3-0.1-0.3-0.3s0.1-0.3,0.3-0.3h1.5c0.2,0,0.3,0.1,0.3,0.3s-0.1,0.3-0.3,0.3H309.8z M311,182
			c-0.1,0.1-0.3,0.1-0.5,0c-0.1-0.1-0.1-0.3,0-0.5l1-1c0.1-0.1,0.3-0.1,0.5,0c0.1,0.1,0.1,0.3,0,0.5L311,182z M313.5,182.7
			c0,0.2-0.1,0.3-0.3,0.3c-0.2,0-0.3-0.1-0.3-0.3v-1.5c0-0.2,0.1-0.3,0.3-0.3c0.2,0,0.3,0.1,0.3,0.3V182.7z M315.7,181.6
			c0.1,0.1,0.1,0.3,0,0.5c-0.1,0.1-0.3,0.1-0.5,0l-1-1c-0.1-0.1-0.1-0.3,0-0.5c0.1-0.1,0.3-0.1,0.5,0L315.7,181.6z M316.5,179.1
			c0.2,0,0.3,0.1,0.3,0.3c0,0.2-0.1,0.3-0.3,0.3H315c-0.2,0-0.3-0.1-0.3-0.3c0-0.2,0.1-0.3,0.3-0.3H316.5z M315.3,176.8
			c0.1-0.1,0.3-0.1,0.5,0c0.1,0.1,0.1,0.3,0,0.5l-1,1c-0.1,0.1-0.3,0.1-0.5,0c-0.1-0.1-0.1-0.3,0-0.5L315.3,176.8z"/>
		<g id="Circles">
			<path class="st60" d="M307.9,51c1.5,0,2.8-1.2,2.8-2.8s-1.2-2.8-2.8-2.8c-1.5,0-2.8,1.2-2.8,2.8S306.4,51,307.9,51z"/>
			<path class="st61" d="M216,177.6c1.5,0,2.8-1.2,2.8-2.8s-1.2-2.8-2.8-2.8c-1.5,0-2.8,1.2-2.8,2.8
				C213.2,176.4,214.5,177.6,216,177.6z"/>
			<path class="st62" d="M69.8,150.6c1.1,0,2-0.9,2-2c0-1.1-0.9-2-2-2c-1.1,0-2,0.9-2,2C67.8,149.6,68.7,150.6,69.8,150.6z"/>
			<path class="st63" d="M55.4,230.8c0.9,0,1.6-0.7,1.6-1.6c0-0.9-0.7-1.6-1.6-1.6c-0.9,0-1.6,0.7-1.6,1.6
				C53.8,230.1,54.5,230.8,55.4,230.8z"/>
			<path class="st64" d="M44.6,83c1.5,0,2.8-1.2,2.8-2.8s-1.2-2.8-2.8-2.8c-1.5,0-2.8,1.2-2.8,2.8S43,83,44.6,83z"/>
		</g>
		<path class="st65" d="M50,84.4h-1.8c-0.5,0-0.8-0.4-0.8-0.8v-1.8c0-0.5,0.4-0.8,0.8-0.8H50c0.5,0,0.8,0.4,0.8,0.8v1.8
			C50.8,84,50.4,84.4,50,84.4z"/>
		<path class="st66" d="M43.5,84.4h-1.8c-0.5,0-0.8-0.4-0.8-0.8v-1.8c0-0.5,0.4-0.8,0.8-0.8h1.8c0.5,0,0.8,0.4,0.8,0.8v1.8
			C44.4,84,44,84.4,43.5,84.4z"/>
		<path class="st65" d="M37.1,84.4h-1.8c-0.5,0-0.8-0.4-0.8-0.8v-1.8c0-0.5,0.4-0.8,0.8-0.8h1.8c0.5,0,0.8,0.4,0.8,0.8v1.8
			C37.9,84,37.5,84.4,37.1,84.4z"/>
		<path class="st66" d="M30.7,84.4h-1.8c-0.5,0-0.8-0.4-0.8-0.8v-1.8c0-0.5,0.4-0.8,0.8-0.8h1.8c0.5,0,0.8,0.4,0.8,0.8v1.8
			C31.5,84,31.1,84.4,30.7,84.4z"/>
		<path class="st65" d="M24.2,84.4h-1.8c-0.5,0-0.8-0.4-0.8-0.8v-1.8c0-0.5,0.4-0.8,0.8-0.8h1.8c0.5,0,0.8,0.4,0.8,0.8v1.8
			C25,84,24.7,84.4,24.2,84.4z"/>
		<path class="st66" d="M36.9,77.4H35c-0.5,0-0.8-0.4-0.8-0.8v-1.8c0-0.5,0.4-0.8,0.8-0.8h1.8c0.5,0,0.8,0.4,0.8,0.8v1.8
			C37.7,77,37.3,77.4,36.9,77.4z"/>
		<path class="st65" d="M30.5,77.4h-1.8c-0.5,0-0.8-0.4-0.8-0.8v-1.8c0-0.5,0.4-0.8,0.8-0.8h1.8c0.5,0,0.8,0.4,0.8,0.8v1.8
			C31.2,77,30.9,77.4,30.5,77.4z"/>
		<path class="st66" d="M24,77.4h-1.8c-0.5,0-0.8-0.4-0.8-0.8v-1.8c0-0.5,0.4-0.8,0.8-0.8H24c0.5,0,0.8,0.4,0.8,0.8v1.8
			C24.8,77,24.4,77.4,24,77.4z"/>
		<g id="Triangles">
			<path class="st67" d="M73,176.5l-3.1,4.7h6.2L73,176.5z M266.3,71.3l-4.8,1l3.8,3.8L266.3,71.3z M290.8,118.4l-2.7,4.1h5.4
				L290.8,118.4z"/>
		</g>
		<g id="Squares">
			<path class="st58" d="M265.7,144.4h-2.2c-0.5,0-1-0.5-1-1v-2.2c0-0.5,0.5-1,1-1h2.2c0.5,0,1,0.5,1,1v2.2
				C266.7,143.9,266.3,144.4,265.7,144.4z"/>
			<path class="st63" d="M307.8,219.8h-2.2c-0.5,0-1-0.5-1-1v-2.2c0-0.5,0.5-1,1-1h2.2c0.5,0,1,0.5,1,1v2.2
				C308.7,219.3,308.3,219.8,307.8,219.8z"/>
		</g>
	</g>
</g>
</svg>
