<svg xmlns="http://www.w3.org/2000/svg" width="54" height="42" viewBox="0 0 54 42">
  <path id="Icon_awesome-images" data-name="Icon awesome-images" d="M45,38.25v1.5a4.5,4.5,0,0,1-4.5,4.5H4.5A4.5,4.5,0,0,1,0,39.75v-24a4.5,4.5,0,0,1,4.5-4.5H6v19.5a7.509,7.509,0,0,0,7.5,7.5Zm9-7.5v-24a4.5,4.5,0,0,0-4.5-4.5h-36A4.5,4.5,0,0,0,9,6.75v24a4.5,4.5,0,0,0,4.5,4.5h36A4.5,4.5,0,0,0,54,30.75ZM24,11.25a4.5,4.5,0,1,1-4.5-4.5A4.5,4.5,0,0,1,24,11.25Zm-9,13.5,5.2-5.2a1.125,1.125,0,0,1,1.591,0l3.7,3.7,12.7-12.7a1.125,1.125,0,0,1,1.591,0l8.2,8.2v10.5H15Z" transform="translate(0 -2.25)" fill="#754cfe"/>
</svg>
