<svg xmlns="http://www.w3.org/2000/svg" width="26" height="26" viewBox="0 0 26 26">
  <path id="Icon_awesome-link" data-name="Icon awesome-link" d="M16.586,9.414a7.715,7.715,0,0,1,.018,10.9l-.018.019-3.413,3.412A7.719,7.719,0,0,1,2.257,12.827l1.884-1.884a.812.812,0,0,1,1.386.539,9.357,9.357,0,0,0,.492,2.677A.817.817,0,0,1,5.828,15l-.665.665a3.656,3.656,0,1,0,5.138,5.2l3.413-3.412a3.655,3.655,0,0,0,0-5.171,3.8,3.8,0,0,0-.525-.435.814.814,0,0,1-.353-.64A2.023,2.023,0,0,1,13.429,9.7L14.5,8.629a.816.816,0,0,1,1.045-.088,7.743,7.743,0,0,1,1.042.873Zm7.157-7.157a7.727,7.727,0,0,0-10.916,0L9.414,5.67,9.4,5.688a7.72,7.72,0,0,0,1.06,11.77.816.816,0,0,0,1.045-.088L12.571,16.3a2.023,2.023,0,0,0,.594-1.514.814.814,0,0,0-.353-.64,3.8,3.8,0,0,1-.525-.435,3.655,3.655,0,0,1,0-5.171L15.7,5.13a3.656,3.656,0,1,1,5.138,5.2L20.172,11a.817.817,0,0,0-.192.844,9.357,9.357,0,0,1,.492,2.677.812.812,0,0,0,1.386.539l1.884-1.884a7.727,7.727,0,0,0,0-10.916Z" transform="translate(0 0)" fill="#fff"/>
</svg>
