<svg xmlns="http://www.w3.org/2000/svg" width="42" height="42" viewBox="0 0 42 42">
  <path id="Icon_awesome-clone" data-name="Icon awesome-clone" d="M38.063,0A3.937,3.937,0,0,1,42,3.937V27.563A3.937,3.937,0,0,1,38.063,31.5H14.437A3.937,3.937,0,0,1,10.5,27.563V3.937A3.937,3.937,0,0,1,14.437,0H38.063M14.437,34.125a6.57,6.57,0,0,1-6.562-6.562V10.5H3.937A3.937,3.937,0,0,0,0,14.437V38.063A3.937,3.937,0,0,0,3.937,42H27.563A3.937,3.937,0,0,0,31.5,38.063V34.125Z" transform="translate(42) rotate(90)" fill="#754cfe"/>
</svg>
