<svg xmlns="http://www.w3.org/2000/svg" width="18.5" height="18.5" viewBox="0 0 18.5 18.5">
  <path id="Icon_awesome-plus" data-name="Icon awesome-plus" d="M17.179,9.518H11.232V3.571A1.322,1.322,0,0,0,9.911,2.25H8.589A1.322,1.322,0,0,0,7.268,3.571V9.518H1.321A1.322,1.322,0,0,0,0,10.839v1.321a1.322,1.322,0,0,0,1.321,1.321H7.268v5.946A1.322,1.322,0,0,0,8.589,20.75H9.911a1.322,1.322,0,0,0,1.321-1.321V13.482h5.946A1.322,1.322,0,0,0,18.5,12.161V10.839A1.322,1.322,0,0,0,17.179,9.518Z" transform="translate(0 -2.25)" fill="#fff"/>
</svg>
