<svg xmlns="http://www.w3.org/2000/svg" width="42" height="42" viewBox="0 0 42 42">
  <path id="Icon_awesome-save" data-name="Icon awesome-save" d="M40.682,11.432,32.818,3.568A4.5,4.5,0,0,0,29.636,2.25H4.5A4.5,4.5,0,0,0,0,6.75v33a4.5,4.5,0,0,0,4.5,4.5h33a4.5,4.5,0,0,0,4.5-4.5V14.614a4.5,4.5,0,0,0-1.318-3.182ZM21,38.25a6,6,0,1,1,6-6A6,6,0,0,1,21,38.25ZM30,9.7v9.424a1.125,1.125,0,0,1-1.125,1.125H7.125A1.125,1.125,0,0,1,6,19.125V9.375A1.125,1.125,0,0,1,7.125,8.25H28.549a1.125,1.125,0,0,1,.8.33l.326.326a1.125,1.125,0,0,1,.33.8Z" transform="translate(0 -2.25)" fill="#754cfe"/>
</svg>
