<svg xmlns="http://www.w3.org/2000/svg" width="42" height="42" viewBox="0 0 42 42">
  <path id="Icon_awesome-sort-alpha-up" data-name="Icon awesome-sort-alpha-up" d="M1.5,14.25H6v28.5a1.5,1.5,0,0,0,1.5,1.5h3a1.5,1.5,0,0,0,1.5-1.5V14.25h4.5a1.5,1.5,0,0,0,1.06-2.56l-7.5-9a1.5,1.5,0,0,0-2.121,0l-7.5,9A1.5,1.5,0,0,0,1.5,14.25Zm37.5,12H27a1.5,1.5,0,0,0-1.5,1.5v3a1.5,1.5,0,0,0,1.5,1.5h5.25l-5.743,6.6A3,3,0,0,0,25.5,41.1V42.75a1.5,1.5,0,0,0,1.5,1.5H39a1.5,1.5,0,0,0,1.5-1.5v-3a1.5,1.5,0,0,0-1.5-1.5H33.75l5.743-6.6A3,3,0,0,0,40.5,29.4V27.75A1.5,1.5,0,0,0,39,26.25Zm2.912-8-5.557-15a1.5,1.5,0,0,0-1.413-1H31.058a1.5,1.5,0,0,0-1.413,1l-5.557,15a1.5,1.5,0,0,0,1.412,2h2.328a1.5,1.5,0,0,0,1.428-1.039L29.67,18h6.656l.413,1.211a1.5,1.5,0,0,0,1.432,1.039H40.5a1.5,1.5,0,0,0,1.412-2Zm-10.448-5.5L33,8.25l1.537,4.5Z" transform="translate(0 -2.25)" fill="#754cfe"/>
</svg>
