<?xml version="1.0" encoding="utf-8"?>
<!-- Generator: Adobe Illustrator 25.2.0, SVG Export Plug-In . SVG Version: 6.00 Build 0)  -->
<svg version="1.1" id="Layer_1" xmlns="http://www.w3.org/2000/svg" xmlns:xlink="http://www.w3.org/1999/xlink" x="0px" y="0px"
	 viewBox="0 0 508.2 190" style="enable-background:new 0 0 508.2 190;" xml:space="preserve">
<style type="text/css">
	.st0{fill:#662ADB;}
</style>
<g>
	<path class="st0" d="M442.7,40c-10.2,0-20-7.1-30.5-14.7C401.8,17.8,391.1,10,380.6,10c-8.4,0-17.9,6.6-27.9,13.6
		C341.1,31.6,329,40,316,40c-11.5,0-22.3-8.1-32.8-15.8c-9.4-7-19-14.2-27.6-14.2c-9.2,0-19.5,7.2-29.5,14.3
		C215.1,32,203.7,40,191.8,40c-12.7,0-24.3-8.4-35.5-16.5c-9.6-6.9-18.7-13.5-26.6-13.5c-11.1,0-22.3,7.9-33.2,15.5
		C85.9,33,75.8,40,65.5,40c-18.6,0-27.8-9.1-36-17.2C22.6,15.9,16.6,10,5,10c-2.8,0-5-2.2-5-5s2.2-5,5-5c15.7,0,24.2,8.4,31.6,15.7
		C44.4,23.4,51,30,65.5,30c7.1,0,15.9-6.2,25.2-12.7C102.3,9.2,115.5,0,129.7,0c11.2,0,22,7.8,32.4,15.4
		c9.9,7.2,20.2,14.6,29.6,14.6c8.8,0,18.8-7.1,28.6-13.9C231.6,8.2,243.2,0,255.6,0c11.9,0,22.9,8.2,33.5,16.1
		C298.3,22.9,307.8,30,316,30c9.9,0,20.7-7.4,31-14.7C357.9,7.8,369.1,0,380.6,0c13.7,0,26.3,9.2,37.5,17.2
		c9.1,6.6,17.6,12.8,24.6,12.8c11.4,0,16.5-5.4,23-12.3C473.2,9.8,482.5,0,503.2,0c2.8,0,5,2.2,5,5s-2.2,5-5,5
		c-16.5,0-23.2,7.1-30.3,14.6C466.2,31.8,458.4,40,442.7,40z"/>
	<path class="st0" d="M442.7,90c-10.2,0-20-7.1-30.5-14.7C401.8,67.8,391.1,60,380.6,60c-8.4,0-17.9,6.6-27.9,13.6
		C341.1,81.6,329,90,316,90c-11.5,0-22.3-8.1-32.8-15.8c-9.4-7-19-14.2-27.6-14.2c-9.2,0-19.5,7.2-29.5,14.3
		C215.1,82,203.7,90,191.8,90c-12.7,0-24.3-8.4-35.5-16.5c-9.6-6.9-18.7-13.5-26.6-13.5c-11.1,0-22.3,7.9-33.2,15.5
		C85.9,83,75.8,90,65.5,90c-18.6,0-27.8-9.1-36-17.2C22.6,65.9,16.6,60,5,60c-2.8,0-5-2.2-5-5s2.2-5,5-5c15.7,0,24.2,8.4,31.6,15.7
		C44.4,73.4,51,80,65.5,80c7.1,0,15.9-6.2,25.2-12.7c11.6-8.1,24.7-17.3,38.9-17.3c11.2,0,22,7.8,32.4,15.4
		c9.9,7.2,20.2,14.6,29.6,14.6c8.8,0,18.8-7.1,28.6-13.9c11.2-7.9,22.9-16.1,35.3-16.1c11.9,0,22.9,8.2,33.5,16.1
		C298.3,72.9,307.8,80,316,80c9.9,0,20.7-7.4,31-14.7c10.9-7.5,22.1-15.3,33.6-15.3c13.7,0,26.3,9.2,37.5,17.2
		c9.1,6.6,17.6,12.8,24.6,12.8c11.4,0,16.5-5.4,23-12.3c7.5-7.9,16.8-17.7,37.5-17.7c2.8,0,5,2.2,5,5s-2.2,5-5,5
		c-16.5,0-23.2,7.1-30.3,14.6C466.2,81.8,458.4,90,442.7,90z"/>
	<path class="st0" d="M442.7,140c-10.2,0-20-7.1-30.5-14.7c-10.4-7.5-21.2-15.3-31.6-15.3c-8.4,0-17.9,6.6-27.9,13.6
		C341.1,131.6,329,140,316,140c-11.5,0-22.3-8.1-32.8-15.8c-9.4-7-19-14.2-27.6-14.2c-9.2,0-19.5,7.2-29.5,14.3
		c-11,7.7-22.4,15.7-34.3,15.7c-12.7,0-24.3-8.4-35.5-16.5c-9.6-6.9-18.7-13.5-26.6-13.5c-11.1,0-22.3,7.9-33.2,15.5
		C85.9,133,75.8,140,65.5,140c-18.6,0-27.8-9.1-36-17.2c-7-6.9-13-12.8-24.6-12.8c-2.8,0-5-2.2-5-5s2.2-5,5-5
		c15.7,0,24.2,8.4,31.6,15.7C44.4,123.4,51,130,65.5,130c7.1,0,15.9-6.2,25.2-12.7c11.6-8.1,24.7-17.3,38.9-17.3
		c11.2,0,22,7.8,32.4,15.4c9.9,7.2,20.2,14.6,29.6,14.6c8.8,0,18.8-7.1,28.6-13.9c11.2-7.9,22.9-16.1,35.3-16.1
		c11.9,0,22.9,8.2,33.5,16.1c9.2,6.8,18.6,13.9,26.8,13.9c9.9,0,20.7-7.4,31-14.7c10.9-7.5,22.1-15.3,33.6-15.3
		c13.7,0,26.3,9.2,37.5,17.2c9.1,6.6,17.6,12.8,24.6,12.8c11.4,0,16.5-5.4,23-12.3c7.5-7.9,16.8-17.7,37.5-17.7c2.8,0,5,2.2,5,5
		s-2.2,5-5,5c-16.5,0-23.2,7.1-30.3,14.6C466.2,131.8,458.4,140,442.7,140z"/>
	<path class="st0" d="M442.7,190c-10.2,0-20-7.1-30.5-14.7c-10.4-7.5-21.2-15.3-31.6-15.3c-8.4,0-17.9,6.6-27.9,13.6
		C341.1,181.6,329,190,316,190c-11.5,0-22.3-8.1-32.8-15.8c-9.4-7-19-14.2-27.6-14.2c-9.2,0-19.5,7.2-29.5,14.3
		c-11,7.7-22.4,15.7-34.3,15.7c-12.7,0-24.3-8.4-35.5-16.5c-9.6-6.9-18.7-13.5-26.6-13.5c-11.1,0-22.3,7.9-33.2,15.5
		C85.9,183,75.8,190,65.5,190c-18.6,0-27.8-9.1-36-17.2c-7-6.9-13-12.8-24.6-12.8c-2.8,0-5-2.2-5-5s2.2-5,5-5
		c15.7,0,24.2,8.4,31.6,15.7C44.4,173.4,51,180,65.5,180c7.1,0,15.9-6.2,25.2-12.7c11.6-8.1,24.7-17.3,38.9-17.3
		c11.2,0,22,7.8,32.4,15.4c9.9,7.2,20.2,14.6,29.6,14.6c8.8,0,18.8-7.1,28.6-13.9c11.2-7.9,22.9-16.1,35.3-16.1
		c11.9,0,22.9,8.2,33.5,16.1c9.2,6.8,18.6,13.9,26.8,13.9c9.9,0,20.7-7.4,31-14.7c10.9-7.5,22.1-15.3,33.6-15.3
		c13.7,0,26.3,9.2,37.5,17.2c9.1,6.6,17.6,12.8,24.6,12.8c11.4,0,16.5-5.4,23-12.3c7.5-7.9,16.8-17.7,37.5-17.7c2.8,0,5,2.2,5,5
		s-2.2,5-5,5c-16.5,0-23.2,7.1-30.3,14.6C466.2,181.8,458.4,190,442.7,190z"/>
</g>
</svg>
