<?xml version="1.0" encoding="utf-8"?>
<!-- Generator: Adobe Illustrator 25.0.1, SVG Export Plug-In . SVG Version: 6.00 Build 0)  -->
<svg version="1.1" id="Layer_1" xmlns="http://www.w3.org/2000/svg" xmlns:xlink="http://www.w3.org/1999/xlink" x="0px" y="0px"
	 viewBox="0 0 554 497" style="enable-background:new 0 0 554 497;" xml:space="preserve">
<style type="text/css">
	.st0{fill:#F1F3FF;}
	.st1{fill:#FFFFFF;}
	.st2{fill:#E6E6E6;}
	.st3{fill:#CCCCCC;}
	.st4{fill:#3F3D56;}
	.st5{fill:#6C63FF;}
	.st6{fill:#FFB8B8;}
	.st7{fill:#2F2E41;}
	.st8{display:none;}
	.st9{display:inline;fill:#3F3D56;}
	.st10{display:inline;fill:#6C63FF;}
	.st11{display:inline;fill:#2F2E41;}
	.st12{display:inline;fill:#FFFFFF;}
	.st13{display:inline;fill:#E6E6E6;}
	.st14{fill:none;stroke:#6C63FF;stroke-miterlimit:10;}
	.st15{fill:#DDDFE8;}
	.st16{fill:#C3C1D6;}
	.st17{fill-rule:evenodd;clip-rule:evenodd;fill:#908AB7;}
	.st18{fill-rule:evenodd;clip-rule:evenodd;fill:#E7E7F2;}
	.st19{fill-rule:evenodd;clip-rule:evenodd;fill:#F7C9DA;}
	.st20{fill:#FCEADD;}
	.st21{fill-rule:evenodd;clip-rule:evenodd;fill:#D7D8AF;}
	.st22{fill-rule:evenodd;clip-rule:evenodd;fill:#C2C2EF;}
	.st23{fill-rule:evenodd;clip-rule:evenodd;fill:#D7F9B4;}
	.st24{fill-rule:evenodd;clip-rule:evenodd;fill:#718ED8;}
	.st25{fill:#F3D5F7;}
	.st26{fill:#F1F3FF;stroke:#C9C9F7;stroke-miterlimit:10;}
	.st27{fill:#EBEBF7;stroke:#6C63FF;stroke-miterlimit:10;}
	.st28{fill:#4646AF;}
	.st29{fill:#FCFCFC;stroke:#2F2F38;stroke-width:1.5;stroke-miterlimit:10;}
</style>
<g id="Group_206" transform="translate(-976 -1715)">
	<path id="Rectangle_63" class="st0" d="M986,1715h534c5.5,0,10,4.5,10,10v477c0,5.5-4.5,10-10,10H986c-5.5,0-10-4.5-10-10v-477
		C976,1719.5,980.5,1715,986,1715z"/>
	<path id="Rectangle_64" class="st1" d="M1190,1880h146c5.5,0,10,4.5,10,10v145c0,5.5-4.5,10-10,10h-146c-5.5,0-10-4.5-10-10v-145
		C1180,1884.5,1184.5,1880,1190,1880z"/>
	<g id="Group_205">
		<g id="Group_10" transform="translate(1016.226 1749.563)">
			<path id="Path_12" class="st2" d="M103.7,131.7c-2.7-0.1-4.9,2.1-4.9,4.8c-0.1,2.7,2.1,4.9,4.8,4.9c0.1,0,0.1,0,0.2,0h61v-2.1
				c0-3.1,1.5-5.9,4.1-7.6L103.7,131.7z"/>
			<path id="Path_13" class="st2" d="M159.2,120.8h-20.6c-2.7,0.1-4.9-2.1-4.9-4.8c-0.1-2.7,2.1-4.9,4.8-4.9c0.1,0,0.1,0,0.2,0h20.6
				c2.7,0.1,4.8,2.3,4.8,4.9C163.9,118.7,161.8,120.8,159.2,120.8z"/>
			<path id="Path_14" class="st2" d="M112.9,86.3h-80c-2.7-0.1-4.8-2.3-4.8-4.9c0.1-2.6,2.1-4.7,4.8-4.8h80c2.7,0.1,4.8,2.3,4.8,4.9
				C117.6,84.1,115.5,86.2,112.9,86.3z"/>
			<path id="Path_15" class="st2" d="M78,65.7H67.7c-2.7,0.1-4.9-2.1-4.9-4.8c-0.1-2.7,2.1-4.9,4.8-4.9c0.1,0,0.1,0,0.2,0H78
				c2.7-0.1,4.9,2.1,4.9,4.8c0.1,2.7-2.1,4.9-4.8,4.9C78.2,65.7,78.1,65.7,78,65.7z"/>
			<path id="Path_16" class="st3" d="M164,229.3H88.6c-5.7,0-10.3-4.6-10.3-10.3V99.6c0-5.7,4.6-10.3,10.3-10.3h120.5
				c5.7,0,10.3,4.6,10.3,10.3v29.6h-1.2V99.6c0-5-4.1-9.1-9.1-9.1H88.6c-5,0-9.1,4.1-9.1,9.1V219c0,5,4.1,9.1,9.1,9.1H164V229.3z"/>
			<path id="Path_17" class="st3" d="M78.9,157.9h-55c-5.7,0-10.3-4.6-10.3-10.3V50.5c0-5.7,4.6-10.3,10.3-10.3h98
				c5.7,0,10.3,4.6,10.3,10.3v39.4H131V50.5c0-5-4.1-9.1-9.1-9.1h-98c-5,0-9.1,4.1-9.1,9.1v97.1c0,5,4.1,9.1,9.1,9.1h55L78.9,157.9z
				"/>
			<path id="Path_18" class="st2" d="M324.4,131.7c2.6,1.7,4.1,4.5,4.1,7.6v2.1h61c2.7,0.1,4.9-2.1,4.9-4.8c0.1-2.7-2.1-4.9-4.8-4.9
				c-0.1,0-0.1,0-0.2,0L324.4,131.7z"/>
			<path id="Path_19" class="st2" d="M329.1,116c0-2.7,2.2-4.8,4.9-4.9h20.6c2.7-0.1,4.9,2.1,4.9,4.8c0.1,2.7-2.1,4.9-4.8,4.9
				c-0.1,0-0.1,0-0.2,0H334C331.3,120.8,329.1,118.7,329.1,116z"/>
			<path id="Path_20" class="st2" d="M375.3,81.4c0-2.7,2.2-4.8,4.9-4.9h80c2.7,0.1,4.8,2.3,4.8,4.9c-0.1,2.6-2.1,4.7-4.8,4.8h-80
				C377.5,86.3,375.4,84.1,375.3,81.4L375.3,81.4z"/>
			<path id="Path_21" class="st2" d="M410.2,60.8c0-2.7,2.2-4.8,4.9-4.9h10.3c2.7-0.1,4.9,2.1,4.9,4.8c0.1,2.7-2.1,4.9-4.8,4.9
				c-0.1,0-0.1,0-0.2,0h-10.3C412.4,65.7,410.2,63.5,410.2,60.8z"/>
			<path id="Path_22" class="st3" d="M329.1,229.3h75.5c5.7,0,10.3-4.6,10.3-10.3V99.6c0-5.7-4.6-10.3-10.3-10.3H284
				c-5.7,0-10.3,4.6-10.3,10.3v29.6h1.2V99.6c0-5,4.1-9.1,9.1-9.1h120.5c5,0,9.1,4.1,9.1,9.1V219c0,5-4.1,9.1-9.1,9.1h-75.5V229.3z"
				/>
			<path id="Path_23" class="st3" d="M414.2,157.9h55c5.7,0,10.3-4.6,10.3-10.3V50.5c0-5.7-4.6-10.3-10.3-10.3h-98
				c-5.7,0-10.3,4.6-10.3,10.3v39.4h1.2V50.5c0-5,4.1-9.1,9.1-9.1h98c5,0,9.1,4.1,9.1,9.1v97.1c0,5-4.1,9.1-9.1,9.1h-55L414.2,157.9
				z"/>
			<path id="Path_24" class="st4" d="M319.1,129H173.7c-5.7,0-10.3,4.6-10.3,10.3v144c0,5.7,4.6,10.3,10.3,10.3h145.4
				c5.7,0,10.3-4.6,10.3-10.3v-144C329.4,133.6,324.8,129,319.1,129L319.1,129z M328.2,283.3c0,5-4.1,9.1-9.1,9.1H173.7
				c-5,0-9.1-4.1-9.1-9.1v-144c0-5,4.1-9.1,9.1-9.1h145.4c5,0,9.1,4.1,9.1,9.1V283.3z"/>
			<path id="Path_30" class="st3" d="M72.9,28.1c-7.8,0-14.1-6.3-14.1-14.1S65.1,0,72.9,0S87,6.3,87,14.1c0,0,0,0,0,0
				C87,21.8,80.7,28.1,72.9,28.1C72.9,28.1,72.9,28.1,72.9,28.1z M72.9,1.2C65.8,1.2,60,7,60,14.1c0,7.1,5.8,12.9,12.9,12.9
				s12.9-5.8,12.9-12.9C85.8,7,80,1.2,72.9,1.2L72.9,1.2z"/>
			<path id="Path_395-2" class="st3" d="M71.6,19.2c-0.3,0-0.6-0.1-0.8-0.3l0,0l-3.2-2.4c-0.6-0.5-0.7-1.4-0.3-2
				c0.5-0.6,1.4-0.7,2-0.3l2,1.6l4.8-6.3c0.5-0.6,1.4-0.7,2-0.3l0,0l0,0l0,0c0.6,0.5,0.7,1.4,0.3,2l-5.7,7.4
				C72.4,19,72,19.2,71.6,19.2L71.6,19.2z"/>
			<path id="Path_31" class="st3" d="M162.1,77.3c-7.8,0-14.1-6.3-14.1-14.1s6.3-14.1,14.1-14.1c7.8,0,14.1,6.3,14.1,14.1
				C176.2,71,169.9,77.3,162.1,77.3C162.1,77.3,162.1,77.3,162.1,77.3z M162.1,50.3c-7.1,0-12.9,5.8-12.9,12.9S155,76,162.1,76
				S175,70.3,175,63.2S169.2,50.3,162.1,50.3L162.1,50.3z"/>
			<path id="Path_395-3" class="st3" d="M160.8,68.3c-0.3,0-0.6-0.1-0.8-0.3l0,0l-3.2-2.4c-0.6-0.5-0.7-1.4-0.3-2s1.4-0.7,2-0.3
				l2,1.6l4.8-6.3c0.5-0.6,1.4-0.7,2-0.3l0,0l0,0l0,0c0.6,0.5,0.7,1.4,0.3,2l-5.7,7.4C161.7,68.1,161.2,68.3,160.8,68.3L160.8,68.3z
				"/>
			<path id="Path_32" class="st5" d="M246.4,116.7c-9.5-0.2-13.9-7.4-13.9-14.1s4.3-13.9,13.9-14.1h0c9.5,0.2,13.9,7.4,13.9,14.1
				C260.3,109.3,256,116.5,246.4,116.7z M246.4,89.7c-8.7,0.2-12.7,6.8-12.7,12.9s4,12.7,12.7,12.9c8.7-0.1,12.7-6.8,12.7-12.9
				S255.1,89.9,246.4,89.7L246.4,89.7z"/>
			<path id="Path_33" class="st5" d="M249.6,103.4c2.4,4.2-4.2,5.9-6.8,3.3l0.6-1.4c4.2,3.6,7.8-2.6,1.5-2v-1.5
				c5.8,0.5,2.5-5.4-1.3-1.9l-0.6-1.4c3.2-3.3,10.2,0.7,5.2,4C248.7,102.6,249.2,102.9,249.6,103.4z"/>
			<path id="Path_34" class="st3" d="M331.9,77.3c-7.8,0-14.1-6.3-14.1-14.1c0-7.8,6.3-14.1,14.1-14.1c7.8,0,14.1,6.3,14.1,14.1v0
				C346,71,339.7,77.3,331.9,77.3C331.9,77.3,331.9,77.3,331.9,77.3z M331.9,50.3c-7.1,0-12.9,5.8-12.9,12.9S324.8,76,331.9,76
				s12.9-5.8,12.9-12.9c0,0,0,0,0,0C344.8,56.1,339,50.3,331.9,50.3z"/>
			<path id="Path_35" class="st3" d="M335.8,66.3h-1.5v2h-1.8v-2H328v-1.4l4.8-6.9h1.5v6.9h1.5L335.8,66.3z M332.5,64.9v-3.9
				l-2.7,3.9H332.5z"/>
			<path id="Path_36" class="st3" d="M420.2,28.1c-7.8,0-14.1-6.3-14.1-14.1c0-7.8,6.3-14.1,14.1-14.1c7.8,0,14.1,6.3,14.1,14.1
				c0,0,0,0,0,0C434.3,21.8,428,28.1,420.2,28.1z M420.2,1.2c-7.1,0-12.9,5.8-12.9,12.9s5.8,12.9,12.9,12.9
				c7.1,0,12.9-5.8,12.9-12.9c0,0,0,0,0,0C433.1,7,427.3,1.2,420.2,1.2z"/>
			<path id="Path_37" class="st3" d="M422.3,13c0.5,0.3,0.9,0.7,1.2,1.2c0.3,0.5,0.4,1.1,0.4,1.7c0,0.6-0.1,1.3-0.5,1.8
				c-0.3,0.5-0.8,0.9-1.3,1.2c-0.6,0.3-1.3,0.4-2,0.4c-0.7,0-1.3-0.1-1.9-0.3c-0.6-0.2-1.1-0.5-1.6-0.9l0.6-1.4
				c0.8,0.7,1.8,1.1,2.9,1.1c1,0.1,2-0.6,2.1-1.6c0.1-0.6-0.2-1.2-0.6-1.6c-0.4-0.4-0.9-0.5-1.4-0.5c-0.4,0-0.8,0.1-1.2,0.2
				c-0.4,0.2-0.7,0.4-0.9,0.7h-1.1V8.8h6.5v1.5h-4.7v2.8c0.6-0.4,1.2-0.6,1.9-0.5C421.2,12.6,421.8,12.7,422.3,13L422.3,13z"/>
			<g id="character">
				<path id="Path_38" class="st6" d="M78.9,315.8c-1.4-3.1,0-6.7,3-8.1c0.3-0.1,0.7-0.3,1-0.4l1.8-21.6l8.8,7l-3.1,19.4
					c0.6,3.3-1.6,6.5-4.9,7.1C82.8,319.9,80,318.4,78.9,315.8L78.9,315.8z"/>
				<path id="Path_39" class="st5" d="M84.5,305.1c-1.3-0.2-2.3-1.3-2.4-2.6l-1-24.5c-0.4-8.8,1.4-17.6,5.2-25.5l9.1-19
					c1.2-2.3,3.5-3.9,6.1-4.2c2.5-0.4,5.1,0.5,6.8,2.4c0.4,0.5,0.8,1,1.2,1.5c1.4,2.3,1.5,5.1,0.4,7.5l-13.9,38L95,303.4
					c-0.1,1.5-1.3,2.7-2.8,2.6c-0.1,0-0.1,0-0.2,0L84.5,305.1L84.5,305.1z"/>
				<path id="Path_40" class="st6" d="M58.5,412.2l6.8,3l14.8-24.8l-10-4.4L58.5,412.2z"/>
				<path id="Path_41" class="st7" d="M57.7,409.2l13.4,5.9l0,0c4.7,2.1,6.9,7.6,4.8,12.3l-0.1,0.3L53.9,418L57.7,409.2z"/>
				<path id="Path_42" class="st6" d="M149.9,420.4h7.4l3.5-28.7h-11L149.9,420.4z"/>
				<path id="Path_43" class="st7" d="M148,418h14.6c5.2,0,9.3,4.2,9.3,9.3l0,0v0.3h-24L148,418z"/>
				<path id="Path_44" class="st7" d="M75,412.3c-0.3,0-0.6,0-0.8-0.1l-12.6-4.1c-1.4-0.5-2.2-2-1.8-3.4l41.8-133.1l31.3-6.1
					l0.1,0.2c20.7,33.7,27.6,85.1,32,139.7c0.1,1.5-1,2.8-2.5,2.9l-13.8,1.4c-1.3,0.1-2.6-0.7-2.9-2l-25.2-89.3
					c-0.1-0.5-0.6-0.8-1.1-0.6c-0.3,0.1-0.5,0.3-0.6,0.5l-41.4,92.4C77.1,411.6,76.1,412.3,75,412.3L75,412.3z"/>
				<circle id="Ellipse_4" class="st6" cx="117.8" cy="203.4" r="14.9"/>
				<path id="Path_45" class="st5" d="M98.9,275.6l-0.1-0.2c-0.1-0.1-6.9-14.7-6.3-31.5c0.4-11.4,9.7-20.6,21.2-20.8l0,0
					c10.5-0.2,19.6,7.2,21.6,17.5c1.9,9.1,1.9,18.4-0.1,27.5l0,0.2l-0.2,0L98.9,275.6z"/>
				<path id="Path_46" class="st6" d="M188.4,241.8c-0.5,3.3-3.6,5.6-6.9,5.1c-0.4-0.1-0.7-0.1-1-0.2l-13.2,17.2l-3.7-10.7
					l13.1-14.7c1.3-3.1,4.9-4.6,8-3.3C187.3,236.3,188.8,239,188.4,241.8L188.4,241.8z"/>
				<g>
					<path id="Path_47" class="st5" d="M139.1,272.2c-2.8-1.7-5.6-3.7-6.2-4.1c-0.1-0.1,3,3.2-0.6-0.6c-4.4-4.8-15.9-19.9-18.4-29.3
						c-0.7-2.9-0.9-5.2,0.6-7.5c1.5-2.3,3.6-3.2,6.2-3.5c0,0,0,0,0,0c0.6-0.1,1.2-0.1,1.9,0.1c2.7,0.5,1.1-3.2,6.6,2.1
						c5.1,4.1,11.7,24.5,21.2,24.8c9.5,0.3,10.8-4.5,17.1-8.8c1.5-1,2.4-0.9,3.7,0.2c0.1,0.1,0.2,0.1,0.3,0.2
						c2.4,2.7,3.1,3.5,4.8,5.8c1.2,1.5,1.1,1.9-1,4C160.7,270.6,152.8,280.6,139.1,272.2z"/>
				</g>
				<path id="Path_48" class="st7" d="M115.1,202.5c1.1-1.8,3.5-2.3,5.6-2.1s4.1,0.9,6.3,0.9c5.9,0,10.4-7.2,7.9-12.5
					c-2-4.4-7.1-6.3-11.6-7.8c-9.6-3.2-20.6-6.2-29.3-1.1c-5.6,3.4-9,9.6-8.8,16.2c0.2,4,1.7,8.2,0.4,12c-1.5,4.4-6.3,6.8-10.8,7.9
					c-7.9,2-16.2,1.7-24.2,3.5s-16.1,6.6-18.2,14.4c-1.4,5.2,0.1,10.7,2.5,15.5c10.1,19.7,34.2,27.6,54,17.5c0.7-0.3,1.3-0.7,2-1.1
					c9.6-5.6,16.6-15.1,20.7-25.4c2.3-6,4-12.3,4.9-18.7c0.8-6,0.3-12.1-1.5-17.9C114.9,203.4,114.9,202.9,115.1,202.5L115.1,202.5z
					"/>
			</g>
			<path id="Path_49" class="st4" d="M231.6,427.9H0.6c-0.3,0-0.6-0.3-0.6-0.6s0.3-0.6,0.6-0.6h231c0.3,0,0.6,0.3,0.6,0.6
				S232,427.9,231.6,427.9z"/>
		</g>
		<g id="Group_13" transform="translate(-508 30)" class="st8">
			<path id="Path_134" class="st9" d="M1730.1,2030.2v46.7c0,1.2,1,2.2,2.2,2.2h69.2c1.2,0,2.2-1,2.2-2.2v-46.7c0-1.2-1-2.2-2.2-2.2
				h-69.2C1731.1,2028,1730.1,2029,1730.1,2030.2z"/>
			<path id="Path_135" class="st10" d="M1731.8,2030.8v45.6c0,0.7,0.5,1.2,1.2,1.2l0,0h68.1c0.7,0,1.2-0.5,1.2-1.2l0,0v-45.6
				c0-0.7-0.5-1.2-1.2-1.2l0,0h-68.1C1732.3,2029.6,1731.8,2030.2,1731.8,2030.8L1731.8,2030.8z"/>
			<path id="Path_136" class="st11" d="M1728.7,2086.1c0.3,0.3,0.6,0.5,1.1,0.5h74.1c0.8,0,1.4-0.6,1.4-1.4c0-0.1,0-0.2,0-0.3
				l-1.2-5.5c-0.1-0.5-0.4-0.8-0.8-1c-0.2-0.1-0.3-0.1-0.5-0.1h-71.8c-0.2,0-0.3,0-0.5,0.1c-0.4,0.2-0.8,0.5-0.8,1l-1.2,5.5
				C1728.3,2085.3,1728.4,2085.8,1728.7,2086.1L1728.7,2086.1z"/>
			<path id="Rectangle_79" class="st9" d="M1801.7,2080.8h-1.3c-0.3,0-0.5-0.2-0.5-0.5v-0.4c0-0.3,0.2-0.5,0.5-0.5h1.3
				c0.3,0,0.5,0.2,0.5,0.5v0.4C1802.2,2080.5,1802,2080.8,1801.7,2080.8z"/>
			<path id="Rectangle_80" class="st9" d="M1797.2,2080.8h-1.3c-0.3,0-0.5-0.2-0.5-0.5v-0.4c0-0.3,0.2-0.5,0.5-0.5h1.3
				c0.3,0,0.5,0.2,0.5,0.5v0.4C1797.6,2080.5,1797.4,2080.8,1797.2,2080.8z"/>
			<path id="Rectangle_81" class="st9" d="M1792.6,2080.8h-1.3c-0.3,0-0.5-0.2-0.5-0.5v-0.4c0-0.3,0.2-0.5,0.5-0.5h1.3
				c0.3,0,0.5,0.2,0.5,0.5v0.4C1793.1,2080.5,1792.9,2080.8,1792.6,2080.8z"/>
			<path id="Rectangle_82" class="st9" d="M1788,2080.8h-1.3c-0.3,0-0.5-0.2-0.5-0.5v-0.4c0-0.3,0.2-0.5,0.5-0.5h1.3
				c0.3,0,0.5,0.2,0.5,0.5v0.4C1788.5,2080.5,1788.3,2080.8,1788,2080.8z"/>
			<path id="Rectangle_83" class="st9" d="M1783.4,2080.8h-1.3c-0.3,0-0.5-0.2-0.5-0.5v-0.4c0-0.3,0.2-0.5,0.5-0.5h1.3
				c0.3,0,0.5,0.2,0.5,0.5v0.4C1783.9,2080.5,1783.7,2080.8,1783.4,2080.8z"/>
			<path id="Rectangle_84" class="st9" d="M1778.9,2080.8h-1.3c-0.3,0-0.5-0.2-0.5-0.5v-0.4c0-0.3,0.2-0.5,0.5-0.5h1.3
				c0.3,0,0.5,0.2,0.5,0.5v0.4C1779.4,2080.5,1779.1,2080.8,1778.9,2080.8z"/>
			<path id="Rectangle_85" class="st9" d="M1774.3,2080.8h-1.3c-0.3,0-0.5-0.2-0.5-0.5v-0.4c0-0.3,0.2-0.5,0.5-0.5h1.3
				c0.3,0,0.5,0.2,0.5,0.5v0.4C1774.8,2080.5,1774.6,2080.8,1774.3,2080.8z"/>
			<path id="Rectangle_86" class="st9" d="M1769.7,2080.8h-1.3c-0.3,0-0.5-0.2-0.5-0.5v-0.4c0-0.3,0.2-0.5,0.5-0.5h1.3
				c0.3,0,0.5,0.2,0.5,0.5v0.4C1770.2,2080.5,1770,2080.8,1769.7,2080.8z"/>
			<path id="Rectangle_87" class="st9" d="M1765.2,2080.8h-1.3c-0.3,0-0.5-0.2-0.5-0.5v-0.4c0-0.3,0.2-0.5,0.5-0.5h1.3
				c0.3,0,0.5,0.2,0.5,0.5v0.4C1765.7,2080.5,1765.4,2080.8,1765.2,2080.8z"/>
			<path id="Rectangle_88" class="st9" d="M1760.6,2080.8h-1.3c-0.3,0-0.5-0.2-0.5-0.5v-0.4c0-0.3,0.2-0.5,0.5-0.5h1.3
				c0.3,0,0.5,0.2,0.5,0.5v0.4C1761.1,2080.5,1760.9,2080.8,1760.6,2080.8z"/>
			<path id="Rectangle_89" class="st9" d="M1756,2080.8h-1.3c-0.3,0-0.5-0.2-0.5-0.5v-0.4c0-0.3,0.2-0.5,0.5-0.5h1.3
				c0.3,0,0.5,0.2,0.5,0.5v0.4C1756.5,2080.5,1756.3,2080.8,1756,2080.8z"/>
			<path id="Rectangle_90" class="st9" d="M1751.5,2080.8h-1.3c-0.3,0-0.5-0.2-0.5-0.5v-0.4c0-0.3,0.2-0.5,0.5-0.5h1.3
				c0.3,0,0.5,0.2,0.5,0.5v0.4C1752,2080.5,1751.7,2080.8,1751.5,2080.8z"/>
			<path id="Rectangle_91" class="st9" d="M1746.9,2080.8h-1.3c-0.3,0-0.5-0.2-0.5-0.5v-0.4c0-0.3,0.2-0.5,0.5-0.5h1.3
				c0.3,0,0.5,0.2,0.5,0.5v0.4C1747.4,2080.5,1747.2,2080.8,1746.9,2080.8z"/>
			<path id="Rectangle_92" class="st9" d="M1742.3,2080.8h-1.3c-0.3,0-0.5-0.2-0.5-0.5v-0.4c0-0.3,0.2-0.5,0.5-0.5h1.3
				c0.3,0,0.5,0.2,0.5,0.5v0.4C1742.8,2080.5,1742.6,2080.8,1742.3,2080.8z"/>
			<path id="Rectangle_93" class="st9" d="M1737.8,2080.8h-1.3c-0.3,0-0.5-0.2-0.5-0.5v-0.4c0-0.3,0.2-0.5,0.5-0.5h1.3
				c0.3,0,0.5,0.2,0.5,0.5v0.4C1738.3,2080.5,1738,2080.8,1737.8,2080.8z"/>
			<path id="Rectangle_94" class="st9" d="M1733.2,2080.8h-1.3c-0.3,0-0.5-0.2-0.5-0.5v-0.4c0-0.3,0.2-0.5,0.5-0.5h1.3
				c0.3,0,0.5,0.2,0.5,0.5v0.4C1733.7,2080.5,1733.5,2080.8,1733.2,2080.8z"/>
			<path id="Rectangle_95" class="st9" d="M1801.8,2083h-1.3c-0.3,0-0.5-0.2-0.5-0.5v-0.4c0-0.3,0.2-0.5,0.5-0.5h1.3
				c0.3,0,0.5,0.2,0.5,0.5v0.4C1802.3,2082.8,1802,2083,1801.8,2083z"/>
			<path id="Rectangle_96" class="st9" d="M1797.2,2083h-1.3c-0.3,0-0.5-0.2-0.5-0.5v-0.4c0-0.3,0.2-0.5,0.5-0.5h1.3
				c0.3,0,0.5,0.2,0.5,0.5v0.4C1797.7,2082.8,1797.5,2083,1797.2,2083z"/>
			<path id="Rectangle_97" class="st9" d="M1792.6,2083h-1.3c-0.3,0-0.5-0.2-0.5-0.5v-0.4c0-0.3,0.2-0.5,0.5-0.5h1.3
				c0.3,0,0.5,0.2,0.5,0.5v0.4C1793.1,2082.8,1792.9,2083,1792.6,2083z"/>
			<path id="Rectangle_98" class="st9" d="M1788.1,2083h-1.3c-0.3,0-0.5-0.2-0.5-0.5v-0.4c0-0.3,0.2-0.5,0.5-0.5h1.3
				c0.3,0,0.5,0.2,0.5,0.5v0.4C1788.6,2082.8,1788.3,2083,1788.1,2083z"/>
			<path id="Rectangle_99" class="st9" d="M1783.5,2083h-1.3c-0.3,0-0.5-0.2-0.5-0.5v-0.4c0-0.3,0.2-0.5,0.5-0.5h1.3
				c0.3,0,0.5,0.2,0.5,0.5v0.4C1784,2082.8,1783.8,2083,1783.5,2083z"/>
			<path id="Rectangle_100" class="st9" d="M1778.9,2083h-1.3c-0.3,0-0.5-0.2-0.5-0.5v-0.4c0-0.3,0.2-0.5,0.5-0.5h1.3
				c0.3,0,0.5,0.2,0.5,0.5v0.4C1779.4,2082.8,1779.2,2083,1778.9,2083z"/>
			<path id="Rectangle_101" class="st9" d="M1774.4,2083h-1.3c-0.3,0-0.5-0.2-0.5-0.5v-0.4c0-0.3,0.2-0.5,0.5-0.5h1.3
				c0.3,0,0.5,0.2,0.5,0.5v0.4C1774.9,2082.8,1774.6,2083,1774.4,2083z"/>
			<path id="Rectangle_102" class="st9" d="M1769.8,2083h-1.3c-0.3,0-0.5-0.2-0.5-0.5v-0.4c0-0.3,0.2-0.5,0.5-0.5h1.3
				c0.3,0,0.5,0.2,0.5,0.5v0.4C1770.3,2082.8,1770.1,2083,1769.8,2083z"/>
			<path id="Rectangle_103" class="st9" d="M1765.2,2083h-1.3c-0.3,0-0.5-0.2-0.5-0.5v-0.4c0-0.3,0.2-0.5,0.5-0.5h1.3
				c0.3,0,0.5,0.2,0.5,0.5v0.4C1765.7,2082.8,1765.5,2083,1765.2,2083z"/>
			<path id="Rectangle_104" class="st9" d="M1760.7,2083h-1.3c-0.3,0-0.5-0.2-0.5-0.5v-0.4c0-0.3,0.2-0.5,0.5-0.5h1.3
				c0.3,0,0.5,0.2,0.5,0.5v0.4C1761.2,2082.8,1760.9,2083,1760.7,2083z"/>
			<path id="Rectangle_105" class="st9" d="M1756.1,2083h-1.3c-0.3,0-0.5-0.2-0.5-0.5v-0.4c0-0.3,0.2-0.5,0.5-0.5h1.3
				c0.3,0,0.5,0.2,0.5,0.5v0.4C1756.6,2082.8,1756.4,2083,1756.1,2083z"/>
			<path id="Rectangle_106" class="st9" d="M1751.5,2083h-1.3c-0.3,0-0.5-0.2-0.5-0.5v-0.4c0-0.3,0.2-0.5,0.5-0.5h1.3
				c0.3,0,0.5,0.2,0.5,0.5v0.4C1752,2082.8,1751.8,2083,1751.5,2083z"/>
			<path id="Rectangle_107" class="st9" d="M1747,2083h-1.3c-0.3,0-0.5-0.2-0.5-0.5v-0.4c0-0.3,0.2-0.5,0.5-0.5h1.3
				c0.3,0,0.5,0.2,0.5,0.5v0.4C1747.5,2082.8,1747.2,2083,1747,2083z"/>
			<path id="Rectangle_108" class="st9" d="M1742.4,2083h-1.3c-0.3,0-0.5-0.2-0.5-0.5v-0.4c0-0.3,0.2-0.5,0.5-0.5h1.3
				c0.3,0,0.5,0.2,0.5,0.5v0.4C1742.9,2082.8,1742.7,2083,1742.4,2083z"/>
			<path id="Rectangle_109" class="st9" d="M1737.8,2083h-1.3c-0.3,0-0.5-0.2-0.5-0.5v-0.4c0-0.3,0.2-0.5,0.5-0.5h1.3
				c0.3,0,0.5,0.2,0.5,0.5v0.4C1738.3,2082.8,1738.1,2083,1737.8,2083z"/>
			<path id="Rectangle_110" class="st9" d="M1733.3,2083h-1.3c-0.3,0-0.5-0.2-0.5-0.5v-0.4c0-0.3,0.2-0.5,0.5-0.5h1.3
				c0.3,0,0.5,0.2,0.5,0.5v0.4C1733.7,2082.8,1733.5,2083,1733.3,2083z"/>
			<path id="Rectangle_111" class="st9" d="M1779.8,2085.8h-17.3c-0.3,0-0.5-0.2-0.5-0.5v-0.4c0-0.3,0.2-0.5,0.5-0.5h17.3
				c0.3,0,0.5,0.2,0.5,0.5v0.4C1780.3,2085.6,1780.1,2085.8,1779.8,2085.8z"/>
			<path id="Rectangle_112" class="st12" d="M1742,2039.6h1.6c0.5,0,0.9,0.4,0.9,0.9l0,0c0,0.5-0.4,0.9-0.9,0.9h-1.6
				c-0.5,0-0.9-0.4-0.9-0.9l0,0C1741.1,2040,1741.5,2039.6,1742,2039.6z"/>
			<path id="Rectangle_113" class="st12" d="M1759.7,2039.6h1.6c0.5,0,0.9,0.4,0.9,0.9l0,0c0,0.5-0.4,0.9-0.9,0.9h-1.6
				c-0.5,0-0.9-0.4-0.9-0.9l0,0C1758.9,2040,1759.3,2039.6,1759.7,2039.6z"/>
			<path id="Rectangle_114" class="st12" d="M1764.7,2039.6h1.6c0.5,0,0.9,0.4,0.9,0.9l0,0c0,0.5-0.4,0.9-0.9,0.9h-1.6
				c-0.5,0-0.9-0.4-0.9-0.9l0,0C1763.9,2040,1764.3,2039.6,1764.7,2039.6z"/>
			<path id="Rectangle_115" class="st12" d="M1746.8,2039.4h9.6c0.5,0,0.9,0.4,0.9,0.9l0,0c0,0.5-0.4,0.9-0.9,0.9h-9.6
				c-0.5,0-0.9-0.4-0.9-0.9l0,0C1746,2039.8,1746.3,2039.4,1746.8,2039.4z"/>
			<path id="Rectangle_116" class="st12" d="M1770.5,2039.4h9.6c0.5,0,0.9,0.4,0.9,0.9l0,0c0,0.5-0.4,0.9-0.9,0.9h-9.6
				c-0.5,0-0.9-0.4-0.9-0.9l0,0C1769.6,2039.8,1770,2039.4,1770.5,2039.4z"/>
			<path id="Rectangle_117" class="st12" d="M1746.7,2043.4h1.6c0.5,0,0.9,0.4,0.9,0.9l0,0c0,0.5-0.4,0.9-0.9,0.9h-1.6
				c-0.5,0-0.9-0.4-0.9-0.9l0,0C1745.9,2043.8,1746.2,2043.4,1746.7,2043.4z"/>
			<path id="Rectangle_118" class="st12" d="M1764.5,2043.4h1.6c0.5,0,0.9,0.4,0.9,0.9l0,0c0,0.5-0.4,0.9-0.9,0.9h-1.6
				c-0.5,0-0.9-0.4-0.9-0.9l0,0C1763.6,2043.8,1764,2043.4,1764.5,2043.4z"/>
			<path id="Rectangle_119" class="st12" d="M1769.5,2043.4h1.6c0.5,0,0.9,0.4,0.9,0.9l0,0c0,0.5-0.4,0.9-0.9,0.9h-1.6
				c-0.5,0-0.9-0.4-0.9-0.9l0,0C1768.6,2043.8,1769,2043.4,1769.5,2043.4z"/>
			<path id="Rectangle_120" class="st12" d="M1751.5,2043.3h9.6c0.5,0,0.9,0.4,0.9,0.9l0,0c0,0.5-0.4,0.9-0.9,0.9h-9.6
				c-0.5,0-0.9-0.4-0.9-0.9l0,0C1750.7,2043.7,1751.1,2043.3,1751.5,2043.3z"/>
			<path id="Rectangle_121" class="st12" d="M1775.2,2043.3h9.6c0.5,0,0.9,0.4,0.9,0.9l0,0c0,0.5-0.4,0.9-0.9,0.9h-9.6
				c-0.5,0-0.9-0.4-0.9-0.9l0,0C1774.3,2043.7,1774.7,2043.3,1775.2,2043.3z"/>
			<path id="Rectangle_122" class="st12" d="M1751.4,2047.3h1.6c0.5,0,0.9,0.4,0.9,0.9l0,0c0,0.5-0.4,0.9-0.9,0.9h-1.6
				c-0.5,0-0.9-0.4-0.9-0.9l0,0C1750.6,2047.7,1751,2047.3,1751.4,2047.3z"/>
			<path id="Rectangle_123" class="st12" d="M1769.2,2047.3h1.6c0.5,0,0.9,0.4,0.9,0.9l0,0c0,0.5-0.4,0.9-0.9,0.9h-1.6
				c-0.5,0-0.9-0.4-0.9-0.9l0,0C1768.3,2047.7,1768.7,2047.3,1769.2,2047.3z"/>
			<path id="Rectangle_124" class="st12" d="M1774.2,2047.3h1.6c0.5,0,0.9,0.4,0.9,0.9l0,0c0,0.5-0.4,0.9-0.9,0.9h-1.6
				c-0.5,0-0.9-0.4-0.9-0.9l0,0C1773.4,2047.7,1773.7,2047.3,1774.2,2047.3z"/>
			<path id="Rectangle_125" class="st12" d="M1756.3,2047.1h9.6c0.5,0,0.9,0.4,0.9,0.9l0,0c0,0.5-0.4,0.9-0.9,0.9h-9.6
				c-0.5,0-0.9-0.4-0.9-0.9l0,0C1755.4,2047.5,1755.8,2047.1,1756.3,2047.1z"/>
			<path id="Rectangle_126" class="st12" d="M1779.9,2047.1h9.6c0.5,0,0.9,0.4,0.9,0.9l0,0c0,0.5-0.4,0.9-0.9,0.9h-9.6
				c-0.5,0-0.9-0.4-0.9-0.9l0,0C1779.1,2047.5,1779.4,2047.1,1779.9,2047.1z"/>
			<path id="Rectangle_127" class="st12" d="M1756.2,2051.1h1.6c0.5,0,0.9,0.4,0.9,0.9l0,0c0,0.5-0.4,0.9-0.9,0.9h-1.6
				c-0.5,0-0.9-0.4-0.9-0.9l0,0C1755.3,2051.5,1755.7,2051.1,1756.2,2051.1z"/>
			<path id="Rectangle_128" class="st12" d="M1773.9,2051.1h1.6c0.5,0,0.9,0.4,0.9,0.9l0,0c0,0.5-0.4,0.9-0.9,0.9h-1.6
				c-0.5,0-0.9-0.4-0.9-0.9l0,0C1773.1,2051.5,1773.4,2051.1,1773.9,2051.1z"/>
			<path id="Rectangle_129" class="st12" d="M1778.9,2051.1h1.6c0.5,0,0.9,0.4,0.9,0.9l0,0c0,0.5-0.4,0.9-0.9,0.9h-1.6
				c-0.5,0-0.9-0.4-0.9-0.9l0,0C1778.1,2051.5,1778.5,2051.1,1778.9,2051.1z"/>
			<path id="Rectangle_130" class="st12" d="M1761,2051h9.6c0.5,0,0.9,0.4,0.9,0.9l0,0c0,0.5-0.4,0.9-0.9,0.9h-9.6
				c-0.5,0-0.9-0.4-0.9-0.9l0,0C1760.1,2051.4,1760.5,2051,1761,2051z"/>
			<path id="Rectangle_131" class="st12" d="M1759.7,2066.4h1.6c0.5,0,0.9,0.4,0.9,0.9l0,0c0,0.5-0.4,0.9-0.9,0.9h-1.6
				c-0.5,0-0.9-0.4-0.9-0.9l0,0C1758.9,2066.8,1759.3,2066.4,1759.7,2066.4z"/>
			<path id="Rectangle_132" class="st12" d="M1764.7,2066.4h1.6c0.5,0,0.9,0.4,0.9,0.9l0,0c0,0.5-0.4,0.9-0.9,0.9h-1.6
				c-0.5,0-0.9-0.4-0.9-0.9l0,0C1763.9,2066.8,1764.3,2066.4,1764.7,2066.4z"/>
			<path id="Rectangle_133" class="st12" d="M1770.5,2066.5h9.6c0.5,0,0.9,0.4,0.9,0.9l0,0c0,0.5-0.4,0.9-0.9,0.9h-9.6
				c-0.5,0-0.9-0.4-0.9-0.9l0,0C1769.6,2066.9,1770,2066.5,1770.5,2066.5z"/>
			<path id="Rectangle_134" class="st12" d="M1742,2066.4h1.6c0.5,0,0.9,0.4,0.9,0.9l0,0c0,0.5-0.4,0.9-0.9,0.9h-1.6
				c-0.5,0-0.9-0.4-0.9-0.9l0,0C1741.1,2066.8,1741.5,2066.4,1742,2066.4z"/>
			<path id="Rectangle_135" class="st12" d="M1746.8,2066.5h9.6c0.5,0,0.9,0.4,0.9,0.9l0,0c0,0.5-0.4,0.9-0.9,0.9h-9.6
				c-0.5,0-0.9-0.4-0.9-0.9l0,0C1746,2066.9,1746.3,2066.5,1746.8,2066.5z"/>
			<path id="Rectangle_136" class="st12" d="M1746.7,2062.6h1.6c0.5,0,0.9,0.4,0.9,0.9l0,0c0,0.5-0.4,0.9-0.9,0.9h-1.6
				c-0.5,0-0.9-0.4-0.9-0.9l0,0C1745.9,2062.9,1746.2,2062.6,1746.7,2062.6z"/>
			<path id="Rectangle_137" class="st12" d="M1764.5,2062.6h1.6c0.5,0,0.9,0.4,0.9,0.9l0,0c0,0.5-0.4,0.9-0.9,0.9h-1.6
				c-0.5,0-0.9-0.4-0.9-0.9l0,0C1763.6,2062.9,1764,2062.6,1764.5,2062.6z"/>
			<path id="Rectangle_138" class="st12" d="M1769.5,2062.6h1.6c0.5,0,0.9,0.4,0.9,0.9l0,0c0,0.5-0.4,0.9-0.9,0.9h-1.6
				c-0.5,0-0.9-0.4-0.9-0.9l0,0C1768.6,2062.9,1769,2062.6,1769.5,2062.6z"/>
			<path id="Rectangle_139" class="st12" d="M1751.5,2062.7h9.6c0.5,0,0.9,0.4,0.9,0.9l0,0c0,0.5-0.4,0.9-0.9,0.9h-9.6
				c-0.5,0-0.9-0.4-0.9-0.9l0,0C1750.7,2063.1,1751.1,2062.7,1751.5,2062.7z"/>
			<path id="Rectangle_140" class="st12" d="M1751.4,2058.7h1.6c0.5,0,0.9,0.4,0.9,0.9l0,0c0,0.5-0.4,0.9-0.9,0.9h-1.6
				c-0.5,0-0.9-0.4-0.9-0.9l0,0C1750.6,2059.1,1751,2058.7,1751.4,2058.7z"/>
			<path id="Rectangle_141" class="st12" d="M1769.2,2058.7h1.6c0.5,0,0.9,0.4,0.9,0.9l0,0c0,0.5-0.4,0.9-0.9,0.9h-1.6
				c-0.5,0-0.9-0.4-0.9-0.9l0,0C1768.3,2059.1,1768.7,2058.7,1769.2,2058.7z"/>
			<path id="Rectangle_142" class="st12" d="M1774.2,2058.7h1.6c0.5,0,0.9,0.4,0.9,0.9l0,0c0,0.5-0.4,0.9-0.9,0.9h-1.6
				c-0.5,0-0.9-0.4-0.9-0.9l0,0C1773.4,2059.1,1773.7,2058.7,1774.2,2058.7z"/>
			<path id="Rectangle_143" class="st12" d="M1756.3,2058.9h9.6c0.5,0,0.9,0.4,0.9,0.9l0,0c0,0.5-0.4,0.9-0.9,0.9h-9.6
				c-0.5,0-0.9-0.4-0.9-0.9l0,0C1755.4,2059.2,1755.8,2058.9,1756.3,2058.9z"/>
			<path id="Rectangle_144" class="st12" d="M1756.2,2054.9h1.6c0.5,0,0.9,0.4,0.9,0.9l0,0c0,0.5-0.4,0.9-0.9,0.9h-1.6
				c-0.5,0-0.9-0.4-0.9-0.9l0,0C1755.3,2055.2,1755.7,2054.9,1756.2,2054.9z"/>
			<path id="Rectangle_145" class="st12" d="M1773.9,2054.9h1.6c0.5,0,0.9,0.4,0.9,0.9l0,0c0,0.5-0.4,0.9-0.9,0.9h-1.6
				c-0.5,0-0.9-0.4-0.9-0.9l0,0C1773.1,2055.2,1773.4,2054.9,1773.9,2054.9z"/>
			<path id="Rectangle_146" class="st12" d="M1778.9,2054.9h1.6c0.5,0,0.9,0.4,0.9,0.9l0,0c0,0.5-0.4,0.9-0.9,0.9h-1.6
				c-0.5,0-0.9-0.4-0.9-0.9l0,0C1778.1,2055.2,1778.5,2054.9,1778.9,2054.9z"/>
			<path id="Rectangle_147" class="st12" d="M1761,2055h9.6c0.5,0,0.9,0.4,0.9,0.9l0,0c0,0.5-0.4,0.9-0.9,0.9h-9.6
				c-0.5,0-0.9-0.4-0.9-0.9l0,0C1760.1,2055.4,1760.5,2055,1761,2055z"/>
			<path id="Path_147" class="st7" d="M1838.2,2084.5c0.5,1.4,1.9,2.4,3.4,2.4l14.4-0.4c1.5,0,2.9-1.1,3.3-2.5l2-21.9
				c0.7,0.3,1.5,0.5,2.3,0.5c2.9-0.1,5.2-2.6,5.1-5.5c-0.1-2.9-2.5-5.1-5.3-5.1c-0.3,0-0.6,0-0.9,0.1c-0.7-0.7-1.6-1.2-2.7-1.1
				l-22.2,0.6c-0.2,0-0.4,0-0.5,0.1c-1.9,0.4-3.1,2.2-2.8,4c0,0.2,0.1,0.3,0.1,0.5L1838.2,2084.5z M1861.7,2060.6l1.5-5.2
				c0.2-0.6,0.2-1.2,0-1.8c0.1,0,0.1,0,0.2,0c2.1-0.1,3.8,1.5,3.9,3.6c0.1,2.1-1.5,3.8-3.6,3.9c0,0-0.1,0-0.1,0
				C1862.9,2061.1,1862.3,2060.9,1861.7,2060.6L1861.7,2060.6z"/>
			<path id="Path_148" class="st4" d="M1837,2051.6c0.5,2.7,5.8,4.6,12.2,4.3c5.9-0.3,10.7-2.3,11.6-4.8c-0.3-0.1-0.7-0.1-1-0.1
				l-22.2,0.6C1837.3,2051.6,1837.1,2051.6,1837,2051.6z"/>
			<path id="Path_149" class="st5" d="M1850.3,2072.5C1850.4,2072.5,1850.4,2072.5,1850.3,2072.5l3.2-2.1c0.1-0.1,0.2-0.3,0.1-0.4
				c0,0,0-0.1-0.1-0.1l-3.3-2.1c-0.1-0.1-0.3,0-0.4,0.1c-0.1,0.1,0,0.3,0.1,0.4l2.9,1.9l-2.8,1.8c-0.1,0.1-0.2,0.3-0.1,0.4
				C1850.1,2072.5,1850.2,2072.5,1850.3,2072.5L1850.3,2072.5z"/>
			<path id="Path_150" class="st5" d="M1845.4,2072.7c0.1,0,0.2-0.2,0.2-0.3c0-0.1-0.1-0.1-0.1-0.2l-2.9-1.7l2.8-2.1
				c0.1-0.1,0.1-0.3,0.1-0.4c-0.1-0.1-0.3-0.1-0.4-0.1l0,0l-3.1,2.3c-0.1,0.1-0.1,0.3-0.1,0.4c0,0,0.1,0.1,0.1,0.1l3.3,1.9
				C1845.2,2072.7,1845.3,2072.7,1845.4,2072.7z"/>
			<path id="Path_151" class="st5" d="M1850,2074.3C1850,2074.3,1850.1,2074.3,1850,2074.3c0.2-0.1,0.2-0.3,0.2-0.4l-4.4-7.3
				c-0.1-0.1-0.3-0.2-0.4-0.1c-0.1,0.1-0.2,0.2-0.1,0.4l4.4,7.3C1849.8,2074.3,1849.9,2074.3,1850,2074.3z"/>
		</g>
		<g id="Group_12" transform="translate(-177 37.99)">
			<path id="Path_138" class="st7" d="M1564.5,2028v55.9h39.2V2028c0-0.8-0.5-1.6-1.3-1.8c-0.2-0.1-0.4-0.1-0.6-0.1h-35.4
				C1565.4,2026.1,1564.5,2027,1564.5,2028z M1579.8,2047.2c0-2.3,1.9-4.2,4.2-4.2s4.2,1.9,4.2,4.2l0,0v6.5c0,2.3-1.9,4.2-4.2,4.2
				s-4.2-1.9-4.2-4.2V2047.2z"/>
			<path id="Path_139" class="st4" d="M1564.4,2082.1v5.4c0,0.6,0.5,1.1,1.1,1.1h37.3c0.6,0,1.1-0.5,1.1-1.1v-5.4H1564.4z"/>
			<path id="Path_140" class="st4" d="M1502.9,1943.8v102.1c0,2.7,2.2,4.9,4.9,4.9h151.3c2.7,0,4.9-2.2,4.9-4.9v-102.1
				c0-2.7-2.2-4.9-4.9-4.9h-151.3C1505.1,1938.9,1502.9,1941,1502.9,1943.8z"/>
			<path id="Path_141" class="st1" d="M1506.4,1945v99.6c0,1.4,1.2,2.6,2.6,2.6h148.8c1.4,0,2.6-1.2,2.6-2.6V1945
				c0-1.4-1.2-2.6-2.6-2.6h-148.8C1507.6,1942.4,1506.4,1943.6,1506.4,1945z"/>
			<path id="Path_142" class="st7" d="M1534,2088.2c0.3,0.4,0.8,0.6,1.3,0.6h88.5c0.9,0,1.6-0.7,1.6-1.6c0-0.1,0-0.2,0-0.3l-1.4-6.5
				c-0.1-0.5-0.5-1-1-1.2c-0.2-0.1-0.4-0.1-0.6-0.1h-85.8c-0.2,0-0.4,0-0.6,0.1c-0.5,0.2-0.9,0.6-1,1.2l-1.4,6.5
				C1533.6,2087.3,1533.7,2087.8,1534,2088.2z"/>
			<path id="Path_143" class="st2" d="M1653,1956.1h-139.2c-0.3,0-0.6-0.2-0.6-0.5c0-0.3,0.2-0.6,0.5-0.6c0,0,0,0,0,0H1653
				c0.3,0,0.6,0.2,0.6,0.5C1653.6,1955.8,1653.4,1956.1,1653,1956.1C1653,1956.1,1653,1956.1,1653,1956.1z"/>
			<path id="Path_144" class="st3" d="M1646.3,1946.4h-8c-0.3,0-0.6,0.3-0.6,0.6c0,0.3,0.3,0.6,0.6,0.6h8c0.3,0,0.6-0.3,0.6-0.6
				S1646.6,1946.4,1646.3,1946.4L1646.3,1946.4z"/>
			<path id="Path_145" class="st3" d="M1646.3,1948.6h-8c-0.3,0-0.6,0.3-0.6,0.6s0.3,0.6,0.6,0.6l0,0h8c0.3,0,0.6-0.3,0.6-0.6
				C1646.9,1948.9,1646.6,1948.6,1646.3,1948.6L1646.3,1948.6z"/>
			<path id="Path_146" class="st3" d="M1646.3,1950.9h-8c-0.3,0-0.6,0.3-0.6,0.6c0,0.3,0.3,0.6,0.6,0.6h8c0.3,0,0.6-0.3,0.6-0.6
				S1646.6,1950.9,1646.3,1950.9L1646.3,1950.9z"/>
			<g class="st8">
				<path id="Rectangle_148" class="st10" d="M1577.1,1986.2h21.7c1.6,0,3,1.3,3,3l0,0c0,1.6-1.3,3-3,3h-21.7c-1.6,0-3-1.3-3-3l0,0
					C1574.2,1987.5,1575.5,1986.2,1577.1,1986.2z"/>
				<path id="Rectangle_149" class="st13" d="M1563.1,1998h49.8c1.6,0,3,1.3,3,3l0,0c0,1.6-1.3,3-3,3h-49.8c-1.6,0-3-1.3-3-3l0,0
					C1560.1,1999.4,1561.4,1998,1563.1,1998z"/>
				<path id="Rectangle_150" class="st13" d="M1563.1,2009.9h49.8c1.6,0,3,1.3,3,3l0,0c0,1.6-1.3,3-3,3h-49.8c-1.6,0-3-1.3-3-3l0,0
					C1560.1,2011.2,1561.4,2009.9,1563.1,2009.9z"/>
			</g>
		</g>
	</g>
</g>
<g id="Edits">
	<g id="Doc_Manipulation">
		<path class="st14" d="M450,355h-44.1c-1.9,0-3.4-1.5-3.4-3.4v-58c0-1.9,1.5-3.4,3.4-3.4H450c1.9,0,3.4,1.5,3.4,3.4v58
			C453.4,353.5,451.9,355,450,355z"/>
		<g>
			<circle class="st5" cx="453.2" cy="294.4" r="11.8"/>
			<g id="Cog">
				<path class="st1" d="M454.9,286.6l0.4,2.3c0.5,0.2,1.1,0.5,1.6,0.9l1.7-0.6l0.5-0.1l1.7,2.9l-1.7,1.5l0,0.2
					c0.1,0.3,0.1,0.6,0.1,0.8s0,0.4-0.1,0.8l0,0.2l1.7,1.5l-1.7,2.9l-0.5-0.1l-1.7-0.6c-0.5,0.4-1,0.7-1.6,0.9l-0.4,2.3h-3.4
					l-0.4-2.3c-0.5-0.2-1.1-0.5-1.6-0.9l-1.7,0.6l-0.5,0.1l-1.7-2.9l1.7-1.5l0-0.2c-0.1-0.3-0.1-0.6-0.1-0.8s0-0.4,0.1-0.8l0-0.2
					l-1.7-1.5l1.7-2.9l0.5,0.1l1.7,0.6c0.5-0.4,1-0.7,1.6-0.9l0.4-1.8l0.1-0.5H454.9z M452.2,289.4l-0.1,0.4l-0.3,0.1
					c-0.7,0.2-1.3,0.6-1.8,1l-0.3,0.2l-1.9-0.6l-0.7,1.2l1.2,1.1l0.3,0.2l-0.1,0.4c-0.1,0.3-0.1,0.7-0.1,1s0,0.7,0.1,1l0.1,0.4
					l-0.3,0.2l-1.2,1.1l0.7,1.2l1.9-0.6l0.3,0.2c0.5,0.5,1.1,0.8,1.8,1l0.3,0.1l0.4,1.9h1.4l0.4-1.9l0.3-0.1c0.7-0.2,1.3-0.6,1.8-1
					l0.3-0.2l1.9,0.6l0.7-1.2l-1.5-1.3l0.1-0.4c0.1-0.3,0.1-0.7,0.1-1s0-0.7-0.1-1l-0.1-0.4l0.3-0.2l1.2-1.1l-0.7-1.2l-1.9,0.6
					l-0.3-0.2c-0.5-0.5-1.1-0.8-1.8-1l-0.3-0.1l-0.4-1.9h-1.4L452.2,289.4z M454.7,291.8c0.5,0.3,0.8,0.6,1.1,1.1
					c0.3,0.5,0.4,1,0.4,1.5s-0.1,1-0.4,1.5c-0.3,0.5-0.6,0.8-1.1,1.1c-0.5,0.3-1,0.4-1.5,0.4s-1-0.1-1.5-0.4
					c-0.5-0.3-0.8-0.6-1.1-1.1c-0.3-0.5-0.4-1-0.4-1.5s0.1-1,0.4-1.5c0.3-0.5,0.6-0.8,1.1-1.1c0.5-0.3,1-0.4,1.5-0.4
					S454.3,291.6,454.7,291.8z M451.9,293.2c-0.3,0.3-0.5,0.8-0.5,1.3s0.2,0.9,0.5,1.3s0.8,0.5,1.3,0.5s0.9-0.2,1.3-0.5
					s0.5-0.8,0.5-1.3s-0.2-0.9-0.5-1.3s-0.8-0.5-1.3-0.5S452.3,292.8,451.9,293.2z"/>
			</g>
		</g>
		<g>
			<path class="st5" d="M441.8,308.3h-27.7c-0.3,0-0.6-0.3-0.6-0.6l0,0c0-0.3,0.3-0.6,0.6-0.6h27.7c0.3,0,0.6,0.3,0.6,0.6l0,0
				C442.4,308,442.2,308.3,441.8,308.3z"/>
			<path class="st5" d="M441.8,312.5h-27.7c-0.3,0-0.6-0.3-0.6-0.6l0,0c0-0.3,0.3-0.6,0.6-0.6h27.7c0.3,0,0.6,0.3,0.6,0.6l0,0
				C442.4,312.3,442.2,312.5,441.8,312.5z"/>
			<path class="st5" d="M427.6,316.9h-13.5c-0.3,0-0.6-0.3-0.6-0.6l0,0c0-0.3,0.3-0.6,0.6-0.6h13.5c0.3,0,0.6,0.3,0.6,0.6l0,0
				C428.2,316.6,427.9,316.9,427.6,316.9z"/>
		</g>
		<g id="Pencil">
			<path class="st15" d="M466.2,322.2c0.2,0.1,0.3,0.2,0.5,0.3c0.2,0.2,0.3,0.4,0.4,0.7s0.1,0.5,0,0.8c-0.1,0.3-0.2,0.5-0.4,0.7
				l-5.8,5.8l-2.1,0.4l-0.5,0.1l0.1-0.5l0.4-2.1l5.8-5.8c0.1-0.1,0.3-0.3,0.5-0.3c0.2-0.1,0.4-0.1,0.6-0.1
				C465.8,322.1,466,322.1,466.2,322.2z M459.2,330.1l1.2-0.2c-0.1-0.2-0.2-0.4-0.4-0.6c-0.2-0.2-0.4-0.3-0.6-0.4L459.2,330.1z
				 M459.9,328.3c0.5,0.2,0.8,0.6,1.1,1.1l4.5-4.5l-1.1-1.1L459.9,328.3z M465.1,323l-0.3,0.3l1.1,1.1l0.3-0.3
				c0.2-0.2,0.3-0.4,0.3-0.6s-0.1-0.4-0.3-0.6c-0.2-0.2-0.4-0.3-0.6-0.3C465.5,322.8,465.3,322.9,465.1,323z"/>
		</g>
		<path id="Path_143_1_" class="st2" d="M500,361.9H360.8c-0.3,0-0.6-0.2-0.6-0.5s0.2-0.6,0.5-0.6c0,0,0,0,0,0H500
			c0.3,0,0.6,0.2,0.6,0.5S500.4,361.9,500,361.9C500,361.9,500,361.9,500,361.9z"/>
		<path class="st5" d="M441.3,343h-26.7c-0.6,0-1.1-0.5-1.1-1.1v-17.2c0-0.6,0.5-1.1,1.1-1.1h26.7c0.6,0,1.1,0.5,1.1,1.1v17.2
			C442.4,342.5,441.9,343,441.3,343z"/>
		<g id="Editor">
			<path class="st16" d="M390.5,313.8l-1,1c-0.2,0.2-0.4,0.3-0.6,0.3h-4.5c-0.5,0-0.9,0.4-0.9,0.9v8.3c0,0.5,0.4,0.9,0.9,0.9h8.3
				c0.5,0,0.9-0.4,0.9-0.9v-4.5c0-0.2,0.1-0.5,0.3-0.6l1-1v7.5c0,0.5-0.4,0.9-0.9,0.9H383c-0.5,0-0.9-0.4-0.9-0.9v-10.9
				c0-0.5,0.4-0.9,0.9-0.9H390.5z M396.7,311.9c0.4,0.4,0.6,0.8,0.6,1.3c0,0.5-0.2,1-0.6,1.3l-6.2,6.2c-0.1,0.1-0.3,0.2-0.5,0.3
				l-2.1,0.4l-0.9,0.2l0.2-0.9l0.4-2.1c0-0.2,0.1-0.3,0.3-0.5l6.2-6.2c0.4-0.4,0.8-0.6,1.3-0.6C395.9,311.3,396.4,311.5,396.7,311.9
				z M395,312.8l-6,6c-0.1,0.1-0.2,0.3-0.2,0.5l-0.2,0.8l0.8-0.2c0.2,0,0.3-0.1,0.5-0.2l6-6c0.1-0.1,0.2-0.3,0.2-0.4
				c0-0.1-0.1-0.3-0.2-0.4s-0.3-0.2-0.4-0.2C395.3,312.6,395.1,312.6,395,312.8z"/>
		</g>
		<g id="Magnifier">
			<path class="st2" d="M426.6,327c0.9,0,1.7,0.2,2.5,0.7c0.7,0.4,1.3,1,1.8,1.8c0.5,0.8,0.7,1.6,0.7,2.5c0,0.6-0.1,1.1-0.3,1.7
				c-0.2,0.5-0.5,1-0.8,1.4c0,0,2.9,2.9,3.9,3.9c0.5,0.5-0.2,1.2-0.7,0.7c-1-1-3.9-3.9-3.9-3.9c-0.4,0.3-0.9,0.6-1.4,0.8
				c-0.5,0.2-1.1,0.3-1.7,0.3c-0.9,0-1.7-0.2-2.5-0.7c-0.7-0.4-1.3-1-1.8-1.8c-0.5-0.8-0.7-1.6-0.7-2.5c0-0.9,0.2-1.7,0.7-2.5
				c0.4-0.7,1-1.3,1.8-1.8C424.8,327.2,425.7,327,426.6,327z M426.6,327.9c-0.7,0-1.4,0.2-2,0.5c-0.6,0.4-1.1,0.8-1.4,1.4
				c-0.4,0.6-0.5,1.3-0.5,2c0,0.7,0.2,1.4,0.5,2c0.4,0.6,0.8,1.1,1.4,1.4c0.6,0.4,1.3,0.5,2,0.5s1.4-0.2,2-0.5
				c0.6-0.4,1.1-0.8,1.4-1.4c0.4-0.6,0.5-1.3,0.5-2c0-0.7-0.2-1.4-0.5-2c-0.4-0.6-0.8-1.1-1.4-1.4
				C427.9,328.1,427.3,327.9,426.6,327.9z"/>
		</g>
		<g id="Smal_Icons">
			<path class="st17" d="M397,350.5c0-0.1,0.1-0.2,0.2-0.2c0.1,0,0.2,0.1,0.2,0.2v0.8c0,0.1-0.1,0.2-0.2,0.2c-0.1,0-0.2-0.1-0.2-0.2
				V350.5L397,350.5z M395.7,351.1c-0.1-0.1-0.1-0.2,0-0.3s0.2-0.1,0.3,0l0.6,0.6c0.1,0.1,0.1,0.2,0,0.3c-0.1,0.1-0.2,0.1-0.3,0
				L395.7,351.1L395.7,351.1z M395.3,352.5c-0.1,0-0.2-0.1-0.2-0.2s0.1-0.2,0.2-0.2h0.8c0.1,0,0.2,0.1,0.2,0.2s-0.1,0.2-0.2,0.2
				H395.3L395.3,352.5z M396,353.7c-0.1,0.1-0.2,0.1-0.3,0c-0.1-0.1-0.1-0.2,0-0.3l0.6-0.6c0.1-0.1,0.2-0.1,0.3,0
				c0.1,0.1,0.1,0.2,0,0.3L396,353.7L396,353.7z M397.3,354.1c0,0.1-0.1,0.2-0.2,0.2c-0.1,0-0.2-0.1-0.2-0.2v-0.8
				c0-0.1,0.1-0.2,0.2-0.2c0.1,0,0.2,0.1,0.2,0.2V354.1L397.3,354.1z M398.6,353.5c0.1,0.1,0.1,0.2,0,0.3c-0.1,0.1-0.2,0.1-0.3,0
				l-0.6-0.6c-0.1-0.1-0.1-0.2,0-0.3c0.1-0.1,0.2-0.1,0.3,0L398.6,353.5L398.6,353.5z M399,352.1c0.1,0,0.2,0.1,0.2,0.2
				s-0.1,0.2-0.2,0.2h-0.8c-0.1,0-0.2-0.1-0.2-0.2s0.1-0.2,0.2-0.2H399L399,352.1z M398.3,350.9c0.1-0.1,0.2-0.1,0.3,0
				s0.1,0.2,0,0.3l-0.6,0.6c-0.1,0.1-0.2,0.1-0.3,0c-0.1-0.1-0.1-0.2,0-0.3L398.3,350.9z"/>
			<path class="st18" d="M459,335.7c0-0.1,0.1-0.2,0.2-0.2c0.1,0,0.2,0.1,0.2,0.2v1c0,0.1-0.1,0.2-0.2,0.2c-0.1,0-0.2-0.1-0.2-0.2
				V335.7L459,335.7z M457.4,336.5c-0.1-0.1-0.1-0.2,0-0.3s0.2-0.1,0.3,0l0.7,0.7c0.1,0.1,0.1,0.2,0,0.3c-0.1,0.1-0.2,0.1-0.3,0
				L457.4,336.5L457.4,336.5z M456.9,338.2c-0.1,0-0.2-0.1-0.2-0.2c0-0.1,0.1-0.2,0.2-0.2h1c0.1,0,0.2,0.1,0.2,0.2
				c0,0.1-0.1,0.2-0.2,0.2H456.9L456.9,338.2z M457.7,339.8c-0.1,0.1-0.2,0.1-0.3,0s-0.1-0.2,0-0.3l0.7-0.7c0.1-0.1,0.2-0.1,0.3,0
				c0.1,0.1,0.1,0.2,0,0.3L457.7,339.8L457.7,339.8z M459.5,340.3c0,0.1-0.1,0.2-0.2,0.2c-0.1,0-0.2-0.1-0.2-0.2v-1
				c0-0.1,0.1-0.2,0.2-0.2c0.1,0,0.2,0.1,0.2,0.2V340.3L459.5,340.3z M461,339.5c0.1,0.1,0.1,0.2,0,0.3c-0.1,0.1-0.2,0.1-0.3,0
				l-0.7-0.7c-0.1-0.1-0.1-0.2,0-0.3c0.1-0.1,0.2-0.1,0.3,0L461,339.5L461,339.5z M461.5,337.8c0.1,0,0.2,0.1,0.2,0.2
				c0,0.1-0.1,0.2-0.2,0.2h-1c-0.1,0-0.2-0.1-0.2-0.2c0-0.1,0.1-0.2,0.2-0.2H461.5L461.5,337.8z M460.7,336.2c0.1-0.1,0.2-0.1,0.3,0
				c0.1,0.1,0.1,0.2,0,0.3l-0.7,0.7c-0.1,0.1-0.2,0.1-0.3,0c-0.1-0.1-0.1-0.2,0-0.3L460.7,336.2z"/>
			<path class="st19" d="M470.3,294.5c0-0.1,0.1-0.2,0.2-0.2c0.1,0,0.2,0.1,0.2,0.2v0.7c0,0.1-0.1,0.2-0.2,0.2
				c-0.1,0-0.2-0.1-0.2-0.2V294.5L470.3,294.5z M469.2,295.1c-0.1-0.1-0.1-0.2,0-0.2c0.1-0.1,0.2-0.1,0.2,0l0.5,0.5
				c0.1,0.1,0.1,0.2,0,0.2c-0.1,0.1-0.2,0.1-0.2,0L469.2,295.1L469.2,295.1z M468.9,296.3c-0.1,0-0.2-0.1-0.2-0.2
				c0-0.1,0.1-0.2,0.2-0.2h0.7c0.1,0,0.2,0.1,0.2,0.2c0,0.1-0.1,0.2-0.2,0.2H468.9L468.9,296.3z M469.5,297.4
				c-0.1,0.1-0.2,0.1-0.2,0c-0.1-0.1-0.1-0.2,0-0.2l0.5-0.5c0.1-0.1,0.2-0.1,0.2,0c0.1,0.1,0.1,0.2,0,0.2L469.5,297.4L469.5,297.4z
				 M470.7,297.8c0,0.1-0.1,0.2-0.2,0.2c-0.1,0-0.2-0.1-0.2-0.2v-0.7c0-0.1,0.1-0.2,0.2-0.2c0.1,0,0.2,0.1,0.2,0.2V297.8
				L470.7,297.8z M471.8,297.2c0.1,0.1,0.1,0.2,0,0.2s-0.2,0.1-0.2,0l-0.5-0.5c-0.1-0.1-0.1-0.2,0-0.2c0.1-0.1,0.2-0.1,0.2,0
				L471.8,297.2L471.8,297.2z M472.2,296c0.1,0,0.2,0.1,0.2,0.2c0,0.1-0.1,0.2-0.2,0.2h-0.7c-0.1,0-0.2-0.1-0.2-0.2
				c0-0.1,0.1-0.2,0.2-0.2H472.2L472.2,296z M471.6,294.9c0.1-0.1,0.2-0.1,0.2,0c0.1,0.1,0.1,0.2,0,0.2l-0.5,0.5
				c-0.1,0.1-0.2,0.1-0.2,0c-0.1-0.1-0.1-0.2,0-0.2L471.6,294.9z"/>
			<g id="Ellipse_5_3_">
				<ellipse class="st20" cx="460.8" cy="313.8" rx="1.9" ry="1.9"/>
			</g>
			<path class="st21" d="M384.4,331.1c0-0.1,0.1-0.1,0.1-0.1s0.1,0.1,0.1,0.1v0.6c0,0.1-0.1,0.1-0.1,0.1s-0.1-0.1-0.1-0.1V331.1
				L384.4,331.1z M383.4,331.6c-0.1-0.1-0.1-0.1,0-0.2c0.1-0.1,0.1-0.1,0.2,0l0.4,0.4c0.1,0.1,0.1,0.1,0,0.2c-0.1,0.1-0.1,0.1-0.2,0
				L383.4,331.6L383.4,331.6z M383.1,332.6c-0.1,0-0.1-0.1-0.1-0.1s0.1-0.1,0.1-0.1h0.6c0.1,0,0.1,0.1,0.1,0.1s-0.1,0.1-0.1,0.1
				H383.1L383.1,332.6z M383.6,333.5c-0.1,0.1-0.1,0.1-0.2,0c-0.1-0.1-0.1-0.1,0-0.2l0.4-0.4c0.1-0.1,0.1-0.1,0.2,0
				c0.1,0.1,0.1,0.1,0,0.2L383.6,333.5L383.6,333.5z M384.6,333.8c0,0.1-0.1,0.1-0.1,0.1s-0.1-0.1-0.1-0.1v-0.6
				c0-0.1,0.1-0.1,0.1-0.1s0.1,0.1,0.1,0.1V333.8L384.6,333.8z M385.5,333.3c0.1,0.1,0.1,0.1,0,0.2c-0.1,0.1-0.1,0.1-0.2,0l-0.4-0.4
				c-0.1-0.1-0.1-0.1,0-0.2c0.1-0.1,0.1-0.1,0.2,0L385.5,333.3L385.5,333.3z M385.8,332.3c0.1,0,0.1,0.1,0.1,0.1s-0.1,0.1-0.1,0.1
				h-0.6c-0.1,0-0.1-0.1-0.1-0.1s0.1-0.1,0.1-0.1H385.8L385.8,332.3z M385.4,331.4c0.1-0.1,0.1-0.1,0.2,0c0.1,0.1,0.1,0.1,0,0.2
				l-0.4,0.4c-0.1,0.1-0.1,0.1-0.2,0c-0.1-0.1-0.1-0.1,0-0.2L385.4,331.4z"/>
			<path class="st22" d="M393.2,339.4v-2.1c0-0.5,0.4-0.9,0.9-0.9h2.1c0.5,0,0.9,0.4,0.9,0.9v2.1c0,0.5-0.4,0.9-0.9,0.9h-2.1
				C393.6,340.4,393.2,339.9,393.2,339.4z"/>
			<path class="st23" d="M389.1,309.4v-1.1c0-0.3,0.2-0.5,0.5-0.5h1.1c0.3,0,0.5,0.2,0.5,0.5v1.1c0,0.3-0.2,0.5-0.5,0.5h-1.1
				C389.4,309.9,389.1,309.7,389.1,309.4z"/>
			<path class="st24" d="M463.2,348.3v-1.9c0-0.5,0.3-0.8,0.8-0.8h1.8c0.4,0,0.8,0.4,0.8,0.8v1.9c0,0.5-0.3,0.8-0.8,0.8H464
				C463.5,349.1,463.2,348.7,463.2,348.3z"/>
			<g id="Ellipse_5_1_">
				<ellipse class="st25" cx="396.6" cy="298.8" rx="1.3" ry="1.3"/>
			</g>
		</g>
	</g>
	<g id="Main_Docs">
		<path class="st26" d="M322.2,295.5h-81.1c-3.1,0-5.6-2.5-5.6-5.6V186c0-3.1,2.5-5.6,5.6-5.6h81.1c3.1,0,5.6,2.5,5.6,5.6v103.9
			C327.8,293,325.3,295.5,322.2,295.5z"/>
		<g>
			<path class="st27" d="M331.9,304.5h-82.4c-3.1,0-5.7-2.5-5.7-5.7V194.5c0-3.1,2.5-5.7,5.7-5.7h82.4c3.1,0,5.7,2.5,5.7,5.7v104.3
				C337.6,301.9,335,304.5,331.9,304.5z"/>
		</g>
		<g>
			<g>
				<path class="st5" d="M287.4,235.8h-30.4c-0.7,0-1.3-0.6-1.3-1.3l0,0c0-0.7,0.6-1.3,1.3-1.3h30.4c0.7,0,1.3,0.6,1.3,1.3l0,0
					C288.6,235.3,288.1,235.8,287.4,235.8z"/>
				<path class="st5" d="M324.4,225.9H257c-0.7,0-1.3-0.6-1.3-1.3l0,0c0-0.7,0.6-1.3,1.3-1.3h67.5c0.7,0,1.3,0.6,1.3,1.3l0,0
					C325.7,225.4,325.2,225.9,324.4,225.9z"/>
				<path class="st5" d="M324.5,216H257c-0.7,0-1.3-0.6-1.3-1.3l0,0c0-0.7,0.6-1.3,1.3-1.3h67.5c0.7,0,1.3,0.6,1.3,1.3l0,0
					C325.8,215.5,325.2,216,324.5,216z"/>
			</g>
			<g>
				<g>
					<path class="st5" d="M287.4,253.2h-30.4c-0.7,0-1.3-0.6-1.3-1.3l0,0c0-0.7,0.6-1.3,1.3-1.3h30.4c0.7,0,1.3,0.6,1.3,1.3l0,0
						C288.6,252.6,288.1,253.2,287.4,253.2z"/>
					<path class="st5" d="M287.4,264.4h-30.4c-0.7,0-1.3-0.6-1.3-1.3l0,0c0-0.7,0.6-1.3,1.3-1.3h30.4c0.7,0,1.3,0.6,1.3,1.3l0,0
						C288.6,263.9,288.1,264.4,287.4,264.4z"/>
					<path class="st5" d="M287.4,275.7h-30.4c-0.7,0-1.3-0.6-1.3-1.3l0,0c0-0.7,0.6-1.3,1.3-1.3h30.4c0.7,0,1.3,0.6,1.3,1.3l0,0
						C288.6,275.1,288.1,275.7,287.4,275.7z"/>
				</g>
				<g>
					<circle id="Ellipse_44" class="st5" cx="325.1" cy="251.2" r="4.1"/>
					<path id="Path_395" class="st1" d="M324.6,252.8c-0.1,0-0.2,0-0.3-0.1l0,0l-1-0.7c-0.2-0.1-0.2-0.4-0.1-0.6
						c0.1-0.2,0.4-0.2,0.6-0.1l0.6,0.5l1.5-1.9c0.1-0.2,0.4-0.2,0.6-0.1c0,0,0,0,0,0l0,0l0,0l0,0c0.2,0.1,0.2,0.4,0.1,0.6l-1.7,2.3
						C324.9,252.7,324.8,252.8,324.6,252.8L324.6,252.8z"/>
					<circle id="Ellipse_44-2" class="st5" cx="325.1" cy="262.9" r="4.1"/>
					<path id="Path_395-4" class="st1" d="M324.6,264.4c-0.1,0-0.2,0-0.3-0.1l0,0l-1-0.7c-0.2-0.1-0.2-0.4-0.1-0.6
						c0.1-0.2,0.4-0.2,0.6-0.1l0.6,0.5l1.5-1.9c0.1-0.2,0.4-0.2,0.6-0.1c0,0,0,0,0,0l0,0l0,0l0,0c0.2,0.1,0.2,0.4,0.1,0.6l-1.7,2.3
						C324.9,264.4,324.8,264.4,324.6,264.4L324.6,264.4z"/>
					<circle id="Ellipse_44-3" class="st5" cx="325.1" cy="274.5" r="4.1"/>
					<path id="Path_395-5" class="st1" d="M324.6,276.1c-0.1,0-0.2,0-0.3-0.1l0,0l-1-0.7c-0.2-0.1-0.2-0.4-0.1-0.6
						c0.1-0.2,0.4-0.2,0.6-0.1l0.6,0.5l1.5-1.9c0.1-0.2,0.4-0.2,0.6-0.1c0,0,0,0,0,0l0,0l0,0l0,0c0.2,0.1,0.2,0.4,0.1,0.6l-1.7,2.3
						C324.9,276,324.8,276.1,324.6,276.1L324.6,276.1z"/>
				</g>
			</g>
		</g>
		<g>
			<g>
				<polygon class="st28" points="243.4,298.4 232.8,293.6 243.4,293.6 				"/>
				<path class="st5" d="M260.5,293.7h-27.3c-0.7,0-1.3-0.6-1.3-1.3v-8.6c0-0.7,0.6-1.3,1.3-1.3h27.3c0.7,0,1.3,0.6,1.3,1.3v8.6
					C261.8,293.1,261.2,293.7,260.5,293.7z"/>
			</g>
			<g>
				<path class="st1" d="M251.9,288.7h-16.4c-0.3,0-0.6-0.3-0.6-0.6l0,0c0-0.3,0.3-0.6,0.6-0.6h16.4c0.3,0,0.6,0.3,0.6,0.6l0,0
					C252.5,288.4,252.2,288.7,251.9,288.7z"/>
				<path class="st1" d="M258.1,288.7h-2.5c-0.3,0-0.6-0.3-0.6-0.6l0,0c0-0.3,0.3-0.6,0.6-0.6h2.5c0.3,0,0.6,0.3,0.6,0.6l0,0
					C258.7,288.4,258.4,288.7,258.1,288.7z"/>
			</g>
		</g>
	</g>
	<g id="Mobile">
		<path class="st29" d="M303.5,417.1H269c-3,0-5.5-2.5-5.5-5.5v-61.8c0-3,2.5-5.5,5.5-5.5h34.5c3,0,5.5,2.5,5.5,5.5v61.8
			C309,414.6,306.5,417.1,303.5,417.1z"/>
		<circle class="st5" cx="286.3" cy="348.6" r="1.1"/>
		<circle class="st5" cx="286.8" cy="411.6" r="2.6"/>
		<path class="st5" d="M303.7,383.7h-34.1c-0.5,0-1-0.4-1-1v-25c0-0.5,0.4-1,1-1h34.1c0.5,0,1,0.4,1,1v25
			C304.7,383.2,304.2,383.7,303.7,383.7z"/>
		<path class="st5" d="M303.6,402h-34c-0.6,0-1-0.5-1-1v-12.3c0-0.6,0.5-1,1-1h34c0.6,0,1,0.5,1,1V401
			C304.7,401.6,304.2,402,303.6,402z"/>
		<path class="st0" d="M299.4,393.7h-26c-0.6,0-1-0.5-1-1l0,0c0-0.6,0.5-1,1-1h26c0.6,0,1,0.5,1,1l0,0
			C300.4,393.2,300,393.7,299.4,393.7z"/>
		<path class="st0" d="M292.5,398.7h-19.1c-0.6,0-1-0.5-1-1l0,0c0-0.6,0.5-1,1-1h19.1c0.6,0,1,0.5,1,1l0,0
			C293.6,398.3,293.1,398.7,292.5,398.7z"/>
		<g>
			<path class="st0" d="M290.4,361.3c1.1,0.5,2.2,1.1,3,2l-1,1c-0.7-0.7-1.6-1.3-2.5-1.7c-1-0.4-2-0.6-3.1-0.6
				c-1.5,0-2.9,0.4-4.1,1.1c-1.2,0.7-2.2,1.7-2.9,2.9c-0.7,1.3-1.1,2.6-1.1,4.1c0,1.5,0.4,2.9,1.1,4.1c0.7,1.2,1.7,2.2,2.9,2.9
				c1.3,0.7,2.6,1.1,4.1,1.1c1.5,0,2.9-0.4,4.1-1.1c1.2-0.7,2.2-1.7,2.9-2.9c0.7-1.3,1.1-2.6,1.1-4.1c0-0.6-0.1-1.2-0.2-1.8l1.2-1.2
				c0.3,0.9,0.5,1.9,0.5,3c0,1.7-0.4,3.4-1.3,4.9c-0.8,1.4-2,2.6-3.4,3.4c-1.5,0.9-3.1,1.3-4.9,1.3c-1.7,0-3.4-0.4-4.9-1.3
				c-1.4-0.8-2.6-2-3.4-3.4c-0.9-1.5-1.3-3.1-1.3-4.9s0.4-3.4,1.3-4.9c0.8-1.4,2-2.6,3.4-3.4c1.5-0.9,3.1-1.3,4.9-1.3
				C288,360.6,289.3,360.8,290.4,361.3z M296.2,364.8l-8.9,8.9l-0.5,0.5l-0.5-0.5l-3.7-3.7l1.1-1.1l3.2,3.2l8.3-8.3L296.2,364.8z"/>
		</g>
	</g>
</g>
</svg>
