<svg xmlns="http://www.w3.org/2000/svg" width="554" height="497" viewBox="0 0 554 497">
  <g id="Group_206" data-name="Group 206" transform="translate(-976 -1715)">
    <rect id="Rectangle_63" data-name="Rectangle 63" width="554" height="497" rx="10" transform="translate(976 1715)" fill="#f1f3ff"/>
    <rect id="Rectangle_64" data-name="Rectangle 64" width="166" height="165" rx="10" transform="translate(1180 1880)" fill="#fff"/>
    <g id="Group_205" data-name="Group 205">
      <g id="Group_10" data-name="Group 10" transform="translate(1016.226 1749.563)">
        <path id="Path_12" data-name="Path 12" d="M372.388,314.457a4.851,4.851,0,1,0,0,9.7h60.976v-2.116a9.082,9.082,0,0,1,4.088-7.586Z" transform="translate(-268.721 -182.708)" fill="#e6e6e6"/>
        <path id="Path_13" data-name="Path 13" d="M450.508,290.159H429.892a4.851,4.851,0,1,1,0-9.7h20.616a4.851,4.851,0,0,1,0,9.7Z" transform="translate(-291.356 -169.325)" fill="#e6e6e6"/>
        <path id="Path_14" data-name="Path 14" d="M335.677,233.159h-80.04a4.851,4.851,0,0,1,0-9.7h80.04a4.851,4.851,0,0,1,0,9.7Z" transform="translate(-222.764 -146.888)" fill="#e6e6e6"/>
        <path id="Path_15" data-name="Path 15" d="M323.445,199.159H313.137a4.851,4.851,0,1,1,0-9.7h10.308a4.851,4.851,0,1,1,0,9.7Z" transform="translate(-245.398 -133.504)" fill="#e6e6e6"/>
        <path id="Path_16" data-name="Path 16" d="M419.417,384.485H343.962a10.32,10.32,0,0,1-10.308-10.308V254.819a10.32,10.32,0,0,1,10.308-10.308h120.53A10.32,10.32,0,0,1,474.8,254.819V284.4h-1.213V254.819a9.106,9.106,0,0,0-9.1-9.1H343.962a9.106,9.106,0,0,0-9.1,9.1V374.177a9.106,9.106,0,0,0,9.1,9.1h75.455Z" transform="translate(-255.383 -155.175)" fill="#ccc"/>
        <path id="Path_17" data-name="Path 17" d="M292.256,281.127h-55a10.32,10.32,0,0,1-10.308-10.308V173.765a10.32,10.32,0,0,1,10.308-10.308h98.038A10.32,10.32,0,0,1,345.6,173.765v39.447h-1.213V173.765a9.106,9.106,0,0,0-9.1-9.1H237.253a9.106,9.106,0,0,0-9.1,9.1V270.82a9.106,9.106,0,0,0,9.1,9.1h55Z" transform="translate(-213.379 -123.27)" fill="#ccc"/>
        <path id="Path_18" data-name="Path 18" d="M739.536,314.457a9.081,9.081,0,0,1,4.087,7.586v2.116H804.6a4.851,4.851,0,1,0,0-9.7Z" transform="translate(-415.152 -182.708)" fill="#e6e6e6"/>
        <path id="Path_19" data-name="Path 19" d="M747.331,285.308a4.856,4.856,0,0,1,4.851-4.851H772.8a4.851,4.851,0,1,1,0,9.7H752.182A4.857,4.857,0,0,1,747.331,285.308Z" transform="translate(-418.22 -169.325)" fill="#e6e6e6"/>
        <path id="Path_20" data-name="Path 20" d="M823.587,228.308a4.856,4.856,0,0,1,4.851-4.851h80.04a4.851,4.851,0,0,1,0,9.7h-80.04a4.856,4.856,0,0,1-4.851-4.851Z" transform="translate(-448.237 -146.888)" fill="#e6e6e6"/>
        <path id="Path_21" data-name="Path 21" d="M881.087,194.308a4.856,4.856,0,0,1,4.851-4.851h10.308a4.851,4.851,0,1,1,0,9.7H885.938A4.856,4.856,0,0,1,881.087,194.308Z" transform="translate(-470.871 -133.504)" fill="#e6e6e6"/>
        <path id="Path_22" data-name="Path 22" d="M711.328,384.485h75.455a10.32,10.32,0,0,0,10.308-10.308V254.819a10.32,10.32,0,0,0-10.308-10.308H666.253a10.32,10.32,0,0,0-10.308,10.308V284.4h1.213V254.819a9.106,9.106,0,0,1,9.1-9.1H786.783a9.106,9.106,0,0,1,9.1,9.1V374.177a9.106,9.106,0,0,1-9.1,9.1H711.328Z" transform="translate(-382.248 -155.175)" fill="#ccc"/>
        <path id="Path_23" data-name="Path 23" d="M853.089,281.127h55A10.32,10.32,0,0,0,918.4,270.819V173.765a10.32,10.32,0,0,0-10.308-10.308H810.054a10.32,10.32,0,0,0-10.308,10.308v39.447h1.213V173.765a9.106,9.106,0,0,1,9.1-9.1h98.039a9.106,9.106,0,0,1,9.1,9.1V270.82a9.106,9.106,0,0,1-9.1,9.1h-55Z" transform="translate(-438.852 -123.27)" fill="#ccc"/>
        <path id="Path_24" data-name="Path 24" d="M629.787,309.967H484.405A10.329,10.329,0,0,0,474.1,320.275V464.281a10.319,10.319,0,0,0,10.308,10.308H629.787A10.319,10.319,0,0,0,640.1,464.281V320.275a10.319,10.319,0,0,0-10.308-10.308Zm9.1,154.314a9.107,9.107,0,0,1-9.1,9.1H484.405a9.107,9.107,0,0,1-9.1-9.1V320.275a9.11,9.11,0,0,1,9.1-9.1H629.787a9.107,9.107,0,0,1,9.1,9.1Z" transform="translate(-310.666 -180.941)" fill="#3f3d56"/>
        <path id="Path_25" data-name="Path 25" d="M629.313,396.159H506.827a4.851,4.851,0,1,1,0-9.7H629.313a4.851,4.851,0,0,1,0,9.7Z" transform="translate(-321.64 -211.05)" fill="#6c63ff"/>
        <path id="Path_26" data-name="Path 26" d="M617.081,362.159H564.327a4.851,4.851,0,1,1,0-9.7h52.754a4.851,4.851,0,0,1,0,9.7Z" transform="translate(-344.274 -197.666)" fill="#6c63ff"/>
        <path id="Path_27" data-name="Path 27" d="M559.081,444.159H506.327a4.851,4.851,0,0,1,0-9.7h52.754a4.851,4.851,0,0,1,0,9.7Z" transform="translate(-321.443 -229.944)" fill="#6c63ff"/>
        <path id="Path_28" data-name="Path 28" d="M559.081,479.159H506.327a4.851,4.851,0,0,1,0-9.7h52.754a4.851,4.851,0,0,1,0,9.7Z" transform="translate(-321.443 -243.721)" fill="#6c63ff"/>
        <path id="Path_29" data-name="Path 29" d="M559.081,514.159H506.327a4.851,4.851,0,0,1,0-9.7h52.754a4.851,4.851,0,0,1,0,9.7Z" transform="translate(-321.443 -257.498)" fill="#6c63ff"/>
        <circle id="Ellipse_44" data-name="Ellipse 44" cx="9.053" cy="9.053" r="9.053" transform="translate(294.379 200.268)" fill="#6c63ff"/>
        <path id="Path_395" data-name="Path 395" d="M701.507,443.612a.94.94,0,0,1-.565-.188l-.01-.008-2.127-1.627a.945.945,0,0,1,1.15-1.5l1.378,1.057,3.256-4.248a.945.945,0,0,1,1.325-.175h0l-.02.028.021-.028a.946.946,0,0,1,.175,1.325l-3.83,4.995a.945.945,0,0,1-.752.369Z" transform="translate(-398.973 -230.838)" fill="#fff"/>
        <path id="Path_30" data-name="Path 30" d="M315.652,125.322a14.071,14.071,0,1,1,14.07-14.071,14.07,14.07,0,0,1-14.07,14.071Zm0-26.928a12.858,12.858,0,1,0,12.858,12.858,12.858,12.858,0,0,0-12.858-12.858Z" transform="translate(-242.758 -97.181)" fill="#ccc"/>
        <path id="Path_395-2" data-name="Path 395" d="M319.618,122.208a1.4,1.4,0,0,1-.84-.279l-.015-.011L315.6,119.5a1.406,1.406,0,1,1,1.711-2.232l2.05,1.572,4.843-6.319a1.406,1.406,0,0,1,1.971-.26h0l-.03.042.031-.042a1.407,1.407,0,0,1,.26,1.971l-5.7,7.429a1.406,1.406,0,0,1-1.118.548Z" transform="translate(-248.059 -103.002)" fill="#ccc"/>
        <path id="Path_31" data-name="Path 31" d="M462.848,206.322a14.071,14.071,0,1,1,14.071-14.071A14.07,14.07,0,0,1,462.848,206.322Zm0-26.928a12.858,12.858,0,1,0,12.858,12.858,12.858,12.858,0,0,0-12.858-12.858Z" transform="translate(-300.7 -129.065)" fill="#ccc"/>
        <path id="Path_395-3" data-name="Path 395" d="M466.814,203.208a1.4,1.4,0,0,1-.84-.279l-.015-.011-3.164-2.421a1.406,1.406,0,0,1,1.711-2.232l2.05,1.572,4.843-6.319a1.406,1.406,0,0,1,1.971-.26h0l-.03.042.031-.042a1.407,1.407,0,0,1,.26,1.971l-5.7,7.429a1.406,1.406,0,0,1-1.118.548Z" transform="translate(-306.001 -134.886)" fill="#ccc"/>
        <circle id="Ellipse_44-2" data-name="Ellipse 44" cx="9.053" cy="9.053" r="9.053" transform="translate(294.379 221.491)" fill="#6c63ff"/>
        <path id="Path_395-4" data-name="Path 395" d="M701.507,478.612a.939.939,0,0,1-.565-.188l-.01-.008-2.127-1.627a.945.945,0,0,1,1.15-1.5l1.378,1.057,3.256-4.248a.945.945,0,0,1,1.325-.175h0l-.02.028.021-.028a.946.946,0,0,1,.175,1.325l-3.83,4.995a.945.945,0,0,1-.752.369Z" transform="translate(-398.973 -244.615)" fill="#fff"/>
        <circle id="Ellipse_44-3" data-name="Ellipse 44" cx="9.053" cy="9.053" r="9.053" transform="translate(294.379 242.756)" fill="#6c63ff"/>
        <path id="Path_395-5" data-name="Path 395" d="M701.507,513.683a.939.939,0,0,1-.565-.188l-.01-.008L698.8,511.86a.945.945,0,1,1,1.151-1.5l1.378,1.057,3.256-4.248a.945.945,0,0,1,1.325-.175h0l-.02.028.021-.028a.946.946,0,0,1,.175,1.325l-3.83,4.995a.945.945,0,0,1-.752.369Z" transform="translate(-398.973 -258.42)" fill="#fff"/>
        <path id="Path_32" data-name="Path 32" d="M601.982,271.322c-9.55-.163-13.89-7.408-13.889-14.072s4.341-13.908,13.869-14.069h.021c9.53.163,13.869,7.408,13.869,14.071S611.51,271.161,601.982,271.322Zm-.01-26.928c-8.7.152-12.666,6.77-12.667,12.857s3.966,12.71,12.677,12.859c8.689-.147,12.656-6.768,12.657-12.857s-3.964-12.7-12.667-12.859Z" transform="translate(-355.539 -154.652)" fill="#6c63ff"/>
        <path id="Path_33" data-name="Path 33" d="M611.773,263.694c2.434,4.228-4.247,5.88-6.8,3.333l.64-1.368c4.156,3.59,7.818-2.628,1.47-2.037v-1.5c5.813.469,2.548-5.382-1.324-1.921l-.626-1.368c3.156-3.275,10.241.685,5.239,3.958A2.493,2.493,0,0,1,611.773,263.694Z" transform="translate(-362.182 -160.33)" fill="#6c63ff"/>
        <path id="Path_34" data-name="Path 34" d="M742.848,206.322a14.071,14.071,0,1,1,14.071-14.071A14.07,14.07,0,0,1,742.848,206.322Zm0-26.928a12.858,12.858,0,1,0,12.858,12.858,12.858,12.858,0,0,0-12.858-12.858Z" transform="translate(-410.917 -129.065)" fill="#ccc"/>
        <path id="Path_35" data-name="Path 35" d="M753.353,201.181h-1.47V203.2h-1.834v-2.023h-4.511v-1.4l4.846-6.942h1.5v6.869h1.47Zm-3.3-1.47v-3.944l-2.736,3.944Z" transform="translate(-417.514 -134.837)" fill="#ccc"/>
        <path id="Path_36" data-name="Path 36" d="M888.453,125.322a14.071,14.071,0,1,1,14.071-14.071A14.071,14.071,0,0,1,888.453,125.322Zm0-26.928a12.858,12.858,0,1,0,12.858,12.858,12.858,12.858,0,0,0-12.858-12.858Z" transform="translate(-468.232 -97.181)" fill="#ccc"/>
        <path id="Path_37" data-name="Path 37" d="M897.311,115.9a2.889,2.889,0,0,1,1.15,1.164,3.554,3.554,0,0,1,.407,1.724,3.433,3.433,0,0,1-.466,1.8,3.117,3.117,0,0,1-1.339,1.208,4.529,4.529,0,0,1-2.023.429,5.828,5.828,0,0,1-1.921-.327,4.461,4.461,0,0,1-1.557-.88l.626-1.368a4.711,4.711,0,0,0,2.881,1.077,1.876,1.876,0,0,0,1.477-3.253,1.949,1.949,0,0,0-1.419-.517,2.944,2.944,0,0,0-1.15.226,2.716,2.716,0,0,0-.946.662H891.9v-6.1h6.49V113.2h-4.657v2.823a3.217,3.217,0,0,1,1.863-.538,3.462,3.462,0,0,1,1.717.415Z" transform="translate(-474.995 -102.915)" fill="#ccc"/>
        <path id="Path_38" data-name="Path 38" d="M352.414,598.545a6.1,6.1,0,0,1,4.051-8.427l1.838-21.59,8.84,6.974-3.1,19.433a6.131,6.131,0,0,1-11.628,3.61Z" transform="translate(-262.554 -282.719)" fill="#ffb8b8"/>
        <path id="Path_39" data-name="Path 39" d="M359.912,551.086a2.727,2.727,0,0,1-2.367-2.59L356.521,524a54.027,54.027,0,0,1,5.221-25.524l9.076-19.018a8.144,8.144,0,0,1,6.116-4.25,7.81,7.81,0,0,1,6.812,2.419,10.242,10.242,0,0,1,1.166,1.5,7.835,7.835,0,0,1,.414,7.461l-13.917,38.019-1.071,24.769a2.729,2.729,0,0,1-3.049,2.592l-7.342-.876Z" transform="translate(-264.366 -245.953)" fill="#6c63ff"/>
        <path id="Path_40" data-name="Path 40" d="M114.63,662.718l6.807,2.988L136.2,640.872l-10.046-4.41Z" transform="translate(-45.122 -250.533)" fill="#ffb8b8"/>
        <path id="Path_41" data-name="Path 41" d="M315.435,772.021l13.405,5.884h0a9.33,9.33,0,0,1,4.793,12.293l-.122.278-21.949-9.634Z" transform="translate(-246.687 -362.821)" fill="#2f2e41"/>
        <path id="Path_42" data-name="Path 42" d="M265.341,674.777h7.434l3.536-28.674H265.34Z" transform="translate(-104.447 -254.328)" fill="#ffb8b8"/>
        <path id="Path_43" data-name="Path 43" d="M466.787,786.57h14.641a9.33,9.33,0,0,1,9.33,9.33v.3h-23.97Z" transform="translate(-307.789 -368.547)" fill="#2f2e41"/>
        <path id="Path_44" data-name="Path 44" d="M336.475,681.813a2.741,2.741,0,0,1-.842-.133l-12.6-4.051a2.74,2.74,0,0,1-1.775-3.4l41.8-133.107,31.31-6.14.11.179c20.7,33.682,27.609,85.135,31.992,139.651a2.744,2.744,0,0,1-2.45,2.936l-13.78,1.378a2.713,2.713,0,0,1-2.9-2L382.1,587.87a.91.91,0,0,0-1.713-.121l-41.412,92.414a2.718,2.718,0,0,1-2.5,1.651Z" transform="translate(-250.456 -269.516)" fill="#2f2e41"/>
        <circle id="Ellipse_4" data-name="Ellipse 4" cx="14.893" cy="14.893" r="14.893" transform="translate(113.881 188.524)" fill="#ffb8b8"/>
        <path id="Path_45" data-name="Path 45" d="M381.694,517.533l-.1-.213c-.069-.145-6.931-14.7-6.292-31.491a21.622,21.622,0,0,1,21.167-20.788h0A21.586,21.586,0,0,1,418.079,482.5a64.785,64.785,0,0,1-.142,27.48l-.045.188-.19.039Z" transform="translate(-271.76 -241.981)" fill="#6c63ff"/>
        <path id="Path_46" data-name="Path 46" d="M496.786,570.121a6.1,6.1,0,0,1-4.89-7.969l-17.154-13.239,10.651-3.654,14.657,13.132a6.131,6.131,0,0,1-3.263,11.73Z" transform="translate(-310.92 -273.559)" fill="#ffb8b8"/>
        <path id="Path_47" data-name="Path 47" d="M429.235,511.269l-.04-.064-18.084-29.286a8.143,8.143,0,0,1-.26-7.443,7.808,7.808,0,0,1,5.723-4.417h0a10.216,10.216,0,0,1,1.9-.165,7.835,7.835,0,0,1,6.5,3.693l24.423,32.291,20.241,14.315a2.729,2.729,0,0,1,.527,3.967l-4.712,5.7a2.718,2.718,0,0,1-3.484.614Z" transform="translate(-285.465 -243.893)" fill="#6c63ff"/>
        <path id="Path_48" data-name="Path 48" d="M358.54,414.7c1.1-1.806,3.52-2.316,5.623-2.11s4.148.945,6.261.929c5.867-.045,10.4-7.2,7.929-12.52-2.023-4.366-7.076-6.283-11.646-7.788-9.583-3.155-20.591-6.186-29.287-1.071a18.2,18.2,0,0,0-8.759,16.215c.2,4.026,1.737,8.161.433,11.975-1.5,4.4-6.274,6.76-10.781,7.9-7.9,2-16.232,1.679-24.183,3.475s-16.1,6.563-18.241,14.427c-1.408,5.166.061,10.726,2.494,15.5a40.133,40.133,0,0,0,55.988,16.422c9.612-5.613,16.551-15.1,20.689-25.431a85.155,85.155,0,0,0,4.922-18.7,41.605,41.605,0,0,0-1.538-17.875,1.643,1.643,0,0,1,.1-1.341Z" transform="translate(-232.429 -212.207)" fill="#2f2e41"/>
        <path id="Path_49" data-name="Path 49" d="M436.2,802.032H205.178a.606.606,0,0,1,0-1.213H436.2a.606.606,0,1,1,0,1.213Z" transform="translate(-204.572 -374.156)" fill="#3f3d56"/>
      </g>
      <g id="Group_13" data-name="Group 13" transform="translate(-508 30)">
        <path id="Path_134" data-name="Path 134" d="M702.02,503.591v46.729a2.248,2.248,0,0,0,2.246,2.246h69.247a2.248,2.248,0,0,0,2.246-2.246V503.591a2.249,2.249,0,0,0-2.246-2.243H704.266A2.249,2.249,0,0,0,702.02,503.591Z" transform="translate(1028.104 1526.649)" fill="#3f3d56"/>
        <path id="Path_135" data-name="Path 135" d="M705,505.526V551.1a1.2,1.2,0,0,0,1.2,1.2h68.092a1.2,1.2,0,0,0,1.2-1.2V505.526a1.2,1.2,0,0,0-1.2-1.2H706.2a1.2,1.2,0,0,0-1.2,1.2Z" transform="translate(1026.75 1525.296)" fill="#6c63ff"/>
        <path id="Path_136" data-name="Path 136" d="M699.108,601.469a1.347,1.347,0,0,0,1.06.507h74.147a1.364,1.364,0,0,0,1.334-1.644l-1.151-5.467a1.367,1.367,0,0,0-.85-.991,1.322,1.322,0,0,0-.484-.091h-71.85a1.321,1.321,0,0,0-.484.091,1.367,1.367,0,0,0-.849.991l-1.151,5.467a1.363,1.363,0,0,0,.279,1.137Z" transform="translate(1029.568 1484.613)" fill="#2f2e41"/>
        <rect id="Rectangle_79" data-name="Rectangle 79" width="2.284" height="1.37" rx="0.488" transform="translate(1802.205 2080.75) rotate(180)" fill="#3f3d56"/>
        <rect id="Rectangle_80" data-name="Rectangle 80" width="2.284" height="1.37" rx="0.488" transform="translate(1797.639 2080.75) rotate(180)" fill="#3f3d56"/>
        <rect id="Rectangle_81" data-name="Rectangle 81" width="2.284" height="1.37" rx="0.488" transform="translate(1793.07 2080.75) rotate(180)" fill="#3f3d56"/>
        <rect id="Rectangle_82" data-name="Rectangle 82" width="2.284" height="1.37" rx="0.488" transform="translate(1788.503 2080.75) rotate(180)" fill="#3f3d56"/>
        <rect id="Rectangle_83" data-name="Rectangle 83" width="2.284" height="1.37" rx="0.488" transform="translate(1783.936 2080.75) rotate(180)" fill="#3f3d56"/>
        <rect id="Rectangle_84" data-name="Rectangle 84" width="2.284" height="1.37" rx="0.488" transform="translate(1779.368 2080.75) rotate(180)" fill="#3f3d56"/>
        <rect id="Rectangle_85" data-name="Rectangle 85" width="2.284" height="1.37" rx="0.488" transform="translate(1774.801 2080.75) rotate(180)" fill="#3f3d56"/>
        <rect id="Rectangle_86" data-name="Rectangle 86" width="2.284" height="1.37" rx="0.488" transform="translate(1770.233 2080.75) rotate(180)" fill="#3f3d56"/>
        <rect id="Rectangle_87" data-name="Rectangle 87" width="2.284" height="1.37" rx="0.488" transform="translate(1765.666 2080.75) rotate(180)" fill="#3f3d56"/>
        <rect id="Rectangle_88" data-name="Rectangle 88" width="2.284" height="1.37" rx="0.488" transform="translate(1761.099 2080.75) rotate(180)" fill="#3f3d56"/>
        <rect id="Rectangle_89" data-name="Rectangle 89" width="2.284" height="1.37" rx="0.488" transform="translate(1756.531 2080.75) rotate(180)" fill="#3f3d56"/>
        <rect id="Rectangle_90" data-name="Rectangle 90" width="2.284" height="1.37" rx="0.488" transform="translate(1751.964 2080.75) rotate(180)" fill="#3f3d56"/>
        <rect id="Rectangle_91" data-name="Rectangle 91" width="2.284" height="1.37" rx="0.488" transform="translate(1747.396 2080.75) rotate(180)" fill="#3f3d56"/>
        <rect id="Rectangle_92" data-name="Rectangle 92" width="2.284" height="1.37" rx="0.488" transform="translate(1742.829 2080.75) rotate(180)" fill="#3f3d56"/>
        <rect id="Rectangle_93" data-name="Rectangle 93" width="2.284" height="1.37" rx="0.488" transform="translate(1738.262 2080.75) rotate(180)" fill="#3f3d56"/>
        <rect id="Rectangle_94" data-name="Rectangle 94" width="2.284" height="1.37" rx="0.488" transform="translate(1733.694 2080.75) rotate(180)" fill="#3f3d56"/>
        <rect id="Rectangle_95" data-name="Rectangle 95" width="2.284" height="1.37" rx="0.488" transform="translate(1802.26 2083.034) rotate(180)" fill="#3f3d56"/>
        <rect id="Rectangle_96" data-name="Rectangle 96" width="2.284" height="1.37" rx="0.488" transform="translate(1797.692 2083.034) rotate(180)" fill="#3f3d56"/>
        <rect id="Rectangle_97" data-name="Rectangle 97" width="2.284" height="1.37" rx="0.488" transform="translate(1793.125 2083.034) rotate(180)" fill="#3f3d56"/>
        <rect id="Rectangle_98" data-name="Rectangle 98" width="2.284" height="1.37" rx="0.488" transform="translate(1788.558 2083.034) rotate(180)" fill="#3f3d56"/>
        <rect id="Rectangle_99" data-name="Rectangle 99" width="2.284" height="1.37" rx="0.488" transform="translate(1783.99 2083.034) rotate(180)" fill="#3f3d56"/>
        <rect id="Rectangle_100" data-name="Rectangle 100" width="2.284" height="1.37" rx="0.488" transform="translate(1779.423 2083.034) rotate(180)" fill="#3f3d56"/>
        <rect id="Rectangle_101" data-name="Rectangle 101" width="2.284" height="1.37" rx="0.488" transform="translate(1774.855 2083.034) rotate(180)" fill="#3f3d56"/>
        <rect id="Rectangle_102" data-name="Rectangle 102" width="2.284" height="1.37" rx="0.488" transform="translate(1770.288 2083.034) rotate(180)" fill="#3f3d56"/>
        <rect id="Rectangle_103" data-name="Rectangle 103" width="2.284" height="1.37" rx="0.488" transform="translate(1765.721 2083.034) rotate(180)" fill="#3f3d56"/>
        <rect id="Rectangle_104" data-name="Rectangle 104" width="2.284" height="1.37" rx="0.488" transform="translate(1761.153 2083.034) rotate(180)" fill="#3f3d56"/>
        <rect id="Rectangle_105" data-name="Rectangle 105" width="2.284" height="1.37" rx="0.488" transform="translate(1756.586 2083.034) rotate(180)" fill="#3f3d56"/>
        <rect id="Rectangle_106" data-name="Rectangle 106" width="2.284" height="1.37" rx="0.488" transform="translate(1752.018 2083.034) rotate(180)" fill="#3f3d56"/>
        <rect id="Rectangle_107" data-name="Rectangle 107" width="2.284" height="1.37" rx="0.488" transform="translate(1747.451 2083.034) rotate(180)" fill="#3f3d56"/>
        <rect id="Rectangle_108" data-name="Rectangle 108" width="2.284" height="1.37" rx="0.488" transform="translate(1742.883 2083.034) rotate(180)" fill="#3f3d56"/>
        <rect id="Rectangle_109" data-name="Rectangle 109" width="2.284" height="1.37" rx="0.488" transform="translate(1738.316 2083.034) rotate(180)" fill="#3f3d56"/>
        <rect id="Rectangle_110" data-name="Rectangle 110" width="2.284" height="1.37" rx="0.488" transform="translate(1733.748 2083.034) rotate(180)" fill="#3f3d56"/>
        <rect id="Rectangle_111" data-name="Rectangle 111" width="18.27" height="1.37" rx="0.488" transform="translate(1780.336 2085.774) rotate(180)" fill="#3f3d56"/>
        <rect id="Rectangle_112" data-name="Rectangle 112" width="3.253" height="1.702" rx="0.851" transform="translate(1741.139 2039.589)" fill="#fff"/>
        <rect id="Rectangle_113" data-name="Rectangle 113" width="3.253" height="1.702" rx="0.851" transform="translate(1758.871 2039.589)" fill="#fff"/>
        <rect id="Rectangle_114" data-name="Rectangle 114" width="3.253" height="1.702" rx="0.851" transform="translate(1763.896 2039.589)" fill="#fff"/>
        <rect id="Rectangle_115" data-name="Rectangle 115" width="11.339" height="1.702" rx="0.851" transform="translate(1745.962 2039.447)" fill="#fff"/>
        <rect id="Rectangle_116" data-name="Rectangle 116" width="11.339" height="1.702" rx="0.851" transform="translate(1769.605 2039.447)" fill="#fff"/>
        <rect id="Rectangle_117" data-name="Rectangle 117" width="3.253" height="1.702" rx="0.851" transform="translate(1745.867 2043.431)" fill="#fff"/>
        <rect id="Rectangle_118" data-name="Rectangle 118" width="3.253" height="1.702" rx="0.851" transform="translate(1763.601 2043.431)" fill="#fff"/>
        <rect id="Rectangle_119" data-name="Rectangle 119" width="3.253" height="1.702" rx="0.851" transform="translate(1768.625 2043.431)" fill="#fff"/>
        <rect id="Rectangle_120" data-name="Rectangle 120" width="11.339" height="1.702" rx="0.851" transform="translate(1750.69 2043.288)" fill="#fff"/>
        <rect id="Rectangle_121" data-name="Rectangle 121" width="11.339" height="1.702" rx="0.851" transform="translate(1774.334 2043.288)" fill="#fff"/>
        <rect id="Rectangle_122" data-name="Rectangle 122" width="3.253" height="1.702" rx="0.851" transform="translate(1750.597 2047.272)" fill="#fff"/>
        <rect id="Rectangle_123" data-name="Rectangle 123" width="3.253" height="1.702" rx="0.851" transform="translate(1768.329 2047.272)" fill="#fff"/>
        <rect id="Rectangle_124" data-name="Rectangle 124" width="3.253" height="1.702" rx="0.851" transform="translate(1773.354 2047.272)" fill="#fff"/>
        <rect id="Rectangle_125" data-name="Rectangle 125" width="11.339" height="1.702" rx="0.851" transform="translate(1755.42 2047.131)" fill="#fff"/>
        <rect id="Rectangle_126" data-name="Rectangle 126" width="11.339" height="1.702" rx="0.851" transform="translate(1779.063 2047.131)" fill="#fff"/>
        <rect id="Rectangle_127" data-name="Rectangle 127" width="3.253" height="1.702" rx="0.851" transform="translate(1755.324 2051.115)" fill="#fff"/>
        <rect id="Rectangle_128" data-name="Rectangle 128" width="3.253" height="1.702" rx="0.851" transform="translate(1773.058 2051.115)" fill="#fff"/>
        <rect id="Rectangle_129" data-name="Rectangle 129" width="3.253" height="1.702" rx="0.851" transform="translate(1778.082 2051.115)" fill="#fff"/>
        <rect id="Rectangle_130" data-name="Rectangle 130" width="11.339" height="1.702" rx="0.851" transform="translate(1760.148 2050.973)" fill="#fff"/>
        <rect id="Rectangle_131" data-name="Rectangle 131" width="3.253" height="1.702" rx="0.851" transform="translate(1758.871 2066.393)" fill="#fff"/>
        <rect id="Rectangle_132" data-name="Rectangle 132" width="3.253" height="1.702" rx="0.851" transform="translate(1763.896 2066.393)" fill="#fff"/>
        <rect id="Rectangle_133" data-name="Rectangle 133" width="11.339" height="1.702" rx="0.851" transform="translate(1769.605 2066.534)" fill="#fff"/>
        <rect id="Rectangle_134" data-name="Rectangle 134" width="3.253" height="1.702" rx="0.851" transform="translate(1741.139 2066.393)" fill="#fff"/>
        <rect id="Rectangle_135" data-name="Rectangle 135" width="11.339" height="1.702" rx="0.851" transform="translate(1745.962 2066.534)" fill="#fff"/>
        <rect id="Rectangle_136" data-name="Rectangle 136" width="3.253" height="1.702" rx="0.851" transform="translate(1745.867 2062.551)" fill="#fff"/>
        <rect id="Rectangle_137" data-name="Rectangle 137" width="3.253" height="1.702" rx="0.851" transform="translate(1763.601 2062.551)" fill="#fff"/>
        <rect id="Rectangle_138" data-name="Rectangle 138" width="3.253" height="1.702" rx="0.851" transform="translate(1768.625 2062.551)" fill="#fff"/>
        <rect id="Rectangle_139" data-name="Rectangle 139" width="11.339" height="1.702" rx="0.851" transform="translate(1750.69 2062.692)" fill="#fff"/>
        <rect id="Rectangle_140" data-name="Rectangle 140" width="3.253" height="1.702" rx="0.851" transform="translate(1750.597 2058.708)" fill="#fff"/>
        <rect id="Rectangle_141" data-name="Rectangle 141" width="3.253" height="1.702" rx="0.851" transform="translate(1768.329 2058.708)" fill="#fff"/>
        <rect id="Rectangle_142" data-name="Rectangle 142" width="3.253" height="1.702" rx="0.851" transform="translate(1773.354 2058.708)" fill="#fff"/>
        <rect id="Rectangle_143" data-name="Rectangle 143" width="11.339" height="1.702" rx="0.851" transform="translate(1755.42 2058.85)" fill="#fff"/>
        <rect id="Rectangle_144" data-name="Rectangle 144" width="3.253" height="1.702" rx="0.851" transform="translate(1755.324 2054.866)" fill="#fff"/>
        <rect id="Rectangle_145" data-name="Rectangle 145" width="3.253" height="1.702" rx="0.851" transform="translate(1773.058 2054.866)" fill="#fff"/>
        <rect id="Rectangle_146" data-name="Rectangle 146" width="3.253" height="1.702" rx="0.851" transform="translate(1778.082 2054.866)" fill="#fff"/>
        <rect id="Rectangle_147" data-name="Rectangle 147" width="11.339" height="1.702" rx="0.851" transform="translate(1760.148 2055.008)" fill="#fff"/>
        <path id="Path_147" data-name="Path 147" d="M896.818,577.02a3.5,3.5,0,0,0,3.371,2.361l14.444-.372a3.45,3.45,0,0,0,3.261-2.539l2.044-21.857a5.341,5.341,0,0,0,2.311.475,5.268,5.268,0,0,0-.264-10.532,4.461,4.461,0,0,0-.947.1,3.57,3.57,0,0,0-2.657-1.147l-22.219.574a3.2,3.2,0,0,0-.548.068,3.47,3.47,0,0,0-2.657,4.506Zm23.54-23.89,1.454-5.208a3.546,3.546,0,0,0,.011-1.84c.071,0,.133-.034.2-.034a3.768,3.768,0,1,1,.176,7.533,3.546,3.546,0,0,1-1.846-.451Z" transform="translate(941.354 1507.476)" fill="#2f2e41"/>
        <path id="Path_148" data-name="Path 148" d="M897.978,544.15c.473,2.707,5.8,4.609,12.195,4.279,5.885-.271,10.7-2.337,11.578-4.786a3.286,3.286,0,0,0-1.006-.134l-22.219.574A3.191,3.191,0,0,0,897.978,544.15Z" transform="translate(938.989 1507.476)" fill="#3f3d56"/>
        <path id="Path_149" data-name="Path 149" d="M922.108,579a.272.272,0,0,0,.082-.036l3.137-2.053a.272.272,0,0,0,0-.456l-3.26-2.135a.272.272,0,0,0-.3.456l2.912,1.907-2.788,1.825a.273.273,0,0,0,.216.492Z" transform="translate(928.227 1493.483)" fill="#6c63ff"/>
        <path id="Path_150" data-name="Path 150" d="M910.412,579.422a.273.273,0,0,0,.069-.5l-2.891-1.658,2.795-2.076a.272.272,0,0,0-.325-.437l-3.129,2.324a.272.272,0,0,0,.027.455l3.253,1.865A.272.272,0,0,0,910.412,579.422Z" transform="translate(934.969 1493.292)" fill="#6c63ff"/>
        <path id="Path_151" data-name="Path 151" d="M917.93,579.7a.263.263,0,0,0,.075-.031.273.273,0,0,0,.091-.375l-4.447-7.311a.273.273,0,0,0-.466.284l4.447,7.311A.273.273,0,0,0,917.93,579.7Z" transform="translate(932.093 1494.586)" fill="#6c63ff"/>
      </g>
      <g id="Group_12" data-name="Group 12" transform="translate(-177 37.99)">
        <path id="Path_138" data-name="Path 138" d="M398.28,499.778V555.7h39.175V499.778a1.88,1.88,0,0,0-1.325-1.8,1.731,1.731,0,0,0-.562-.087h-35.4A1.888,1.888,0,0,0,398.28,499.778Zm15.288,19.214a4.182,4.182,0,1,1,8.364,0v6.488a4.182,4.182,0,1,1-8.364,0Z" transform="translate(1166.235 1528.22)" fill="#2f2e41"/>
        <path id="Path_139" data-name="Path 139" d="M398.06,600.632v5.392a1.061,1.061,0,0,0,1.052,1.058h37.31a1.058,1.058,0,0,0,1.052-1.058v-5.392Z" transform="translate(1166.336 1481.498)" fill="#3f3d56"/>
        <path id="Path_140" data-name="Path 140" d="M285.25,342.744v102.1a4.911,4.911,0,0,0,4.907,4.907h151.3a4.911,4.911,0,0,0,4.907-4.907v-102.1a4.913,4.913,0,0,0-4.907-4.9h-151.3A4.913,4.913,0,0,0,285.25,342.744Z" transform="translate(1217.638 1601.006)" fill="#3f3d56"/>
        <path id="Path_141" data-name="Path 141" d="M291.76,346.97v99.57a2.627,2.627,0,0,0,2.623,2.623H443.16a2.627,2.627,0,0,0,2.623-2.623V346.97a2.628,2.628,0,0,0-2.622-2.628H294.383A2.628,2.628,0,0,0,291.76,346.97Z" transform="translate(1214.678 1598.05)" fill="#fff"/>
        <path id="Path_142" data-name="Path 142" d="M342.095,604.138a1.608,1.608,0,0,0,1.265.605h88.513a1.629,1.629,0,0,0,1.592-1.963l-1.374-6.526a1.632,1.632,0,0,0-1.014-1.183,1.578,1.578,0,0,0-.578-.109H344.728a1.578,1.578,0,0,0-.578.109,1.631,1.631,0,0,0-1.014,1.183l-1.374,6.526A1.627,1.627,0,0,0,342.095,604.138Z" transform="translate(1191.953 1484.076)" fill="#2f2e41"/>
        <path id="Path_143" data-name="Path 143" d="M444.01,368.575H304.8a.554.554,0,1,1,0-1.107H444.01a.554.554,0,1,1,0,1.107Z" transform="translate(1209 1587.533)" fill="#3f3d56"/>
        <path id="Path_144" data-name="Path 144" d="M541.076,351.622h-7.96a.6.6,0,0,0,0,1.2h7.96a.6.6,0,1,0,0-1.205Z" transform="translate(1105.185 1594.739)" fill="#3f3d56"/>
        <path id="Path_145" data-name="Path 145" d="M541.064,355.772H533.1a.6.6,0,1,0,0,1.205h7.96a.6.6,0,1,0,0-1.2Z" transform="translate(1105.196 1592.852)" fill="#3f3d56"/>
        <path id="Path_146" data-name="Path 146" d="M541.076,359.922h-7.96a.6.6,0,0,0,0,1.2h7.96a.6.6,0,1,0,0-1.205Z" transform="translate(1105.185 1590.965)" fill="#3f3d56"/>
        <rect id="Rectangle_148" data-name="Rectangle 148" width="27.654" height="5.913" rx="2.957" transform="translate(1574.164 1986.205)" fill="#6c63ff"/>
        <rect id="Rectangle_149" data-name="Rectangle 149" width="55.742" height="5.913" rx="2.957" transform="translate(1560.119 1998.032)" fill="#e6e6e6"/>
        <rect id="Rectangle_150" data-name="Rectangle 150" width="55.742" height="5.913" rx="2.957" transform="translate(1560.119 2009.859)" fill="#e6e6e6"/>
      </g>
    </g>
  </g>
</svg>
